M48
;Layer_Color=9474304
;FILE_FORMAT=2:5
INCH,LZ
;TYPE=PLATED
T1F00S00C0.01181
T2F00S00C0.03543
T4F00S00C0.07087
;TYPE=NON_PLATED
%
T01
X030476Y0113
X0312
X031Y0125321
X03Y01545
X032Y01345
X0335
X0326Y0119622
X0321Y01135
X0439Y0117
X0442Y0125
X0447626Y01435
X045726Y0112
X04645Y01115
X04827Y0135
X039391Y01888
X0386Y0189
Y0199
X0394
Y0209
X0386
Y0219
X0394
Y0229
X0386
Y0239
X0394
X039391Y0249
X0386
Y0259
X0394
Y0269
X0386
Y0279
X0394
Y0289
X0386
Y0299
X0394
Y0309
X0386
X03125Y0299
X0315Y0289
X03175Y0279
X032Y0269
X03165Y0192
X0313Y01888
X0315Y01805
X0320302Y0175
X0325Y01715
X0329941Y0172
Y0163
X0325
X032
X0315
X031Y0163
X0305Y0163
X0303Y02535
X02875Y02795
X03095Y0309
X03071Y0319
X03044Y03289
X0305Y03705
X031
X03
Y0397
X032Y04065
X0325
X03225Y04195
X0315
Y03705
X032
X0325
X033
X0335Y03875
X03615Y0385
X03625Y0372
X0394Y0394
X03995Y03895
Y0399
X04477Y04075
X046276Y0419
X04677Y0396421
X0394Y0339
X0386
Y0329
X0394
Y0319
X0386
X03235Y0354
X04727Y0395921
X04825Y0388
X04705Y04185
T02
X0485Y021
Y022
Y023
Y024
Y025
Y026
Y027
Y028
Y03
Y031
X0295
Y03
Y029
Y028
Y0264
Y0254
Y0244
Y0234
Y0224
Y0214
Y0204
Y0194
Y0184
Y0174
Y032
Y033
Y034
Y035
X0485
Y034
Y033
Y032
T04
X036998Y043248
X0388484
X0406988
X0414468Y047
X03625
M30
