M48
;Layer_Color=9474304
;FILE_FORMAT=2:5
INCH,LZ
;TYPE=PLATED
T1F00S00C0.01181
T2F00S00C0.04331
;TYPE=NON_PLATED
%
T01
X04825Y0211807
X0482Y02185
X04914Y02336
X04907Y02467
X05016Y02392
X05064Y02436
X05149Y02567
X05193Y02752
X0509Y028
X05055Y02845
X0518622Y029
X04936Y02666
X0405Y027
Y028
Y029
Y03
Y031
X0395
Y03
Y029
Y028
Y027
Y026
X0405
Y025
Y024
Y023
Y022
X0395
Y023
Y024
Y025
X03999Y02012
X03175Y02547
X03145Y02615
X03185Y0267
X0315Y0275
X03232Y02941
X03233Y03047
X03135Y0301
X0299Y02985
X0295Y0308
X0304Y0263
X029Y0252
X0305Y03315
X0303931Y03535
X031544Y0349073
X03185Y03355
X03187Y03282
X03151Y03239
X03155Y0315
X0395Y032
Y033
Y034
Y035
Y036
Y037
Y038
X0405
Y037
Y036
Y035
Y034
Y033
Y032
X04967Y0315882
X05064Y0315287
X0507Y0322
X04948Y03416
X05055Y03595
X05197Y03651
Y035
X0518622Y0389
X0504
T02
X038Y0185
X039
X04
X041
X042
M30
