M48
;Layer_Color=9474304
;FILE_FORMAT=2:5
INCH,LZ
;TYPE=PLATED
T3F00S00C0.04331
;TYPE=NON_PLATED
T5F00S00C0.04724
%
G90
G05
T03
G00X0301496Y0454429
M15
G01Y0446949
M16
G00X0324724Y0438878
M15
G01X0315276
M16
G00X032374Y04625
M15
G01X031626
M16
T05
G00X0329303Y0184
M15
G01X0379697
M16
G00X0329303Y0194
M15
G01X0379697
M16
G00X0329303Y0204
M15
G01X0379697
M16
G00X0329303Y0214
M15
G01X0379697
M16
G00X0329303Y0224
M15
G01X0379697
M16
G00X0329303Y0234
M15
G01X0379697
M16
G00X0329303Y0244
M15
G01X0379697
M16
G00X0329303Y0254
M15
G01X0379697
M16
G00X0329303Y0264
M15
G01X0379697
M16
G00X0329303Y0274
M15
G01X0379697
M16
G00X0329303Y0284
M15
G01X0379697
M16
G00X0329303Y0294
M15
G01X0379697
M16
G00X0329303Y0304
M15
G01X0379697
M16
G00X0400303Y0304
M15
G01X0450697
M16
G00X0400303Y0294
M15
G01X0450697
M16
G00X0400303Y0284
M15
G01X0450697
M16
G00X0400303Y0274
M15
G01X0450697
M16
G00X0400303Y0264
M15
G01X0450697
M16
G00X0400303Y0254
M15
G01X0450697
M16
G00X0400303Y0244
M15
G01X0450697
M16
G00X0400303Y0234
M15
G01X0450697
M16
G00X0400303Y0224
M15
G01X0450697
M16
G00X0400303Y0214
M15
G01X0450697
M16
G00X0400303Y0204
M15
G01X0450697
M16
G00X0400303Y0194
M15
G01X0450697
M16
G00X0400303Y0184
M15
G01X0450697
M16
G00X0400303Y0314
M15
G01X0450697
M16
G00X0400303Y0324
M15
G01X0450697
M16
G00X0400303Y0334
M15
G01X0450697
M16
G00X0400303Y0344
M15
G01X0450697
M16
G00X0329303Y0344
M15
G01X0379697
M16
G00X0329303Y0334
M15
G01X0379697
M16
G00X0329303Y0324
M15
G01X0379697
M16
G00X0329303Y0314
M15
G01X0379697
M16
M17
M30
