M48
;Layer_Color=9474304
;FILE_FORMAT=2:5
INCH,LZ
;TYPE=PLATED
;TYPE=NON_PLATED
T3F00S00C0.04724
%
G90
G05
T03
G00X0339803Y0215
M15
G01X0390197
M16
G00X0339803Y0225
M15
G01X0390197
M16
G00X0339803Y0235
M15
G01X0390197
M16
G00X0339803Y0245
M15
G01X0390197
M16
G00X0339803Y0255
M15
G01X0390197
M16
G00X0339803Y0265
M15
G01X0390197
M16
G00X0339803Y0275
M15
G01X0390197
M16
G00X0339803Y0285
M15
G01X0390197
M16
G00X0339803Y0295
M15
G01X0390197
M16
G00X0339803Y0305
M15
G01X0390197
M16
G00X0410803Y0305
M15
G01X0461197
M16
G00X0410803Y0295
M15
G01X0461197
M16
G00X0410803Y0285
M15
G01X0461197
M16
G00X0410803Y0275
M15
G01X0461197
M16
G00X0410803Y0265
M15
G01X0461197
M16
G00X0410803Y0255
M15
G01X0461197
M16
G00X0410803Y0245
M15
G01X0461197
M16
G00X0410803Y0235
M15
G01X0461197
M16
G00X0410803Y0225
M15
G01X0461197
M16
G00X0410803Y0215
M15
G01X0461197
M16
G00X0410803Y0315
M15
G01X0461197
M16
G00X0410803Y0325
M15
G01X0461197
M16
G00X0410803Y0335
M15
G01X0461197
M16
G00X0410803Y0345
M15
G01X0461197
M16
G00X0410803Y0355
M15
G01X0461197
M16
G00X0410803Y0365
M15
G01X0461197
M16
G00X0410803Y0375
M15
G01X0461197
M16
G00X0410803Y0385
M15
G01X0461197
M16
G00X0339803Y0385
M15
G01X0390197
M16
G00X0339803Y0375
M15
G01X0390197
M16
G00X0339803Y0365
M15
G01X0390197
M16
G00X0339803Y0355
M15
G01X0390197
M16
G00X0339803Y0345
M15
G01X0390197
M16
G00X0339803Y0335
M15
G01X0390197
M16
G00X0339803Y0325
M15
G01X0390197
M16
G00X0339803Y0315
M15
G01X0390197
M16
M17
M30
