G04*
G04 #@! TF.GenerationSoftware,Altium Limited,Altium Designer,18.1.7 (191)*
G04*
G04 Layer_Color=16711935*
%FSLAX44Y44*%
%MOMM*%
G71*
G01*
G75*
G04:AMPARAMS|DCode=27|XSize=14.2mm|YSize=1.4mm|CornerRadius=0.7mm|HoleSize=0mm|Usage=FLASHONLY|Rotation=0.000|XOffset=0mm|YOffset=0mm|HoleType=Round|Shape=RoundedRectangle|*
%AMROUNDEDRECTD27*
21,1,14.2000,0.0000,0,0,0.0*
21,1,12.8000,1.4000,0,0,0.0*
1,1,1.4000,6.4000,0.0000*
1,1,1.4000,-6.4000,0.0000*
1,1,1.4000,-6.4000,0.0000*
1,1,1.4000,6.4000,0.0000*
%
%ADD27ROUNDEDRECTD27*%
%ADD28O,1.8000X2.2000*%
%ADD29R,1.8000X2.2000*%
%ADD42R,14.1000X0.8000*%
D27*
X1107440Y952500D02*
D03*
Y977900D02*
D03*
Y927100D02*
D03*
Y901700D02*
D03*
Y876300D02*
D03*
Y850900D02*
D03*
Y825500D02*
D03*
Y800100D02*
D03*
Y774700D02*
D03*
Y749300D02*
D03*
Y723900D02*
D03*
Y698500D02*
D03*
Y673100D02*
D03*
Y647700D02*
D03*
Y622300D02*
D03*
Y596900D02*
D03*
X927100D02*
D03*
Y622300D02*
D03*
Y647700D02*
D03*
Y673100D02*
D03*
Y698500D02*
D03*
Y723900D02*
D03*
Y749300D02*
D03*
Y774700D02*
D03*
Y800100D02*
D03*
Y825500D02*
D03*
Y850900D02*
D03*
Y876300D02*
D03*
Y901700D02*
D03*
Y927100D02*
D03*
Y977900D02*
D03*
Y952500D02*
D03*
Y571500D02*
D03*
Y546100D02*
D03*
X1107440D02*
D03*
Y571500D02*
D03*
D28*
X965200Y469900D02*
D03*
X990600D02*
D03*
X1016000D02*
D03*
X1041400D02*
D03*
D29*
X1066800D02*
D03*
D42*
X1107440Y965200D02*
D03*
Y939800D02*
D03*
Y914400D02*
D03*
Y889000D02*
D03*
Y863600D02*
D03*
Y838200D02*
D03*
Y812800D02*
D03*
Y787400D02*
D03*
Y762000D02*
D03*
Y736600D02*
D03*
Y711200D02*
D03*
Y685800D02*
D03*
Y660400D02*
D03*
Y635000D02*
D03*
Y609600D02*
D03*
X927100Y685800D02*
D03*
Y660400D02*
D03*
Y635000D02*
D03*
Y609600D02*
D03*
Y711200D02*
D03*
Y736600D02*
D03*
Y762000D02*
D03*
Y787400D02*
D03*
Y812800D02*
D03*
Y838200D02*
D03*
Y863600D02*
D03*
Y889000D02*
D03*
Y914400D02*
D03*
Y939800D02*
D03*
Y965200D02*
D03*
Y584200D02*
D03*
Y558800D02*
D03*
X1107440D02*
D03*
Y584200D02*
D03*
M02*
