G04*
G04 #@! TF.GenerationSoftware,Altium Limited,Altium Designer,19.0.14 (431)*
G04*
G04 Layer_Physical_Order=4*
G04 Layer_Color=16711680*
%FSLAX44Y44*%
%MOMM*%
G71*
G01*
G75*
%ADD35C,0.4000*%
%ADD36C,0.3000*%
%ADD38C,3.6000*%
%ADD39R,3.7000X1.3000*%
%ADD40R,3.2000X1.3000*%
%ADD41R,1.3000X3.2000*%
%ADD42C,1.5000*%
G04:AMPARAMS|DCode=43|XSize=14mm|YSize=1.2mm|CornerRadius=0.6mm|HoleSize=0mm|Usage=FLASHONLY|Rotation=0.000|XOffset=0mm|YOffset=0mm|HoleType=Round|Shape=RoundedRectangle|*
%AMROUNDEDRECTD43*
21,1,14.0000,0.0000,0,0,0.0*
21,1,12.8000,1.2000,0,0,0.0*
1,1,1.2000,6.4000,0.0000*
1,1,1.2000,-6.4000,0.0000*
1,1,1.2000,-6.4000,0.0000*
1,1,1.2000,6.4000,0.0000*
%
%ADD43ROUNDEDRECTD43*%
%ADD44C,0.6000*%
%ADD53R,15.0000X0.7000*%
D35*
X764540Y638810D02*
X769620Y643890D01*
X828040Y303840D02*
Y342900D01*
X764540Y406400D02*
X828040Y342900D01*
X764540Y406400D02*
Y638810D01*
D36*
X838050Y414020D02*
Y436880D01*
X774700Y459232D02*
X795020Y479552D01*
X774700Y414020D02*
Y459232D01*
X787400Y455930D02*
X803910Y472440D01*
X787400Y414020D02*
Y455930D01*
X849122Y1034288D02*
X1075436D01*
X812800Y1032510D02*
X821690Y1041400D01*
X842010D01*
X849122Y1034288D01*
X1102814Y1006910D02*
X1187958D01*
X1075436Y1034288D02*
X1102814Y1006910D01*
X835660Y1023620D02*
X1073150D01*
X826312Y1032510D02*
X827812Y1031010D01*
X828270D01*
X835660Y1023620D01*
X825500Y1032510D02*
X826312D01*
X1073150Y1023620D02*
X1097280Y999490D01*
X1194508D01*
X1200658Y1005640D01*
X1106170Y288290D02*
X1115060Y297180D01*
X1102360Y295910D02*
X1122680Y316230D01*
X815340Y288290D02*
X1106170D01*
X809806Y295910D02*
X1102360D01*
X787400Y318316D02*
X809806Y295910D01*
X1122680Y316230D02*
Y317500D01*
X730250Y709930D02*
X748030D01*
X749300Y711200D01*
X803910Y472440D02*
Y487680D01*
X800100Y414020D02*
Y458470D01*
X825500Y414020D02*
Y435610D01*
X812800Y414020D02*
Y414832D01*
X813566Y415598D01*
Y444500D01*
X762000Y926542D02*
Y941070D01*
Y926542D02*
X773176Y915366D01*
X774700Y925281D02*
X780034Y919947D01*
Y810260D02*
Y919947D01*
X773176Y835406D02*
Y915366D01*
X787400Y786130D02*
Y941070D01*
X786130Y784860D02*
X787400Y786130D01*
X793750Y759460D02*
Y924560D01*
X800250Y734210D02*
Y918360D01*
X800100Y734060D02*
X800250Y734210D01*
X793750Y924560D02*
X800100Y930910D01*
X800250Y918360D02*
X812800Y930910D01*
Y941070D01*
X800100Y930910D02*
Y941070D01*
X749327Y711227D02*
X760703D01*
X749300Y711200D02*
X749327Y711227D01*
X760703D02*
X770890Y701040D01*
Y681990D02*
Y701040D01*
Y681990D02*
X781050Y671830D01*
X815340D01*
X821690Y678180D01*
Y899160D01*
X812800Y711502D02*
Y906780D01*
X806600Y708810D02*
Y911040D01*
X812800Y906780D02*
X838200Y932180D01*
X812950Y683410D02*
Y711352D01*
X806600Y911040D02*
X825500Y929940D01*
X812800Y711502D02*
X812950Y711352D01*
X774700Y925281D02*
Y941070D01*
X806450Y708660D02*
X806600Y708810D01*
X812800Y683260D02*
X812950Y683410D01*
X838200Y932180D02*
Y941070D01*
X825500Y929940D02*
Y941070D01*
D38*
X939750Y1098500D02*
D03*
X1033750D02*
D03*
X920750Y1193800D02*
D03*
X1052750D02*
D03*
X986750Y1098500D02*
D03*
D39*
X812800Y1114750D02*
D03*
D40*
Y1174750D02*
D03*
D41*
X765800Y1144750D02*
D03*
D42*
X1231900Y762000D02*
D03*
Y787400D02*
D03*
Y812800D02*
D03*
Y838200D02*
D03*
Y863600D02*
D03*
Y889000D02*
D03*
X749300D02*
D03*
Y863600D02*
D03*
Y838200D02*
D03*
Y812800D02*
D03*
Y787400D02*
D03*
Y762000D02*
D03*
Y736600D02*
D03*
Y711200D02*
D03*
Y619760D02*
D03*
Y441960D02*
D03*
Y467360D02*
D03*
Y492760D02*
D03*
Y518160D02*
D03*
Y543560D02*
D03*
Y568960D02*
D03*
Y594360D02*
D03*
Y645160D02*
D03*
Y670560D02*
D03*
X1231900Y533400D02*
D03*
Y558800D02*
D03*
Y584200D02*
D03*
Y609600D02*
D03*
Y635000D02*
D03*
Y660400D02*
D03*
Y685800D02*
D03*
Y711200D02*
D03*
D43*
X1080770Y645160D02*
D03*
Y619760D02*
D03*
Y594360D02*
D03*
Y568960D02*
D03*
Y543560D02*
D03*
Y518160D02*
D03*
Y492760D02*
D03*
Y467360D02*
D03*
X900430D02*
D03*
Y492760D02*
D03*
Y518160D02*
D03*
Y543560D02*
D03*
Y568960D02*
D03*
Y594360D02*
D03*
Y619760D02*
D03*
Y645160D02*
D03*
Y848360D02*
D03*
Y873760D02*
D03*
Y822960D02*
D03*
Y797560D02*
D03*
Y772160D02*
D03*
Y746760D02*
D03*
Y721360D02*
D03*
Y695960D02*
D03*
Y670560D02*
D03*
X1080770D02*
D03*
Y695960D02*
D03*
Y721360D02*
D03*
Y746760D02*
D03*
Y772160D02*
D03*
Y797560D02*
D03*
Y822960D02*
D03*
Y873760D02*
D03*
Y848360D02*
D03*
D44*
X980440Y480060D02*
D03*
X1000531Y479552D02*
D03*
Y632460D02*
D03*
X838050Y436880D02*
D03*
X1226058Y342900D02*
D03*
X1137158Y1035050D02*
D03*
X1225550Y985520D02*
D03*
X1195070Y1062990D02*
D03*
X1175410Y1064260D02*
D03*
X1115060Y297180D02*
D03*
X1179830Y283210D02*
D03*
X1161440Y284480D02*
D03*
X1136970Y364490D02*
D03*
X825500Y1032510D02*
D03*
X1200658Y1005640D02*
D03*
X1187958Y1006910D02*
D03*
X812800Y1032510D02*
D03*
X815340Y288290D02*
D03*
X1122680Y317500D02*
D03*
X787400Y318316D02*
D03*
X730250Y709930D02*
D03*
X819150Y1065530D02*
D03*
X800100D02*
D03*
X980440Y835660D02*
D03*
Y810260D02*
D03*
Y708660D02*
D03*
Y734060D02*
D03*
Y607060D02*
D03*
Y632460D02*
D03*
Y505460D02*
D03*
Y530860D02*
D03*
Y861060D02*
D03*
Y784860D02*
D03*
Y759460D02*
D03*
Y683260D02*
D03*
Y657860D02*
D03*
Y581660D02*
D03*
Y556260D02*
D03*
X1000760Y505460D02*
D03*
X850900Y341630D02*
D03*
X828040Y303840D02*
D03*
X769620Y643890D02*
D03*
X812800Y341630D02*
D03*
X792480Y287020D02*
D03*
X774090D02*
D03*
X762000Y392430D02*
D03*
X803910Y487680D02*
D03*
X795020Y479552D02*
D03*
X838050Y414020D02*
D03*
X825500D02*
D03*
Y435610D02*
D03*
X813566Y444500D02*
D03*
X800100Y414020D02*
D03*
X812800D02*
D03*
X787400Y414020D02*
D03*
X774700Y414020D02*
D03*
X800100Y458470D02*
D03*
X773176Y835406D02*
D03*
X780034Y810260D02*
D03*
X786130Y784860D02*
D03*
X793750Y759460D02*
D03*
X821690Y899160D02*
D03*
X800100Y734060D02*
D03*
X806450Y708660D02*
D03*
X850900Y984250D02*
D03*
X762000Y1008380D02*
D03*
X812800Y683260D02*
D03*
X838200Y941070D02*
D03*
X825500D02*
D03*
X812800D02*
D03*
X800100D02*
D03*
X787400D02*
D03*
X774700D02*
D03*
X762000D02*
D03*
X920750Y944880D02*
D03*
X918210Y977900D02*
D03*
X1000760Y1000760D02*
D03*
X1014730Y989330D02*
D03*
Y1013460D02*
D03*
X1000760Y861060D02*
D03*
Y835660D02*
D03*
Y810260D02*
D03*
Y784860D02*
D03*
Y759460D02*
D03*
Y734060D02*
D03*
Y708660D02*
D03*
Y683260D02*
D03*
Y657860D02*
D03*
Y607060D02*
D03*
Y581660D02*
D03*
Y556260D02*
D03*
Y530860D02*
D03*
D53*
X1080770Y657860D02*
D03*
Y632460D02*
D03*
Y607060D02*
D03*
Y581660D02*
D03*
Y556260D02*
D03*
Y530860D02*
D03*
Y505460D02*
D03*
Y480060D02*
D03*
X900430D02*
D03*
Y505460D02*
D03*
Y530860D02*
D03*
Y556260D02*
D03*
Y581660D02*
D03*
Y607060D02*
D03*
Y632460D02*
D03*
Y657860D02*
D03*
Y861060D02*
D03*
Y835660D02*
D03*
Y810260D02*
D03*
Y784860D02*
D03*
Y759460D02*
D03*
Y734060D02*
D03*
Y708660D02*
D03*
Y683260D02*
D03*
X1080770D02*
D03*
Y708660D02*
D03*
Y734060D02*
D03*
Y759460D02*
D03*
Y784860D02*
D03*
Y810260D02*
D03*
Y835660D02*
D03*
Y861060D02*
D03*
M02*
