G04*
G04 #@! TF.GenerationSoftware,Altium Limited,Altium Designer,19.0.14 (431)*
G04*
G04 Layer_Color=65535*
%FSLAX44Y44*%
%MOMM*%
G71*
G01*
G75*
%ADD10C,0.2000*%
%ADD11C,0.0500*%
%ADD12C,0.1000*%
%ADD13C,0.1500*%
D10*
X755650Y993875D02*
G03*
X755650Y1000225I0J3175D01*
G01*
X857250Y357151D02*
G03*
X857250Y350801I0J-3175D01*
G01*
X1130808Y993675D02*
G03*
X1130808Y1000025I0J3175D01*
G01*
X1232408Y357151D02*
G03*
X1232408Y350801I0J-3175D01*
G01*
X959210Y968260D02*
X1041710D01*
Y1033260D01*
X959210D02*
X1041710D01*
X959210Y968260D02*
Y1033260D01*
X755650Y985400D02*
Y993875D01*
Y1000225D02*
Y1008700D01*
X857250D01*
Y985400D02*
Y1008700D01*
X755650Y985400D02*
X857250D01*
X755650Y365626D02*
X857250D01*
X755650Y342326D02*
Y365626D01*
Y342326D02*
X857250D01*
Y350801D01*
Y357151D02*
Y365626D01*
X1130808Y985200D02*
Y993675D01*
Y1000025D02*
Y1008500D01*
X1232408D01*
Y985200D02*
Y1008500D01*
X1130808Y985200D02*
X1232408D01*
X1130808Y365626D02*
X1232408D01*
X1130808Y342326D02*
Y365626D01*
Y342326D02*
X1232408D01*
Y350801D01*
Y357151D02*
Y365626D01*
X1054050Y1220420D02*
Y1253440D01*
Y1113740D02*
Y1169620D01*
X919430Y1113740D02*
Y1169620D01*
Y1253440D02*
X1054050D01*
X919430Y1220420D02*
Y1253440D01*
X763800Y1108750D02*
X789800D01*
X763800D02*
Y1124750D01*
Y1163750D02*
Y1252750D01*
X857800D01*
Y1108750D02*
Y1252750D01*
X834800Y1108750D02*
X857800D01*
X791820Y1037590D02*
X827380D01*
Y1057910D01*
X791820D02*
X827380D01*
X791820Y1037590D02*
Y1057910D01*
X931570Y1066800D02*
X967130D01*
X931570Y1046480D02*
Y1066800D01*
Y1046480D02*
X967130D01*
Y1066800D01*
X930910Y955040D02*
X966470D01*
X930910Y934720D02*
Y955040D01*
Y934720D02*
X966470D01*
Y955040D01*
X1167130Y1036218D02*
X1202690D01*
Y1056538D01*
X1167130D02*
X1202690D01*
X1167130Y1036218D02*
Y1056538D01*
X1153160Y312420D02*
X1188720D01*
X1153160Y292100D02*
Y312420D01*
Y292100D02*
X1188720D01*
Y312420D01*
X765810D02*
X801370D01*
X765810Y292100D02*
Y312420D01*
Y292100D02*
X801370D01*
Y312420D01*
X1219200Y901700D02*
X1244600D01*
X1219200Y749300D02*
X1244600D01*
X1219200D02*
Y901700D01*
X1244600Y749300D02*
Y901700D01*
X736600Y698500D02*
X762000D01*
X736600D02*
Y901700D01*
X762000D01*
Y698500D02*
Y901700D01*
Y429260D02*
Y664210D01*
Y683260D01*
X736600D02*
X762000D01*
X736600Y429260D02*
Y683260D01*
Y429260D02*
X762000D01*
X1219200Y723900D02*
X1244600D01*
Y520700D02*
Y723900D01*
X1219200Y520700D02*
X1244600D01*
X1219200D02*
Y723900D01*
X817880Y454660D02*
Y873760D01*
X830326Y886206D01*
X932434D01*
X817880Y873760D02*
X818134D01*
X1046226Y886206D02*
X1160780D01*
X817880Y454660D02*
X1160780D01*
X1160780Y886206D02*
X1160780Y454660D01*
X932434Y886206D02*
X1046226D01*
D11*
X1091006Y476250D02*
Y483870D01*
Y501650D02*
Y509270D01*
Y527050D02*
Y534670D01*
Y552450D02*
Y560070D01*
Y577850D02*
Y585470D01*
Y603250D02*
Y610870D01*
Y628650D02*
Y636270D01*
Y654050D02*
Y661670D01*
Y679450D02*
Y687070D01*
Y704850D02*
Y712470D01*
Y730250D02*
Y737870D01*
Y755650D02*
Y763270D01*
Y781050D02*
Y788670D01*
Y806450D02*
Y814070D01*
Y831850D02*
Y839470D01*
Y857250D02*
Y864870D01*
X890346Y476250D02*
Y483870D01*
Y501650D02*
Y509270D01*
Y527050D02*
Y534670D01*
Y552450D02*
Y560070D01*
Y577850D02*
Y585470D01*
Y603250D02*
Y610870D01*
Y628650D02*
Y636270D01*
Y654050D02*
Y661670D01*
Y679450D02*
Y687070D01*
Y704850D02*
Y712470D01*
Y730250D02*
Y737870D01*
Y755650D02*
Y763270D01*
Y781050D02*
Y788670D01*
Y806450D02*
Y814070D01*
X730250Y1186180D02*
Y1193800D01*
X890346Y857250D02*
Y864870D01*
Y831850D02*
Y839470D01*
D12*
X733298Y1170973D02*
Y1180117D01*
Y1170973D02*
X747522D01*
Y1180117D01*
X733298D02*
X747522D01*
X842772Y945388D02*
Y959612D01*
X833628Y945388D02*
X842772D01*
X833628D02*
Y959612D01*
X842772D01*
X820928D02*
X830072D01*
X820928Y945388D02*
Y959612D01*
Y945388D02*
X830072D01*
Y959612D01*
X817372Y945388D02*
Y959612D01*
X808228Y945388D02*
X817372D01*
X808228D02*
Y959612D01*
X817372D01*
X795528D02*
X804672D01*
X795528Y945388D02*
Y959612D01*
Y945388D02*
X804672D01*
Y959612D01*
X791972Y945388D02*
Y959612D01*
X782828Y945388D02*
X791972D01*
X782828D02*
Y959612D01*
X791972D01*
X770128D02*
X779272D01*
X770128Y945388D02*
Y959612D01*
Y945388D02*
X779272D01*
Y959612D01*
X766572Y945388D02*
Y959612D01*
X757428Y945388D02*
X766572D01*
X757428D02*
Y959612D01*
X766572D01*
X772912Y1034288D02*
Y1043432D01*
X758688D02*
X772912D01*
X758688Y1034288D02*
Y1043432D01*
Y1034288D02*
X772912D01*
X1153470Y1041908D02*
Y1051052D01*
X1139246D02*
X1153470D01*
X1139246Y1041908D02*
Y1051052D01*
Y1041908D02*
X1153470D01*
X1218250Y945937D02*
Y960161D01*
X1209106Y945937D02*
X1218250D01*
X1209106D02*
Y960161D01*
X1218250D01*
X1196086D02*
X1205230D01*
X1196086Y945937D02*
Y960161D01*
Y945937D02*
X1205230D01*
Y960161D01*
X1192342Y945937D02*
Y960161D01*
X1183198Y945937D02*
X1192342D01*
X1183198D02*
Y960161D01*
X1192342D01*
X1170686D02*
X1179830D01*
X1170686Y945937D02*
Y960161D01*
Y945937D02*
X1179830D01*
Y960161D01*
X1166942Y945937D02*
Y960161D01*
X1157798Y945937D02*
X1166942D01*
X1157798D02*
Y960161D01*
X1166942D01*
X1145286D02*
X1154430D01*
X1145286Y945937D02*
Y960161D01*
Y945937D02*
X1154430D01*
Y960161D01*
X1141542Y945937D02*
Y960161D01*
X1132398Y945937D02*
X1141542D01*
X1132398D02*
Y960161D01*
X1141542D01*
X1221580Y391358D02*
Y405582D01*
X1230724D01*
Y391358D02*
Y405582D01*
X1221580Y391358D02*
X1230724D01*
X1208880D02*
X1218024D01*
Y405582D01*
X1208880D02*
X1218024D01*
X1208880Y391358D02*
Y405582D01*
X1196180Y391358D02*
Y405582D01*
X1205324D01*
Y391358D02*
Y405582D01*
X1196180Y391358D02*
X1205324D01*
X1183480D02*
X1192624D01*
Y405582D01*
X1183480D02*
X1192624D01*
X1183480Y391358D02*
Y405582D01*
X1170780Y391358D02*
Y405582D01*
X1179924D01*
Y391358D02*
Y405582D01*
X1170780Y391358D02*
X1179924D01*
X1158080D02*
X1167224D01*
Y405582D01*
X1158080D02*
X1167224D01*
X1158080Y391358D02*
Y405582D01*
X1145380Y391358D02*
Y405582D01*
X1154524D01*
Y391358D02*
Y405582D01*
X1145380Y391358D02*
X1154524D01*
X1209548Y301498D02*
Y310642D01*
Y301498D02*
X1223772D01*
Y310642D01*
X1209548D02*
X1223772D01*
X846328Y394208D02*
Y408432D01*
X855472D01*
Y394208D02*
Y408432D01*
X846328Y394208D02*
X855472D01*
X833628Y394426D02*
X842772D01*
Y408650D01*
X833628D02*
X842772D01*
X833628Y394426D02*
Y408650D01*
X820928Y394426D02*
Y408650D01*
X830072D01*
Y394426D02*
Y408650D01*
X820928Y394426D02*
X830072D01*
X808228D02*
X817372D01*
Y408650D01*
X808228D02*
X817372D01*
X808228Y394426D02*
Y408650D01*
X795528Y394426D02*
Y408650D01*
X804672D01*
Y394426D02*
Y408650D01*
X795528Y394426D02*
X804672D01*
X782828Y394426D02*
X791972D01*
Y408650D01*
X782828D02*
X791972D01*
X782828Y394426D02*
Y408650D01*
X770128Y394426D02*
Y408650D01*
X779272D01*
Y394426D02*
Y408650D01*
X770128Y394426D02*
X779272D01*
X833628Y314452D02*
X842772D01*
X833628Y300228D02*
Y314452D01*
Y300228D02*
X842772D01*
Y314452D01*
D13*
X1046480Y1033428D02*
Y1028430D01*
X1047480Y1027430D01*
X1049479D01*
X1050479Y1028430D01*
Y1033428D01*
X1056477D02*
X1052478D01*
Y1030429D01*
X1054477Y1031429D01*
X1055477D01*
X1056477Y1030429D01*
Y1028430D01*
X1055477Y1027430D01*
X1053478D01*
X1052478Y1028430D01*
X1235710Y365408D02*
Y360410D01*
X1236710Y359410D01*
X1238709D01*
X1239709Y360410D01*
Y365408D01*
X1244707Y359410D02*
Y365408D01*
X1241708Y362409D01*
X1245707D01*
X1116330Y1008028D02*
Y1003030D01*
X1117330Y1002030D01*
X1119329D01*
X1120329Y1003030D01*
Y1008028D01*
X1122328Y1007028D02*
X1123328Y1008028D01*
X1125327D01*
X1126327Y1007028D01*
Y1006029D01*
X1125327Y1005029D01*
X1124327D01*
X1125327D01*
X1126327Y1004029D01*
Y1003030D01*
X1125327Y1002030D01*
X1123328D01*
X1122328Y1003030D01*
X861060Y365408D02*
Y360410D01*
X862060Y359410D01*
X864059D01*
X865059Y360410D01*
Y365408D01*
X871057Y359410D02*
X867058D01*
X871057Y363409D01*
Y364408D01*
X870057Y365408D01*
X868058D01*
X867058Y364408D01*
X742950Y1009298D02*
Y1004300D01*
X743950Y1003300D01*
X745949D01*
X746949Y1004300D01*
Y1009298D01*
X748948Y1003300D02*
X750947D01*
X749948D01*
Y1009298D01*
X748948Y1008298D01*
X733298Y1160780D02*
Y1166778D01*
X736297D01*
X737297Y1165778D01*
Y1163779D01*
X736297Y1162779D01*
X733298D01*
X735297D02*
X737297Y1160780D01*
X739296Y1165778D02*
X740296Y1166778D01*
X742295D01*
X743295Y1165778D01*
Y1164779D01*
X742295Y1163779D01*
X741295D01*
X742295D01*
X743295Y1162779D01*
Y1161780D01*
X742295Y1160780D01*
X740296D01*
X739296Y1161780D01*
X745294Y1165778D02*
X746294Y1166778D01*
X748293D01*
X749293Y1165778D01*
Y1164779D01*
X748293Y1163779D01*
X747293D01*
X748293D01*
X749293Y1162779D01*
Y1161780D01*
X748293Y1160780D01*
X746294D01*
X745294Y1161780D01*
X1153160Y411480D02*
X1147162D01*
Y414479D01*
X1148162Y415479D01*
X1150161D01*
X1151161Y414479D01*
Y411480D01*
Y413479D02*
X1153160Y415479D01*
X1148162Y417478D02*
X1147162Y418478D01*
Y420477D01*
X1148162Y421477D01*
X1149161D01*
X1150161Y420477D01*
Y419477D01*
Y420477D01*
X1151161Y421477D01*
X1152160D01*
X1153160Y420477D01*
Y418478D01*
X1152160Y417478D01*
X1153160Y427475D02*
Y423476D01*
X1149161Y427475D01*
X1148162D01*
X1147162Y426475D01*
Y424476D01*
X1148162Y423476D01*
X1165860Y411480D02*
X1159862D01*
Y414479D01*
X1160862Y415479D01*
X1162861D01*
X1163861Y414479D01*
Y411480D01*
Y413479D02*
X1165860Y415479D01*
X1160862Y417478D02*
X1159862Y418478D01*
Y420477D01*
X1160862Y421477D01*
X1161861D01*
X1162861Y420477D01*
Y419477D01*
Y420477D01*
X1163861Y421477D01*
X1164860D01*
X1165860Y420477D01*
Y418478D01*
X1164860Y417478D01*
X1165860Y423476D02*
Y425476D01*
Y424476D01*
X1159862D01*
X1160862Y423476D01*
X1178560Y411480D02*
X1172562D01*
Y414479D01*
X1173562Y415479D01*
X1175561D01*
X1176561Y414479D01*
Y411480D01*
Y413479D02*
X1178560Y415479D01*
X1173562Y417478D02*
X1172562Y418478D01*
Y420477D01*
X1173562Y421477D01*
X1174561D01*
X1175561Y420477D01*
Y419477D01*
Y420477D01*
X1176561Y421477D01*
X1177560D01*
X1178560Y420477D01*
Y418478D01*
X1177560Y417478D01*
X1173562Y423476D02*
X1172562Y424476D01*
Y426475D01*
X1173562Y427475D01*
X1177560D01*
X1178560Y426475D01*
Y424476D01*
X1177560Y423476D01*
X1173562D01*
X1191260Y411480D02*
X1185262D01*
Y414479D01*
X1186262Y415479D01*
X1188261D01*
X1189261Y414479D01*
Y411480D01*
Y413479D02*
X1191260Y415479D01*
Y421477D02*
Y417478D01*
X1187261Y421477D01*
X1186262D01*
X1185262Y420477D01*
Y418478D01*
X1186262Y417478D01*
X1190260Y423476D02*
X1191260Y424476D01*
Y426475D01*
X1190260Y427475D01*
X1186262D01*
X1185262Y426475D01*
Y424476D01*
X1186262Y423476D01*
X1187261D01*
X1188261Y424476D01*
Y427475D01*
X1203960Y411480D02*
X1197962D01*
Y414479D01*
X1198962Y415479D01*
X1200961D01*
X1201961Y414479D01*
Y411480D01*
Y413479D02*
X1203960Y415479D01*
Y421477D02*
Y417478D01*
X1199961Y421477D01*
X1198962D01*
X1197962Y420477D01*
Y418478D01*
X1198962Y417478D01*
Y423476D02*
X1197962Y424476D01*
Y426475D01*
X1198962Y427475D01*
X1199961D01*
X1200961Y426475D01*
X1201961Y427475D01*
X1202960D01*
X1203960Y426475D01*
Y424476D01*
X1202960Y423476D01*
X1201961D01*
X1200961Y424476D01*
X1199961Y423476D01*
X1198962D01*
X1200961Y424476D02*
Y426475D01*
X1216660Y411480D02*
X1210662D01*
Y414479D01*
X1211662Y415479D01*
X1213661D01*
X1214661Y414479D01*
Y411480D01*
Y413479D02*
X1216660Y415479D01*
Y421477D02*
Y417478D01*
X1212661Y421477D01*
X1211662D01*
X1210662Y420477D01*
Y418478D01*
X1211662Y417478D01*
X1210662Y423476D02*
Y427475D01*
X1211662D01*
X1215660Y423476D01*
X1216660D01*
X1229360Y411480D02*
X1223362D01*
Y414479D01*
X1224362Y415479D01*
X1226361D01*
X1227361Y414479D01*
Y411480D01*
Y413479D02*
X1229360Y415479D01*
Y421477D02*
Y417478D01*
X1225361Y421477D01*
X1224362D01*
X1223362Y420477D01*
Y418478D01*
X1224362Y417478D01*
X1223362Y427475D02*
X1224362Y425476D01*
X1226361Y423476D01*
X1228360D01*
X1229360Y424476D01*
Y426475D01*
X1228360Y427475D01*
X1227361D01*
X1226361Y426475D01*
Y423476D01*
X1226820Y304800D02*
Y310798D01*
X1229819D01*
X1230819Y309798D01*
Y307799D01*
X1229819Y306799D01*
X1226820D01*
X1228819D02*
X1230819Y304800D01*
X1236817D02*
X1232818D01*
X1236817Y308799D01*
Y309798D01*
X1235817Y310798D01*
X1233818D01*
X1232818Y309798D01*
X1242815Y310798D02*
X1238816D01*
Y307799D01*
X1240816Y308799D01*
X1241815D01*
X1242815Y307799D01*
Y305800D01*
X1241815Y304800D01*
X1239816D01*
X1238816Y305800D01*
X1216660Y927100D02*
X1210662D01*
Y930099D01*
X1211662Y931099D01*
X1213661D01*
X1214661Y930099D01*
Y927100D01*
Y929099D02*
X1216660Y931099D01*
Y937097D02*
Y933098D01*
X1212661Y937097D01*
X1211662D01*
X1210662Y936097D01*
Y934098D01*
X1211662Y933098D01*
X1216660Y942095D02*
X1210662D01*
X1213661Y939096D01*
Y943095D01*
X1203960Y927100D02*
X1197962D01*
Y930099D01*
X1198962Y931099D01*
X1200961D01*
X1201961Y930099D01*
Y927100D01*
Y929099D02*
X1203960Y931099D01*
Y937097D02*
Y933098D01*
X1199961Y937097D01*
X1198962D01*
X1197962Y936097D01*
Y934098D01*
X1198962Y933098D01*
Y939096D02*
X1197962Y940096D01*
Y942095D01*
X1198962Y943095D01*
X1199961D01*
X1200961Y942095D01*
Y941096D01*
Y942095D01*
X1201961Y943095D01*
X1202960D01*
X1203960Y942095D01*
Y940096D01*
X1202960Y939096D01*
X1191260Y927100D02*
X1185262D01*
Y930099D01*
X1186262Y931099D01*
X1188261D01*
X1189261Y930099D01*
Y927100D01*
Y929099D02*
X1191260Y931099D01*
Y937097D02*
Y933098D01*
X1187261Y937097D01*
X1186262D01*
X1185262Y936097D01*
Y934098D01*
X1186262Y933098D01*
X1191260Y943095D02*
Y939096D01*
X1187261Y943095D01*
X1186262D01*
X1185262Y942095D01*
Y940096D01*
X1186262Y939096D01*
X1178560Y927100D02*
X1172562D01*
Y930099D01*
X1173562Y931099D01*
X1175561D01*
X1176561Y930099D01*
Y927100D01*
Y929099D02*
X1178560Y931099D01*
Y937097D02*
Y933098D01*
X1174561Y937097D01*
X1173562D01*
X1172562Y936097D01*
Y934098D01*
X1173562Y933098D01*
X1178560Y939096D02*
Y941096D01*
Y940096D01*
X1172562D01*
X1173562Y939096D01*
X1165860Y927100D02*
X1159862D01*
Y930099D01*
X1160862Y931099D01*
X1162861D01*
X1163861Y930099D01*
Y927100D01*
Y929099D02*
X1165860Y931099D01*
Y937097D02*
Y933098D01*
X1161861Y937097D01*
X1160862D01*
X1159862Y936097D01*
Y934098D01*
X1160862Y933098D01*
Y939096D02*
X1159862Y940096D01*
Y942095D01*
X1160862Y943095D01*
X1164860D01*
X1165860Y942095D01*
Y940096D01*
X1164860Y939096D01*
X1160862D01*
X1153160Y927100D02*
X1147162D01*
Y930099D01*
X1148162Y931099D01*
X1150161D01*
X1151161Y930099D01*
Y927100D01*
Y929099D02*
X1153160Y931099D01*
Y933098D02*
Y935097D01*
Y934098D01*
X1147162D01*
X1148162Y933098D01*
X1152160Y938096D02*
X1153160Y939096D01*
Y941096D01*
X1152160Y942095D01*
X1148162D01*
X1147162Y941096D01*
Y939096D01*
X1148162Y938096D01*
X1149161D01*
X1150161Y939096D01*
Y942095D01*
X1140206Y927100D02*
X1134208D01*
Y930099D01*
X1135208Y931099D01*
X1137207D01*
X1138207Y930099D01*
Y927100D01*
Y929099D02*
X1140206Y931099D01*
Y933098D02*
Y935097D01*
Y934098D01*
X1134208D01*
X1135208Y933098D01*
Y938096D02*
X1134208Y939096D01*
Y941096D01*
X1135208Y942095D01*
X1136207D01*
X1137207Y941096D01*
X1138207Y942095D01*
X1139206D01*
X1140206Y941096D01*
Y939096D01*
X1139206Y938096D01*
X1138207D01*
X1137207Y939096D01*
X1136207Y938096D01*
X1135208D01*
X1137207Y939096D02*
Y941096D01*
X1120140Y1045210D02*
Y1051208D01*
X1123139D01*
X1124139Y1050208D01*
Y1048209D01*
X1123139Y1047209D01*
X1120140D01*
X1122139D02*
X1124139Y1045210D01*
X1126138D02*
X1128137D01*
X1127138D01*
Y1051208D01*
X1126138Y1050208D01*
X1131136Y1051208D02*
X1135135D01*
Y1050208D01*
X1131136Y1046210D01*
Y1045210D01*
X778510Y419100D02*
X772512D01*
Y422099D01*
X773512Y423099D01*
X775511D01*
X776511Y422099D01*
Y419100D01*
Y421099D02*
X778510Y423099D01*
Y425098D02*
Y427097D01*
Y426098D01*
X772512D01*
X773512Y425098D01*
X772512Y434095D02*
X773512Y432096D01*
X775511Y430096D01*
X777510D01*
X778510Y431096D01*
Y433096D01*
X777510Y434095D01*
X776511D01*
X775511Y433096D01*
Y430096D01*
X791210Y419100D02*
X785212D01*
Y422099D01*
X786212Y423099D01*
X788211D01*
X789211Y422099D01*
Y419100D01*
Y421099D02*
X791210Y423099D01*
Y425098D02*
Y427097D01*
Y426098D01*
X785212D01*
X786212Y425098D01*
X785212Y434095D02*
Y430096D01*
X788211D01*
X787211Y432096D01*
Y433096D01*
X788211Y434095D01*
X790210D01*
X791210Y433096D01*
Y431096D01*
X790210Y430096D01*
X803910Y419100D02*
X797912D01*
Y422099D01*
X798912Y423099D01*
X800911D01*
X801911Y422099D01*
Y419100D01*
Y421099D02*
X803910Y423099D01*
Y425098D02*
Y427097D01*
Y426098D01*
X797912D01*
X798912Y425098D01*
X803910Y433096D02*
X797912D01*
X800911Y430096D01*
Y434095D01*
X816610Y419100D02*
X810612D01*
Y422099D01*
X811612Y423099D01*
X813611D01*
X814611Y422099D01*
Y419100D01*
Y421099D02*
X816610Y423099D01*
Y425098D02*
Y427097D01*
Y426098D01*
X810612D01*
X811612Y425098D01*
Y430096D02*
X810612Y431096D01*
Y433096D01*
X811612Y434095D01*
X812611D01*
X813611Y433096D01*
Y432096D01*
Y433096D01*
X814611Y434095D01*
X815610D01*
X816610Y433096D01*
Y431096D01*
X815610Y430096D01*
X828040Y419100D02*
X822042D01*
Y422099D01*
X823042Y423099D01*
X825041D01*
X826041Y422099D01*
Y419100D01*
Y421099D02*
X828040Y423099D01*
Y425098D02*
Y427097D01*
Y426098D01*
X822042D01*
X823042Y425098D01*
X828040Y434095D02*
Y430096D01*
X824041Y434095D01*
X823042D01*
X822042Y433096D01*
Y431096D01*
X823042Y430096D01*
X840740Y419100D02*
X834742D01*
Y422099D01*
X835742Y423099D01*
X837741D01*
X838741Y422099D01*
Y419100D01*
Y421099D02*
X840740Y423099D01*
Y425098D02*
Y427097D01*
Y426098D01*
X834742D01*
X835742Y425098D01*
X840740Y430096D02*
Y432096D01*
Y431096D01*
X834742D01*
X835742Y430096D01*
X853440Y419100D02*
X847442D01*
Y422099D01*
X848442Y423099D01*
X850441D01*
X851441Y422099D01*
Y419100D01*
Y421099D02*
X853440Y423099D01*
Y425098D02*
Y427097D01*
Y426098D01*
X847442D01*
X848442Y425098D01*
Y430096D02*
X847442Y431096D01*
Y433096D01*
X848442Y434095D01*
X852440D01*
X853440Y433096D01*
Y431096D01*
X852440Y430096D01*
X848442D01*
X845820Y308610D02*
Y314608D01*
X848819D01*
X849819Y313608D01*
Y311609D01*
X848819Y310609D01*
X845820D01*
X847819D02*
X849819Y308610D01*
X851818Y309610D02*
X852818Y308610D01*
X854817D01*
X855817Y309610D01*
Y313608D01*
X854817Y314608D01*
X852818D01*
X851818Y313608D01*
Y312609D01*
X852818Y311609D01*
X855817D01*
X840740Y930910D02*
X834742D01*
Y933909D01*
X835742Y934909D01*
X837741D01*
X838741Y933909D01*
Y930910D01*
Y932909D02*
X840740Y934909D01*
X835742Y936908D02*
X834742Y937908D01*
Y939907D01*
X835742Y940907D01*
X836741D01*
X837741Y939907D01*
X838741Y940907D01*
X839740D01*
X840740Y939907D01*
Y937908D01*
X839740Y936908D01*
X838741D01*
X837741Y937908D01*
X836741Y936908D01*
X835742D01*
X837741Y937908D02*
Y939907D01*
X828040Y930910D02*
X822042D01*
Y933909D01*
X823042Y934909D01*
X825041D01*
X826041Y933909D01*
Y930910D01*
Y932909D02*
X828040Y934909D01*
X822042Y936908D02*
Y940907D01*
X823042D01*
X827040Y936908D01*
X828040D01*
X815340Y930910D02*
X809342D01*
Y933909D01*
X810342Y934909D01*
X812341D01*
X813341Y933909D01*
Y930910D01*
Y932909D02*
X815340Y934909D01*
X809342Y940907D02*
X810342Y938907D01*
X812341Y936908D01*
X814340D01*
X815340Y937908D01*
Y939907D01*
X814340Y940907D01*
X813341D01*
X812341Y939907D01*
Y936908D01*
X802640Y930910D02*
X796642D01*
Y933909D01*
X797642Y934909D01*
X799641D01*
X800641Y933909D01*
Y930910D01*
Y932909D02*
X802640Y934909D01*
X796642Y940907D02*
Y936908D01*
X799641D01*
X798641Y938907D01*
Y939907D01*
X799641Y940907D01*
X801640D01*
X802640Y939907D01*
Y937908D01*
X801640Y936908D01*
X789800Y930910D02*
X783802D01*
Y933909D01*
X784802Y934909D01*
X786801D01*
X787801Y933909D01*
Y930910D01*
Y932909D02*
X789800Y934909D01*
Y939907D02*
X783802D01*
X786801Y936908D01*
Y940907D01*
X777240Y930910D02*
X771242D01*
Y933909D01*
X772242Y934909D01*
X774241D01*
X775241Y933909D01*
Y930910D01*
Y932909D02*
X777240Y934909D01*
X772242Y936908D02*
X771242Y937908D01*
Y939907D01*
X772242Y940907D01*
X773241D01*
X774241Y939907D01*
Y938907D01*
Y939907D01*
X775241Y940907D01*
X776240D01*
X777240Y939907D01*
Y937908D01*
X776240Y936908D01*
X764540Y930910D02*
X758542D01*
Y933909D01*
X759542Y934909D01*
X761541D01*
X762541Y933909D01*
Y930910D01*
Y932909D02*
X764540Y934909D01*
Y940907D02*
Y936908D01*
X760541Y940907D01*
X759542D01*
X758542Y939907D01*
Y937908D01*
X759542Y936908D01*
X746760Y1035050D02*
Y1041048D01*
X749759D01*
X750759Y1040048D01*
Y1038049D01*
X749759Y1037049D01*
X746760D01*
X748759D02*
X750759Y1035050D01*
X752758D02*
X754757D01*
X753758D01*
Y1041048D01*
X752758Y1040048D01*
X764540Y1097280D02*
Y1103278D01*
X767539D01*
X768539Y1102278D01*
Y1100279D01*
X767539Y1099279D01*
X764540D01*
X770538Y1097280D02*
X772537D01*
X771538D01*
Y1103278D01*
X770538Y1102278D01*
X910779Y1121058D02*
X908779D01*
X909779D01*
Y1116060D01*
X908779Y1115060D01*
X907780D01*
X906780Y1116060D01*
X912778Y1115060D02*
X914777D01*
X913778D01*
Y1121058D01*
X912778Y1120058D01*
X732790Y1203608D02*
Y1197610D01*
X735789D01*
X736789Y1198610D01*
Y1202608D01*
X735789Y1203608D01*
X732790D01*
X738788Y1202608D02*
X739788Y1203608D01*
X741787D01*
X742787Y1202608D01*
Y1201609D01*
X741787Y1200609D01*
X740787D01*
X741787D01*
X742787Y1199609D01*
Y1198610D01*
X741787Y1197610D01*
X739788D01*
X738788Y1198610D01*
X744786Y1202608D02*
X745786Y1203608D01*
X747785D01*
X748785Y1202608D01*
Y1201609D01*
X747785Y1200609D01*
X746786D01*
X747785D01*
X748785Y1199609D01*
Y1198610D01*
X747785Y1197610D01*
X745786D01*
X744786Y1198610D01*
X1052322Y483518D02*
Y477520D01*
X1055321D01*
X1056321Y478520D01*
Y482518D01*
X1055321Y483518D01*
X1052322D01*
X1058320Y482518D02*
X1059320Y483518D01*
X1061319D01*
X1062319Y482518D01*
Y481519D01*
X1061319Y480519D01*
X1060319D01*
X1061319D01*
X1062319Y479519D01*
Y478520D01*
X1061319Y477520D01*
X1059320D01*
X1058320Y478520D01*
X1068317Y477520D02*
X1064318D01*
X1068317Y481519D01*
Y482518D01*
X1067317Y483518D01*
X1065318D01*
X1064318Y482518D01*
X1052322Y508918D02*
Y502920D01*
X1055321D01*
X1056321Y503920D01*
Y507918D01*
X1055321Y508918D01*
X1052322D01*
X1058320Y507918D02*
X1059320Y508918D01*
X1061319D01*
X1062319Y507918D01*
Y506919D01*
X1061319Y505919D01*
X1060319D01*
X1061319D01*
X1062319Y504919D01*
Y503920D01*
X1061319Y502920D01*
X1059320D01*
X1058320Y503920D01*
X1064318Y502920D02*
X1066318D01*
X1065318D01*
Y508918D01*
X1064318Y507918D01*
X1052322Y534318D02*
Y528320D01*
X1055321D01*
X1056321Y529320D01*
Y533318D01*
X1055321Y534318D01*
X1052322D01*
X1058320Y533318D02*
X1059320Y534318D01*
X1061319D01*
X1062319Y533318D01*
Y532319D01*
X1061319Y531319D01*
X1060319D01*
X1061319D01*
X1062319Y530319D01*
Y529320D01*
X1061319Y528320D01*
X1059320D01*
X1058320Y529320D01*
X1064318Y533318D02*
X1065318Y534318D01*
X1067317D01*
X1068317Y533318D01*
Y529320D01*
X1067317Y528320D01*
X1065318D01*
X1064318Y529320D01*
Y533318D01*
X1052322Y559718D02*
Y553720D01*
X1055321D01*
X1056321Y554720D01*
Y558718D01*
X1055321Y559718D01*
X1052322D01*
X1062319Y553720D02*
X1058320D01*
X1062319Y557719D01*
Y558718D01*
X1061319Y559718D01*
X1059320D01*
X1058320Y558718D01*
X1064318Y554720D02*
X1065318Y553720D01*
X1067317D01*
X1068317Y554720D01*
Y558718D01*
X1067317Y559718D01*
X1065318D01*
X1064318Y558718D01*
Y557719D01*
X1065318Y556719D01*
X1068317D01*
X1052322Y585118D02*
Y579120D01*
X1055321D01*
X1056321Y580120D01*
Y584118D01*
X1055321Y585118D01*
X1052322D01*
X1062319Y579120D02*
X1058320D01*
X1062319Y583119D01*
Y584118D01*
X1061319Y585118D01*
X1059320D01*
X1058320Y584118D01*
X1064318D02*
X1065318Y585118D01*
X1067317D01*
X1068317Y584118D01*
Y583119D01*
X1067317Y582119D01*
X1068317Y581119D01*
Y580120D01*
X1067317Y579120D01*
X1065318D01*
X1064318Y580120D01*
Y581119D01*
X1065318Y582119D01*
X1064318Y583119D01*
Y584118D01*
X1065318Y582119D02*
X1067317D01*
X1052322Y610518D02*
Y604520D01*
X1055321D01*
X1056321Y605520D01*
Y609518D01*
X1055321Y610518D01*
X1052322D01*
X1062319Y604520D02*
X1058320D01*
X1062319Y608519D01*
Y609518D01*
X1061319Y610518D01*
X1059320D01*
X1058320Y609518D01*
X1064318Y610518D02*
X1068317D01*
Y609518D01*
X1064318Y605520D01*
Y604520D01*
X1052322Y635918D02*
Y629920D01*
X1055321D01*
X1056321Y630920D01*
Y634918D01*
X1055321Y635918D01*
X1052322D01*
X1062319Y629920D02*
X1058320D01*
X1062319Y633919D01*
Y634918D01*
X1061319Y635918D01*
X1059320D01*
X1058320Y634918D01*
X1068317Y635918D02*
X1066318Y634918D01*
X1064318Y632919D01*
Y630920D01*
X1065318Y629920D01*
X1067317D01*
X1068317Y630920D01*
Y631919D01*
X1067317Y632919D01*
X1064318D01*
X1052322Y661318D02*
Y655320D01*
X1055321D01*
X1056321Y656320D01*
Y660318D01*
X1055321Y661318D01*
X1052322D01*
X1062319Y655320D02*
X1058320D01*
X1062319Y659319D01*
Y660318D01*
X1061319Y661318D01*
X1059320D01*
X1058320Y660318D01*
X1068317Y661318D02*
X1064318D01*
Y658319D01*
X1066318Y659319D01*
X1067317D01*
X1068317Y658319D01*
Y656320D01*
X1067317Y655320D01*
X1065318D01*
X1064318Y656320D01*
X1052322Y686718D02*
Y680720D01*
X1055321D01*
X1056321Y681720D01*
Y685718D01*
X1055321Y686718D01*
X1052322D01*
X1062319Y680720D02*
X1058320D01*
X1062319Y684719D01*
Y685718D01*
X1061319Y686718D01*
X1059320D01*
X1058320Y685718D01*
X1067317Y680720D02*
Y686718D01*
X1064318Y683719D01*
X1068317D01*
X1052322Y712118D02*
Y706120D01*
X1055321D01*
X1056321Y707120D01*
Y711118D01*
X1055321Y712118D01*
X1052322D01*
X1062319Y706120D02*
X1058320D01*
X1062319Y710119D01*
Y711118D01*
X1061319Y712118D01*
X1059320D01*
X1058320Y711118D01*
X1064318D02*
X1065318Y712118D01*
X1067317D01*
X1068317Y711118D01*
Y710119D01*
X1067317Y709119D01*
X1066318D01*
X1067317D01*
X1068317Y708119D01*
Y707120D01*
X1067317Y706120D01*
X1065318D01*
X1064318Y707120D01*
X1052322Y736248D02*
Y730250D01*
X1055321D01*
X1056321Y731250D01*
Y735248D01*
X1055321Y736248D01*
X1052322D01*
X1062319Y730250D02*
X1058320D01*
X1062319Y734249D01*
Y735248D01*
X1061319Y736248D01*
X1059320D01*
X1058320Y735248D01*
X1068317Y730250D02*
X1064318D01*
X1068317Y734249D01*
Y735248D01*
X1067317Y736248D01*
X1065318D01*
X1064318Y735248D01*
X1052322Y762918D02*
Y756920D01*
X1055321D01*
X1056321Y757920D01*
Y761918D01*
X1055321Y762918D01*
X1052322D01*
X1062319Y756920D02*
X1058320D01*
X1062319Y760919D01*
Y761918D01*
X1061319Y762918D01*
X1059320D01*
X1058320Y761918D01*
X1064318Y756920D02*
X1066318D01*
X1065318D01*
Y762918D01*
X1064318Y761918D01*
X1052322Y788318D02*
Y782320D01*
X1055321D01*
X1056321Y783320D01*
Y787318D01*
X1055321Y788318D01*
X1052322D01*
X1062319Y782320D02*
X1058320D01*
X1062319Y786319D01*
Y787318D01*
X1061319Y788318D01*
X1059320D01*
X1058320Y787318D01*
X1064318D02*
X1065318Y788318D01*
X1067317D01*
X1068317Y787318D01*
Y783320D01*
X1067317Y782320D01*
X1065318D01*
X1064318Y783320D01*
Y787318D01*
X1052322Y813718D02*
Y807720D01*
X1055321D01*
X1056321Y808720D01*
Y812718D01*
X1055321Y813718D01*
X1052322D01*
X1058320Y807720D02*
X1060319D01*
X1059320D01*
Y813718D01*
X1058320Y812718D01*
X1063318Y808720D02*
X1064318Y807720D01*
X1066318D01*
X1067317Y808720D01*
Y812718D01*
X1066318Y813718D01*
X1064318D01*
X1063318Y812718D01*
Y811719D01*
X1064318Y810719D01*
X1067317D01*
X1052322Y839118D02*
Y833120D01*
X1055321D01*
X1056321Y834120D01*
Y838118D01*
X1055321Y839118D01*
X1052322D01*
X1058320Y833120D02*
X1060319D01*
X1059320D01*
Y839118D01*
X1058320Y838118D01*
X1063318D02*
X1064318Y839118D01*
X1066318D01*
X1067317Y838118D01*
Y837119D01*
X1066318Y836119D01*
X1067317Y835119D01*
Y834120D01*
X1066318Y833120D01*
X1064318D01*
X1063318Y834120D01*
Y835119D01*
X1064318Y836119D01*
X1063318Y837119D01*
Y838118D01*
X1064318Y836119D02*
X1066318D01*
X1052322Y864518D02*
Y858520D01*
X1055321D01*
X1056321Y859520D01*
Y863518D01*
X1055321Y864518D01*
X1052322D01*
X1058320Y858520D02*
X1060319D01*
X1059320D01*
Y864518D01*
X1058320Y863518D01*
X1063318Y864518D02*
X1067317D01*
Y863518D01*
X1063318Y859520D01*
Y858520D01*
X913130Y483518D02*
Y477520D01*
X916129D01*
X917129Y478520D01*
Y482518D01*
X916129Y483518D01*
X913130D01*
X919128Y477520D02*
X921127D01*
X920128D01*
Y483518D01*
X919128Y482518D01*
X928125Y483518D02*
X926126Y482518D01*
X924126Y480519D01*
Y478520D01*
X925126Y477520D01*
X927125D01*
X928125Y478520D01*
Y479519D01*
X927125Y480519D01*
X924126D01*
X913130Y508918D02*
Y502920D01*
X916129D01*
X917129Y503920D01*
Y507918D01*
X916129Y508918D01*
X913130D01*
X919128Y502920D02*
X921127D01*
X920128D01*
Y508918D01*
X919128Y507918D01*
X928125Y508918D02*
X924126D01*
Y505919D01*
X926126Y506919D01*
X927125D01*
X928125Y505919D01*
Y503920D01*
X927125Y502920D01*
X925126D01*
X924126Y503920D01*
X913130Y534318D02*
Y528320D01*
X916129D01*
X917129Y529320D01*
Y533318D01*
X916129Y534318D01*
X913130D01*
X919128Y528320D02*
X921127D01*
X920128D01*
Y534318D01*
X919128Y533318D01*
X927125Y528320D02*
Y534318D01*
X924126Y531319D01*
X928125D01*
X913130Y559718D02*
Y553720D01*
X916129D01*
X917129Y554720D01*
Y558718D01*
X916129Y559718D01*
X913130D01*
X919128Y553720D02*
X921127D01*
X920128D01*
Y559718D01*
X919128Y558718D01*
X924126D02*
X925126Y559718D01*
X927125D01*
X928125Y558718D01*
Y557719D01*
X927125Y556719D01*
X926126D01*
X927125D01*
X928125Y555719D01*
Y554720D01*
X927125Y553720D01*
X925126D01*
X924126Y554720D01*
X913130Y585118D02*
Y579120D01*
X916129D01*
X917129Y580120D01*
Y584118D01*
X916129Y585118D01*
X913130D01*
X919128Y579120D02*
X921127D01*
X920128D01*
Y585118D01*
X919128Y584118D01*
X928125Y579120D02*
X924126D01*
X928125Y583119D01*
Y584118D01*
X927125Y585118D01*
X925126D01*
X924126Y584118D01*
X913130Y610518D02*
Y604520D01*
X916129D01*
X917129Y605520D01*
Y609518D01*
X916129Y610518D01*
X913130D01*
X919128Y604520D02*
X921127D01*
X920128D01*
Y610518D01*
X919128Y609518D01*
X924126Y604520D02*
X926126D01*
X925126D01*
Y610518D01*
X924126Y609518D01*
X913130Y635918D02*
Y629920D01*
X916129D01*
X917129Y630920D01*
Y634918D01*
X916129Y635918D01*
X913130D01*
X919128Y629920D02*
X921127D01*
X920128D01*
Y635918D01*
X919128Y634918D01*
X924126D02*
X925126Y635918D01*
X927125D01*
X928125Y634918D01*
Y630920D01*
X927125Y629920D01*
X925126D01*
X924126Y630920D01*
Y634918D01*
X913130Y661318D02*
Y655320D01*
X916129D01*
X917129Y656320D01*
Y660318D01*
X916129Y661318D01*
X913130D01*
X919128Y656320D02*
X920128Y655320D01*
X922127D01*
X923127Y656320D01*
Y660318D01*
X922127Y661318D01*
X920128D01*
X919128Y660318D01*
Y659319D01*
X920128Y658319D01*
X923127D01*
X913130Y686718D02*
Y680720D01*
X916129D01*
X917129Y681720D01*
Y685718D01*
X916129Y686718D01*
X913130D01*
X919128Y685718D02*
X920128Y686718D01*
X922127D01*
X923127Y685718D01*
Y684719D01*
X922127Y683719D01*
X923127Y682719D01*
Y681720D01*
X922127Y680720D01*
X920128D01*
X919128Y681720D01*
Y682719D01*
X920128Y683719D01*
X919128Y684719D01*
Y685718D01*
X920128Y683719D02*
X922127D01*
X913130Y712118D02*
Y706120D01*
X916129D01*
X917129Y707120D01*
Y711118D01*
X916129Y712118D01*
X913130D01*
X919128D02*
X923127D01*
Y711118D01*
X919128Y707120D01*
Y706120D01*
X913130Y737518D02*
Y731520D01*
X916129D01*
X917129Y732520D01*
Y736518D01*
X916129Y737518D01*
X913130D01*
X923127D02*
X921127Y736518D01*
X919128Y734519D01*
Y732520D01*
X920128Y731520D01*
X922127D01*
X923127Y732520D01*
Y733519D01*
X922127Y734519D01*
X919128D01*
X913130Y762918D02*
Y756920D01*
X916129D01*
X917129Y757920D01*
Y761918D01*
X916129Y762918D01*
X913130D01*
X923127D02*
X919128D01*
Y759919D01*
X921127Y760919D01*
X922127D01*
X923127Y759919D01*
Y757920D01*
X922127Y756920D01*
X920128D01*
X919128Y757920D01*
X913130Y788318D02*
Y782320D01*
X916129D01*
X917129Y783320D01*
Y787318D01*
X916129Y788318D01*
X913130D01*
X922127Y782320D02*
Y788318D01*
X919128Y785319D01*
X923127D01*
X913130Y813718D02*
Y807720D01*
X916129D01*
X917129Y808720D01*
Y812718D01*
X916129Y813718D01*
X913130D01*
X919128Y812718D02*
X920128Y813718D01*
X922127D01*
X923127Y812718D01*
Y811719D01*
X922127Y810719D01*
X921127D01*
X922127D01*
X923127Y809719D01*
Y808720D01*
X922127Y807720D01*
X920128D01*
X919128Y808720D01*
X913130Y839118D02*
Y833120D01*
X916129D01*
X917129Y834120D01*
Y838118D01*
X916129Y839118D01*
X913130D01*
X923127Y833120D02*
X919128D01*
X923127Y837119D01*
Y838118D01*
X922127Y839118D01*
X920128D01*
X919128Y838118D01*
X913130Y864518D02*
Y858520D01*
X916129D01*
X917129Y859520D01*
Y863518D01*
X916129Y864518D01*
X913130D01*
X919128Y858520D02*
X921127D01*
X920128D01*
Y864518D01*
X919128Y863518D01*
X973517Y939210D02*
X972517Y940210D01*
X970518D01*
X969518Y939210D01*
Y935212D01*
X970518Y934212D01*
X972517D01*
X973517Y935212D01*
X979515Y940210D02*
X977515Y939210D01*
X975516Y937211D01*
Y935212D01*
X976516Y934212D01*
X978515D01*
X979515Y935212D01*
Y936211D01*
X978515Y937211D01*
X975516D01*
X922463Y1052240D02*
X921463Y1053240D01*
X919464D01*
X918464Y1052240D01*
Y1048242D01*
X919464Y1047242D01*
X921463D01*
X922463Y1048242D01*
X928461Y1053240D02*
X924462D01*
Y1050241D01*
X926461Y1051241D01*
X927461D01*
X928461Y1050241D01*
Y1048242D01*
X927461Y1047242D01*
X925462D01*
X924462Y1048242D01*
X1211769Y1042588D02*
X1210769Y1043588D01*
X1208770D01*
X1207770Y1042588D01*
Y1038590D01*
X1208770Y1037590D01*
X1210769D01*
X1211769Y1038590D01*
X1216767Y1037590D02*
Y1043588D01*
X1213768Y1040589D01*
X1217767D01*
X1143189Y298368D02*
X1142189Y299368D01*
X1140190D01*
X1139190Y298368D01*
Y294370D01*
X1140190Y293370D01*
X1142189D01*
X1143189Y294370D01*
X1145188Y298368D02*
X1146188Y299368D01*
X1148187D01*
X1149187Y298368D01*
Y297369D01*
X1148187Y296369D01*
X1147187D01*
X1148187D01*
X1149187Y295369D01*
Y294370D01*
X1148187Y293370D01*
X1146188D01*
X1145188Y294370D01*
X755839Y297098D02*
X754839Y298098D01*
X752840D01*
X751840Y297098D01*
Y293100D01*
X752840Y292100D01*
X754839D01*
X755839Y293100D01*
X761837Y292100D02*
X757838D01*
X761837Y296099D01*
Y297098D01*
X760837Y298098D01*
X758838D01*
X757838Y297098D01*
X835849Y1056558D02*
X834849Y1057558D01*
X832850D01*
X831850Y1056558D01*
Y1052560D01*
X832850Y1051560D01*
X834849D01*
X835849Y1052560D01*
X837848Y1051560D02*
X839847D01*
X838848D01*
Y1057558D01*
X837848Y1056558D01*
M02*
