G04*
G04 #@! TF.GenerationSoftware,Altium Limited,Altium Designer,19.0.14 (431)*
G04*
G04 Layer_Color=8388736*
%FSLAX44Y44*%
%MOMM*%
G71*
G01*
G75*
%ADD21R,7.3000X5.7000*%
%ADD22R,2.8000X1.1500*%
%ADD23R,0.5500X1.1400*%
%ADD24R,0.6400X0.7400*%
%ADD25R,0.3400X0.5400*%
%ADD26R,0.5400X0.3400*%
%ADD27R,1.1000X1.5000*%
%ADD28C,3.8000*%
%ADD29R,3.9000X1.5000*%
%ADD30R,3.4000X1.5000*%
%ADD31R,1.5000X3.4000*%
%ADD32C,1.7000*%
G04:AMPARAMS|DCode=33|XSize=14.2mm|YSize=1.4mm|CornerRadius=0.7mm|HoleSize=0mm|Usage=FLASHONLY|Rotation=0.000|XOffset=0mm|YOffset=0mm|HoleType=Round|Shape=RoundedRectangle|*
%AMROUNDEDRECTD33*
21,1,14.2000,0.0000,0,0,0.0*
21,1,12.8000,1.4000,0,0,0.0*
1,1,1.4000,6.4000,0.0000*
1,1,1.4000,-6.4000,0.0000*
1,1,1.4000,-6.4000,0.0000*
1,1,1.4000,6.4000,0.0000*
%
%ADD33ROUNDEDRECTD33*%
D21*
X1000710Y1000760D02*
D03*
D22*
X940210Y977960D02*
D03*
Y1023560D02*
D03*
D23*
X762000Y971550D02*
D03*
X774700D02*
D03*
X787400D02*
D03*
X800100D02*
D03*
X812800D02*
D03*
X825500D02*
D03*
X838200D02*
D03*
X850900D02*
D03*
X762000Y1022550D02*
D03*
X774700D02*
D03*
X787400D02*
D03*
X800100D02*
D03*
X812800D02*
D03*
X825500D02*
D03*
X838200D02*
D03*
X850900D02*
D03*
X762000Y328476D02*
D03*
X774700D02*
D03*
X787400D02*
D03*
X800100D02*
D03*
X812800D02*
D03*
X825500D02*
D03*
X838200D02*
D03*
X850900D02*
D03*
X762000Y379476D02*
D03*
X774700D02*
D03*
X787400D02*
D03*
X800100D02*
D03*
X812800D02*
D03*
X825500D02*
D03*
X838200D02*
D03*
X850900D02*
D03*
X1137158Y971350D02*
D03*
X1149858D02*
D03*
X1162558D02*
D03*
X1175258D02*
D03*
X1187958D02*
D03*
X1200658D02*
D03*
X1213358D02*
D03*
X1226058D02*
D03*
X1137158Y1022350D02*
D03*
X1149858D02*
D03*
X1162558D02*
D03*
X1175258D02*
D03*
X1187958D02*
D03*
X1200658D02*
D03*
X1213358D02*
D03*
X1226058D02*
D03*
X1137158Y328476D02*
D03*
X1149858D02*
D03*
X1162558D02*
D03*
X1175258D02*
D03*
X1187958D02*
D03*
X1200658D02*
D03*
X1213358D02*
D03*
X1226058D02*
D03*
X1137158Y379476D02*
D03*
X1149858D02*
D03*
X1162558D02*
D03*
X1175258D02*
D03*
X1187958D02*
D03*
X1200658D02*
D03*
X1213358D02*
D03*
X1226058D02*
D03*
D24*
X1085596Y480060D02*
D03*
X1076096D02*
D03*
Y505460D02*
D03*
X1085596D02*
D03*
Y530860D02*
D03*
X1076096D02*
D03*
Y556260D02*
D03*
X1085596D02*
D03*
Y581660D02*
D03*
X1076096D02*
D03*
Y607060D02*
D03*
X1085596D02*
D03*
Y632460D02*
D03*
X1076096D02*
D03*
Y657860D02*
D03*
X1085596D02*
D03*
Y683260D02*
D03*
X1076096D02*
D03*
Y708660D02*
D03*
X1085596D02*
D03*
Y734060D02*
D03*
X1076096D02*
D03*
Y759460D02*
D03*
X1085596D02*
D03*
Y784860D02*
D03*
X1076096D02*
D03*
Y810260D02*
D03*
X1085596D02*
D03*
Y835660D02*
D03*
X1076096D02*
D03*
Y861060D02*
D03*
X1085596D02*
D03*
X895756Y480060D02*
D03*
X905256D02*
D03*
Y505460D02*
D03*
X895756D02*
D03*
Y530860D02*
D03*
X905256D02*
D03*
Y556260D02*
D03*
X895756D02*
D03*
Y581660D02*
D03*
X905256D02*
D03*
Y607060D02*
D03*
X895756D02*
D03*
Y632460D02*
D03*
X905256D02*
D03*
Y657860D02*
D03*
X895756D02*
D03*
Y683260D02*
D03*
X905256D02*
D03*
Y708660D02*
D03*
X895756D02*
D03*
Y734060D02*
D03*
X905256D02*
D03*
Y759460D02*
D03*
X895756D02*
D03*
Y784860D02*
D03*
X905256D02*
D03*
Y810260D02*
D03*
X895756D02*
D03*
X745160Y1189990D02*
D03*
X735660D02*
D03*
X895756Y861060D02*
D03*
X905256D02*
D03*
Y835660D02*
D03*
X895756D02*
D03*
D25*
X743910Y1175545D02*
D03*
X736910D02*
D03*
X762300Y1038860D02*
D03*
X769300D02*
D03*
X1142858Y1046480D02*
D03*
X1149858D02*
D03*
X1220160Y306070D02*
D03*
X1213160D02*
D03*
D26*
X838200Y956000D02*
D03*
Y949000D02*
D03*
X825500D02*
D03*
Y956000D02*
D03*
X812800D02*
D03*
Y949000D02*
D03*
X800100D02*
D03*
Y956000D02*
D03*
X787400D02*
D03*
Y949000D02*
D03*
X774700D02*
D03*
Y956000D02*
D03*
X762000D02*
D03*
Y949000D02*
D03*
X1213678Y956549D02*
D03*
Y949549D02*
D03*
X1200658D02*
D03*
Y956549D02*
D03*
X1187770D02*
D03*
Y949549D02*
D03*
X1175258D02*
D03*
Y956549D02*
D03*
X1162370D02*
D03*
Y949549D02*
D03*
X1149858D02*
D03*
Y956549D02*
D03*
X1136970D02*
D03*
Y949549D02*
D03*
X1226152Y394970D02*
D03*
Y401970D02*
D03*
X1213452D02*
D03*
Y394970D02*
D03*
X1200752D02*
D03*
Y401970D02*
D03*
X1188052D02*
D03*
Y394970D02*
D03*
X1175352D02*
D03*
Y401970D02*
D03*
X1162652D02*
D03*
Y394970D02*
D03*
X1149952D02*
D03*
Y401970D02*
D03*
X850900Y397820D02*
D03*
Y404820D02*
D03*
X838200Y405038D02*
D03*
Y398038D02*
D03*
X825500D02*
D03*
Y405038D02*
D03*
X812800D02*
D03*
Y398038D02*
D03*
X800100D02*
D03*
Y405038D02*
D03*
X787400Y405038D02*
D03*
Y398038D02*
D03*
X774700Y398038D02*
D03*
Y405038D02*
D03*
X838200Y303840D02*
D03*
Y310840D02*
D03*
D27*
X800100Y1047750D02*
D03*
X819100D02*
D03*
X958850Y1056640D02*
D03*
X939850D02*
D03*
X958190Y944880D02*
D03*
X939190D02*
D03*
X1175410Y1046378D02*
D03*
X1194410D02*
D03*
X1180440Y302260D02*
D03*
X1161440D02*
D03*
X793090D02*
D03*
X774090D02*
D03*
D28*
X939750Y1098500D02*
D03*
X1033750D02*
D03*
X920750Y1193800D02*
D03*
X1052750D02*
D03*
X986750Y1098500D02*
D03*
D29*
X812800Y1114750D02*
D03*
D30*
Y1174750D02*
D03*
D31*
X765800Y1144750D02*
D03*
D32*
X1231900Y762000D02*
D03*
Y787400D02*
D03*
Y812800D02*
D03*
Y838200D02*
D03*
Y863600D02*
D03*
Y889000D02*
D03*
X749300D02*
D03*
Y863600D02*
D03*
Y838200D02*
D03*
Y812800D02*
D03*
Y787400D02*
D03*
Y762000D02*
D03*
Y736600D02*
D03*
Y711200D02*
D03*
Y619760D02*
D03*
Y441960D02*
D03*
Y467360D02*
D03*
Y492760D02*
D03*
Y518160D02*
D03*
Y543560D02*
D03*
Y568960D02*
D03*
Y594360D02*
D03*
Y645160D02*
D03*
Y670560D02*
D03*
X1231900Y533400D02*
D03*
Y558800D02*
D03*
Y584200D02*
D03*
Y609600D02*
D03*
Y635000D02*
D03*
Y660400D02*
D03*
Y685800D02*
D03*
Y711200D02*
D03*
D33*
X1080770Y645160D02*
D03*
Y619760D02*
D03*
Y594360D02*
D03*
Y568960D02*
D03*
Y543560D02*
D03*
Y518160D02*
D03*
Y492760D02*
D03*
Y467360D02*
D03*
X900430D02*
D03*
Y492760D02*
D03*
Y518160D02*
D03*
Y543560D02*
D03*
Y568960D02*
D03*
Y594360D02*
D03*
Y619760D02*
D03*
Y645160D02*
D03*
Y848360D02*
D03*
Y873760D02*
D03*
Y822960D02*
D03*
Y797560D02*
D03*
Y772160D02*
D03*
Y746760D02*
D03*
Y721360D02*
D03*
Y695960D02*
D03*
Y670560D02*
D03*
X1080770D02*
D03*
Y695960D02*
D03*
Y721360D02*
D03*
Y746760D02*
D03*
Y772160D02*
D03*
Y797560D02*
D03*
Y822960D02*
D03*
Y873760D02*
D03*
Y848360D02*
D03*
M02*
