G04*
G04 #@! TF.GenerationSoftware,Altium Limited,Altium Designer,18.1.7 (191)*
G04*
G04 Layer_Physical_Order=1*
G04 Layer_Color=255*
%FSLAX44Y44*%
%MOMM*%
G71*
G01*
G75*
%ADD15R,0.9000X0.6000*%
%ADD16R,0.6000X0.9000*%
%ADD17R,0.6000X0.7000*%
%ADD18R,0.3000X0.5000*%
%ADD19O,1.1000X0.5100*%
%ADD20R,1.1000X0.5100*%
%ADD30C,0.3000*%
%ADD31C,0.5000*%
%ADD32C,0.4000*%
G04:AMPARAMS|DCode=33|XSize=14mm|YSize=1.2mm|CornerRadius=0.6mm|HoleSize=0mm|Usage=FLASHONLY|Rotation=0.000|XOffset=0mm|YOffset=0mm|HoleType=Round|Shape=RoundedRectangle|*
%AMROUNDEDRECTD33*
21,1,14.0000,0.0000,0,0,0.0*
21,1,12.8000,1.2000,0,0,0.0*
1,1,1.2000,6.4000,0.0000*
1,1,1.2000,-6.4000,0.0000*
1,1,1.2000,-6.4000,0.0000*
1,1,1.2000,6.4000,0.0000*
%
%ADD33ROUNDEDRECTD33*%
%ADD34O,1.6000X2.0000*%
%ADD35R,1.6000X2.0000*%
%ADD36C,0.6000*%
D15*
X1238250Y552990D02*
D03*
Y537990D02*
D03*
X1303020Y800830D02*
D03*
Y815830D02*
D03*
D16*
X1290846Y988060D02*
D03*
X1305846D02*
D03*
X787280Y758190D02*
D03*
X772280D02*
D03*
X784218Y900430D02*
D03*
X799218D02*
D03*
D17*
X922350Y965200D02*
D03*
X931850D02*
D03*
X922350Y939800D02*
D03*
X931850D02*
D03*
X922350Y914400D02*
D03*
X931850D02*
D03*
X922350Y889000D02*
D03*
X931850D02*
D03*
X922350Y863600D02*
D03*
X931850D02*
D03*
X922350Y838200D02*
D03*
X931850D02*
D03*
X922350Y812800D02*
D03*
X931850D02*
D03*
X922350Y787400D02*
D03*
X931850D02*
D03*
X922350Y762000D02*
D03*
X931850D02*
D03*
X922350Y736600D02*
D03*
X931850D02*
D03*
X922350Y711200D02*
D03*
X931850D02*
D03*
X922350Y685800D02*
D03*
X931850D02*
D03*
X922350Y660400D02*
D03*
X931850D02*
D03*
X922350Y635000D02*
D03*
X931850D02*
D03*
X922350Y609600D02*
D03*
X931850D02*
D03*
X922350Y584200D02*
D03*
X931850D02*
D03*
X922350Y558800D02*
D03*
X931850D02*
D03*
X1112190Y965200D02*
D03*
X1102690D02*
D03*
X1112190Y939800D02*
D03*
X1102690D02*
D03*
X1112190Y914400D02*
D03*
X1102690D02*
D03*
X1112190Y889000D02*
D03*
X1102690D02*
D03*
X1112190Y863600D02*
D03*
X1102690D02*
D03*
X1112190Y838200D02*
D03*
X1102690D02*
D03*
X1112190Y812800D02*
D03*
X1102690D02*
D03*
X1112190Y787400D02*
D03*
X1102690D02*
D03*
X1112190Y762000D02*
D03*
X1102690D02*
D03*
X1112190Y736600D02*
D03*
X1102690D02*
D03*
X1112190Y711200D02*
D03*
X1102690D02*
D03*
X1112190Y685800D02*
D03*
X1102690D02*
D03*
X1112190Y660400D02*
D03*
X1102690D02*
D03*
X1112190Y635000D02*
D03*
X1102690D02*
D03*
X1112190Y609600D02*
D03*
X1102690D02*
D03*
X1112190Y584200D02*
D03*
X1102690D02*
D03*
X1112190Y558800D02*
D03*
X1102690D02*
D03*
D18*
X822000Y965200D02*
D03*
X829000D02*
D03*
X822000Y939800D02*
D03*
X829000D02*
D03*
X822000Y914400D02*
D03*
X829000D02*
D03*
X822000Y889000D02*
D03*
X829000D02*
D03*
X822000Y863600D02*
D03*
X829000D02*
D03*
X822000Y838200D02*
D03*
X829000D02*
D03*
X822000Y812800D02*
D03*
X829000D02*
D03*
X822000Y787400D02*
D03*
X829000D02*
D03*
X822000Y762000D02*
D03*
X829000D02*
D03*
X822000Y736600D02*
D03*
X829000D02*
D03*
X822000Y711200D02*
D03*
X829000D02*
D03*
X822000Y685800D02*
D03*
X829000D02*
D03*
X822000Y660400D02*
D03*
X829000D02*
D03*
X822000Y635000D02*
D03*
X829000D02*
D03*
X822000Y609600D02*
D03*
X829000D02*
D03*
X822000Y584200D02*
D03*
X829000D02*
D03*
X822000Y558800D02*
D03*
X829000D02*
D03*
X1210000Y965200D02*
D03*
X1203000D02*
D03*
X1210000Y939800D02*
D03*
X1203000D02*
D03*
X1210000Y914400D02*
D03*
X1203000D02*
D03*
X1210000Y889000D02*
D03*
X1203000D02*
D03*
X1210000Y863600D02*
D03*
X1203000D02*
D03*
X1210000Y838200D02*
D03*
X1203000D02*
D03*
X1210000Y812800D02*
D03*
X1203000D02*
D03*
X1210000Y787400D02*
D03*
X1203000D02*
D03*
X1210000Y762000D02*
D03*
X1203000D02*
D03*
X1210000Y736600D02*
D03*
X1203000D02*
D03*
X1210000Y711200D02*
D03*
X1203000D02*
D03*
X1210000Y685800D02*
D03*
X1203000D02*
D03*
X1210000Y660400D02*
D03*
X1203000D02*
D03*
X1210000Y635000D02*
D03*
X1203000D02*
D03*
X1210000Y609600D02*
D03*
X1203000D02*
D03*
X1210000Y584200D02*
D03*
X1203000D02*
D03*
X1210000Y558800D02*
D03*
X1203000D02*
D03*
D19*
X787600Y647700D02*
D03*
Y660400D02*
D03*
Y673100D02*
D03*
Y685800D02*
D03*
Y698500D02*
D03*
Y711200D02*
D03*
Y723900D02*
D03*
Y736600D02*
D03*
X736600Y647700D02*
D03*
Y660400D02*
D03*
Y673100D02*
D03*
Y685800D02*
D03*
Y698500D02*
D03*
Y711200D02*
D03*
Y723900D02*
D03*
X1308300Y876300D02*
D03*
Y889000D02*
D03*
Y901700D02*
D03*
Y914400D02*
D03*
Y927100D02*
D03*
Y939800D02*
D03*
Y952500D02*
D03*
Y965200D02*
D03*
X1257300Y876300D02*
D03*
Y889000D02*
D03*
Y901700D02*
D03*
Y914400D02*
D03*
Y927100D02*
D03*
Y939800D02*
D03*
Y952500D02*
D03*
X1308300Y685800D02*
D03*
Y698500D02*
D03*
Y711200D02*
D03*
Y723900D02*
D03*
Y736600D02*
D03*
Y749300D02*
D03*
Y762000D02*
D03*
Y774700D02*
D03*
X1257300Y685800D02*
D03*
Y698500D02*
D03*
Y711200D02*
D03*
Y723900D02*
D03*
Y736600D02*
D03*
Y749300D02*
D03*
Y762000D02*
D03*
Y643890D02*
D03*
Y631190D02*
D03*
Y618490D02*
D03*
Y605790D02*
D03*
Y593090D02*
D03*
Y580390D02*
D03*
Y567690D02*
D03*
Y554990D02*
D03*
X1308300Y643890D02*
D03*
Y631190D02*
D03*
Y618490D02*
D03*
Y605790D02*
D03*
Y593090D02*
D03*
Y580390D02*
D03*
Y567690D02*
D03*
X787600Y787400D02*
D03*
Y800100D02*
D03*
Y812800D02*
D03*
Y825500D02*
D03*
Y838200D02*
D03*
Y850900D02*
D03*
Y863600D02*
D03*
Y876300D02*
D03*
X736600Y787400D02*
D03*
Y800100D02*
D03*
Y812800D02*
D03*
Y825500D02*
D03*
Y838200D02*
D03*
Y850900D02*
D03*
Y863600D02*
D03*
D20*
Y736600D02*
D03*
X1257300Y965200D02*
D03*
Y774700D02*
D03*
X1308300Y554990D02*
D03*
X736600Y876300D02*
D03*
D30*
X789378Y646938D02*
X806450D01*
X787600Y736600D02*
Y758190D01*
X793950Y764540D02*
X796290D01*
X787600Y758190D02*
X793950Y764540D01*
X787280Y758190D02*
X787600D01*
X1222166Y525780D02*
X1259282D01*
X1210000Y537946D02*
X1222166Y525780D01*
X1288492Y554990D02*
X1308300D01*
X1259282Y525780D02*
X1288492Y554990D01*
X1210000Y537946D02*
Y558800D01*
X772160Y897890D02*
X774700Y900430D01*
X782218D01*
X761954Y773938D02*
X821182D01*
X736600Y748584D02*
X761954Y773938D01*
X736600Y736600D02*
Y748584D01*
X767080Y787400D02*
X787600D01*
X722600Y742920D02*
X767080Y787400D01*
X722600Y724438D02*
Y742920D01*
X809300Y927100D02*
X822000Y914400D01*
X770890Y927100D02*
X809300D01*
X751078Y907288D02*
X770890Y927100D01*
X751078Y870822D02*
Y907288D01*
X743856Y863600D02*
X751078Y870822D01*
X744220Y850900D02*
X763270Y869950D01*
X822000Y889000D02*
Y901390D01*
X807720Y915670D02*
X822000Y901390D01*
X775970Y915670D02*
X807720D01*
X775810Y915510D02*
X775970Y915670D01*
X775760Y915510D02*
X775810D01*
X763270Y903020D02*
X775760Y915510D01*
X763270Y869950D02*
Y903020D01*
X736600Y863600D02*
X743856D01*
X765810Y939800D02*
X822000D01*
X736600Y910590D02*
X765810Y939800D01*
X736600Y876300D02*
Y910590D01*
X775716Y964946D02*
X821746D01*
X722600Y911830D02*
X775716Y964946D01*
X722600Y851154D02*
Y911830D01*
X1257300Y618490D02*
X1286002D01*
X1286256Y618744D01*
X1293114Y588518D02*
Y678434D01*
X1284986Y580390D02*
X1293114Y588518D01*
X1261618Y802340D02*
X1274572Y815294D01*
X770382Y640080D02*
Y658622D01*
X743204Y685800D02*
X770382Y658622D01*
X736600Y685800D02*
X743204D01*
X770382Y640080D02*
X775462Y635000D01*
X793477Y825500D02*
X801605Y833628D01*
X787600Y825500D02*
X793477D01*
X796590Y679150D02*
X815340Y660400D01*
X764840Y679150D02*
X796590D01*
X801370Y685800D02*
X808990Y678180D01*
X787600Y685800D02*
X801370D01*
X740600Y709129D02*
Y711200D01*
X812800Y685800D02*
X822000D01*
X806750Y691850D02*
X812800Y685800D01*
X781350Y691850D02*
X806750D01*
X745490Y698500D02*
X764840Y679150D01*
X796490Y664210D02*
X798830D01*
X762762Y620014D02*
Y654050D01*
X743712Y673100D02*
X762762Y654050D01*
X815340Y660400D02*
X822000D01*
X768604Y704596D02*
X781350Y691850D01*
X764840Y825500D02*
X771490Y832150D01*
X801034Y840128D02*
X812190D01*
X793056Y832150D02*
X801034Y840128D01*
X771490Y832150D02*
X793056D01*
X801605Y833628D02*
X809498D01*
X799846Y822706D02*
X800354D01*
X789940Y812800D02*
X799846Y822706D01*
X814118Y838200D02*
X822000D01*
X812190Y840128D02*
X814118Y838200D01*
X1259078Y607568D02*
X1274064D01*
X1257300Y605790D02*
X1259078Y607568D01*
X1015746Y470154D02*
X1016000Y469900D01*
X1015746Y470154D02*
Y511048D01*
X775462Y635000D02*
X822000D01*
X729234Y717804D02*
X747522D01*
X722600Y724438D02*
X729234Y717804D01*
X820928Y737672D02*
X822000Y736600D01*
X820928Y737672D02*
Y747014D01*
X799592Y727964D02*
Y755396D01*
X795528Y723900D02*
X799592Y727964D01*
X787600Y723900D02*
X795528D01*
X747522Y717804D02*
X754126Y711200D01*
X787600D01*
X736600D02*
X740600D01*
X771986Y717250D02*
X793056D01*
X765336Y723900D02*
X771986Y717250D01*
X793056D02*
X799106Y711200D01*
X745133Y704596D02*
X768604D01*
X740600Y709129D02*
X745133Y704596D01*
X762762Y620014D02*
X773176Y609600D01*
X822000D01*
X751078Y611124D02*
X778002Y584200D01*
X822000D01*
X751078Y611124D02*
Y651510D01*
X742188Y660400D02*
X751078Y651510D01*
X736600Y660400D02*
X742188D01*
X736600Y673100D02*
X743712D01*
X806196Y762000D02*
X822000D01*
X799592Y755396D02*
X806196Y762000D01*
X736600Y723900D02*
X765336D01*
X736600Y800100D02*
X748106D01*
X754606Y793600D02*
X800250D01*
X748106Y800100D02*
X754606Y793600D01*
X736600Y812800D02*
X746506D01*
X752556Y806750D01*
X736600Y825500D02*
X764840D01*
X728904Y844850D02*
X750616D01*
X821746Y964946D02*
X822000Y965200D01*
X722600Y851154D02*
X728904Y844850D01*
X769366Y863600D02*
X787600D01*
X750616Y844850D02*
X769366Y863600D01*
X736600Y850900D02*
X744220D01*
X822000Y545790D02*
X835660Y532130D01*
X822000Y545790D02*
Y558800D01*
X1290828Y952500D02*
X1308300D01*
X1210000Y965200D02*
X1257300D01*
X1274572Y918972D02*
X1295400Y939800D01*
X1274572Y815294D02*
Y918972D01*
X1257300Y580390D02*
X1284986D01*
X1300480Y685800D02*
X1308300D01*
X1293114Y678434D02*
X1300480Y685800D01*
X1329436Y720852D02*
Y892556D01*
X1319784Y711200D02*
X1329436Y720852D01*
X1308300Y711200D02*
X1319784D01*
X1320546Y755396D02*
Y871474D01*
X1315720Y876300D02*
X1320546Y871474D01*
X1308300Y876300D02*
X1315720D01*
X1314450Y749300D02*
X1320546Y755396D01*
X1320292Y901700D02*
X1329436Y892556D01*
X1308300Y901700D02*
X1320292D01*
X752556Y806750D02*
X793056D01*
X787600Y812800D02*
X789940D01*
X799106D02*
X822000D01*
X793056Y806750D02*
X799106Y812800D01*
X1244600Y711200D02*
X1257300D01*
X1238250Y704850D02*
X1244600Y711200D01*
X1238250Y659130D02*
Y704850D01*
X1243330Y723900D02*
X1257300D01*
X1230630Y711200D02*
X1243330Y723900D01*
X1230630Y668020D02*
Y711200D01*
X1240790Y736600D02*
X1257300D01*
X1223010Y718820D02*
X1240790Y736600D01*
X1223010Y690880D02*
Y718820D01*
X1239520Y749300D02*
X1257300D01*
X1216660Y726440D02*
X1239520Y749300D01*
X1216660Y713740D02*
Y726440D01*
X1245870Y642620D02*
Y689610D01*
X1212850Y609600D02*
X1245870Y642620D01*
X1210000Y609600D02*
X1212850D01*
X1214120Y635000D02*
X1238250Y659130D01*
X1223010Y660400D02*
X1230630Y668020D01*
X1217930Y685800D02*
X1223010Y690880D01*
X1210000Y711200D02*
X1214120D01*
X1216660Y713740D01*
X1112190Y736600D02*
X1203000D01*
X1212850D02*
X1238250Y762000D01*
X1210000Y736600D02*
X1212850D01*
X1238250Y762000D02*
X1257300D01*
X1230630Y774700D02*
X1257300D01*
X1217930Y762000D02*
X1230630Y774700D01*
X1210000Y762000D02*
X1217930D01*
X1245870Y689610D02*
X1254760Y698500D01*
X1257300D01*
X1210000Y660400D02*
X1223010D01*
X1210000Y685800D02*
X1217930D01*
X1210000Y635000D02*
X1214120D01*
X1254760Y952500D02*
X1257300D01*
X1242060Y939800D02*
X1254760Y952500D01*
X1210000Y939800D02*
X1242060D01*
X1254760D02*
X1257300D01*
X1229360Y914400D02*
X1254760Y939800D01*
X1210000Y914400D02*
X1229360D01*
X1216660Y812800D02*
X1238250Y834390D01*
X1210000Y812800D02*
X1216660D01*
X1238250Y834390D02*
Y873760D01*
X1253490Y889000D01*
X1229360Y877570D02*
X1253490Y901700D01*
X1229360Y848360D02*
Y877570D01*
X1219200Y838200D02*
X1229360Y848360D01*
X1210000Y838200D02*
X1219200D01*
X1221740Y867410D02*
Y882650D01*
X1217930Y863600D02*
X1221740Y867410D01*
X1210000Y863600D02*
X1217930D01*
X1253490Y914400D02*
X1257300D01*
X1221740Y882650D02*
X1253490Y914400D01*
X1254760Y927100D02*
X1257300D01*
X1216660Y889000D02*
X1254760Y927100D01*
X1210000Y889000D02*
X1216660D01*
X1253490D02*
X1257300D01*
X1253490Y901700D02*
X1257300D01*
X1308300Y749300D02*
X1314450D01*
X829000Y558800D02*
X922350D01*
X829000Y584200D02*
X922350D01*
X1210000Y787400D02*
X1267460D01*
X1112190D02*
X1203000D01*
X1112190Y812800D02*
X1203000D01*
X1295400Y939800D02*
X1308300D01*
X1285240Y723900D02*
X1308300D01*
X1283970Y722630D02*
X1285240Y723900D01*
X1307030Y913130D02*
X1308300Y914400D01*
X1283970Y913130D02*
X1307030D01*
X1292860Y711200D02*
X1308300D01*
X787600Y673100D02*
X796490Y664210D01*
X787600Y850900D02*
X807720D01*
X808990Y852170D01*
X736600Y698500D02*
X745490D01*
X799106Y711200D02*
X803910D01*
X800250Y793600D02*
X806450Y787400D01*
X822000D01*
X736600Y838200D02*
X754552D01*
X773602Y857250D01*
X796290D01*
X802640Y863600D01*
X822000D01*
X1292860Y762000D02*
X1308300D01*
X1267460Y787400D02*
X1292860Y762000D01*
X1234440Y567690D02*
X1257300D01*
X1217930Y584200D02*
X1234440Y567690D01*
X1210000Y584200D02*
X1217930D01*
X1112190Y965200D02*
X1203000D01*
X1112190Y939800D02*
X1203000D01*
X1112190Y914400D02*
X1203000D01*
X1112190Y889000D02*
X1203000D01*
X1112190Y863600D02*
X1203000D01*
X1112190Y838200D02*
X1203000D01*
X1112190Y762000D02*
X1203000D01*
X1112190Y711200D02*
X1203000D01*
X1112190Y685800D02*
X1203000D01*
X1112190Y660400D02*
X1203000D01*
X1112190Y635000D02*
X1203000D01*
X1112190Y609600D02*
X1203000D01*
X1112190Y584200D02*
X1203000D01*
X1112190Y558800D02*
X1203000D01*
X829000Y762000D02*
X922350D01*
X829000Y787400D02*
X922350D01*
X829000Y736600D02*
X922350D01*
X829000Y711200D02*
X922350D01*
X829000Y685800D02*
X922350D01*
X829000Y660400D02*
X922350D01*
X829000Y635000D02*
X922350D01*
X829000Y609600D02*
X922350D01*
D31*
X785160Y660400D02*
X787600D01*
X777540Y668020D02*
X785160Y660400D01*
X772160Y668020D02*
X777540D01*
X784218Y879682D02*
X787600Y876300D01*
X784218Y879682D02*
Y900430D01*
X1305846Y988060D02*
X1317300D01*
X1297944Y817830D02*
X1300480Y815294D01*
X1287780Y817880D02*
X1287830Y817830D01*
X1297944D01*
X1308300Y698500D02*
X1318514D01*
X1319022Y699008D01*
X1253744Y677164D02*
Y682244D01*
X1257300Y685800D01*
X1249680Y993648D02*
X1290828Y952500D01*
X1029208Y993648D02*
X1249680D01*
X1016000Y980440D02*
X1029208Y993648D01*
X1016000Y538480D02*
Y980440D01*
X1009650Y532130D02*
X1016000Y538480D01*
X835660Y532130D02*
X1009650D01*
X1308300Y889000D02*
X1320038D01*
X1250950Y631190D02*
X1257300D01*
X1246378Y626618D02*
X1250950Y631190D01*
X787600Y800100D02*
X801370D01*
X1248156Y593344D02*
X1257046D01*
X1257300Y593090D01*
X1307846Y644344D02*
Y652018D01*
Y644344D02*
X1308300Y643890D01*
Y736600D02*
X1317300D01*
X1256792Y867664D02*
Y875792D01*
X1257300Y876300D01*
X1308554Y927354D02*
X1320038D01*
X1308300Y927100D02*
X1308554Y927354D01*
X931850Y965200D02*
X1003300D01*
X931850Y939800D02*
X1003300D01*
X931850Y914400D02*
X1003300D01*
X931850Y889000D02*
X1003300D01*
X931850Y863600D02*
X1003300D01*
X931850Y838200D02*
X1003300D01*
X931850Y812800D02*
X1003300D01*
X736600Y640080D02*
Y647700D01*
X787600Y698500D02*
X800100D01*
X774700Y842010D02*
X778510Y838200D01*
X787600D01*
X744220Y787400D02*
X749300Y782320D01*
X736600Y787400D02*
X744220D01*
X1028700Y558800D02*
X1102690D01*
X1028700Y584200D02*
X1102690D01*
X1028700Y609600D02*
X1102690D01*
X1028700Y635000D02*
X1102690D01*
X1028700Y660400D02*
X1102690D01*
X1028700Y685800D02*
X1102690D01*
X1028700Y711200D02*
X1102690D01*
X1028700Y736600D02*
X1102690D01*
X1028700Y762000D02*
X1102690D01*
X1028700Y787400D02*
X1102690D01*
X1028700Y812800D02*
X1102690D01*
X1028700Y838200D02*
X1102690D01*
X1028700Y863600D02*
X1102690D01*
X1028700Y889000D02*
X1102690D01*
X1028700Y914400D02*
X1102690D01*
X1028700Y939800D02*
X1102690D01*
X1028700Y965200D02*
X1102690D01*
X931850Y558800D02*
X1003300D01*
X931850Y584200D02*
X1003300D01*
X931850Y609600D02*
X1003300D01*
X931850Y635000D02*
X1003300D01*
X931850Y660400D02*
X1003300D01*
X931850Y685800D02*
X1003300D01*
X931850Y711200D02*
X1003300D01*
X931850Y736600D02*
X1003300D01*
X931850Y762000D02*
X1003300D01*
X931850Y787400D02*
X1003300D01*
D32*
X799218Y888644D02*
X801218Y886644D01*
X799218Y888644D02*
Y900430D01*
X771986Y897890D02*
X772160D01*
X1280160Y988060D02*
X1290846D01*
Y976104D02*
Y988060D01*
Y976104D02*
X1301750Y965200D01*
X1303020Y800830D02*
X1305846D01*
X1286256D02*
X1303020D01*
X1308300Y774700D02*
Y798376D01*
X1305846Y800830D02*
X1308300Y798376D01*
X1225550Y537990D02*
X1238250D01*
Y552990D02*
X1240250Y554990D01*
X1257300D01*
X1224280D02*
X1226280Y552990D01*
X1238250D01*
X1301750Y965200D02*
X1308300D01*
X759460Y758190D02*
X770280D01*
X803910Y711200D02*
X822000D01*
X829000Y812800D02*
X922350D01*
X829000Y838200D02*
X922350D01*
X829000Y863600D02*
X922350D01*
X829000Y889000D02*
X922350D01*
X829000Y914400D02*
X922350D01*
X829000Y939800D02*
X922350D01*
X829000Y965200D02*
X922350D01*
D33*
X1107440Y952500D02*
D03*
Y977900D02*
D03*
Y927100D02*
D03*
Y901700D02*
D03*
Y876300D02*
D03*
Y850900D02*
D03*
Y825500D02*
D03*
Y800100D02*
D03*
Y774700D02*
D03*
Y749300D02*
D03*
Y723900D02*
D03*
Y698500D02*
D03*
Y673100D02*
D03*
Y647700D02*
D03*
Y622300D02*
D03*
Y596900D02*
D03*
X927100D02*
D03*
Y622300D02*
D03*
Y647700D02*
D03*
Y673100D02*
D03*
Y698500D02*
D03*
Y723900D02*
D03*
Y749300D02*
D03*
Y774700D02*
D03*
Y800100D02*
D03*
Y825500D02*
D03*
Y850900D02*
D03*
Y876300D02*
D03*
Y901700D02*
D03*
Y927100D02*
D03*
Y977900D02*
D03*
Y952500D02*
D03*
Y571500D02*
D03*
Y546100D02*
D03*
X1107440D02*
D03*
Y571500D02*
D03*
D34*
X965200Y469900D02*
D03*
X990600D02*
D03*
X1016000D02*
D03*
X1041400D02*
D03*
D35*
X1066800D02*
D03*
D36*
X796290Y764540D02*
D03*
X801218Y886644D02*
D03*
X771986Y897890D02*
D03*
X1280160Y988060D02*
D03*
X1317300D02*
D03*
X1286256Y800830D02*
D03*
X1225550Y537990D02*
D03*
X1287780Y817880D02*
D03*
X1319022Y699008D02*
D03*
X1224280Y554990D02*
D03*
X759460Y758190D02*
D03*
X1286256Y618744D02*
D03*
X1261618Y802340D02*
D03*
X1253744Y677164D02*
D03*
X772160Y668020D02*
D03*
X808990Y678180D02*
D03*
X806450Y646938D02*
D03*
X798830Y664210D02*
D03*
X800354Y822706D02*
D03*
X809498Y833628D02*
D03*
X1274064Y607568D02*
D03*
X1015746Y511048D02*
D03*
X820928Y747014D02*
D03*
X821182Y773938D02*
D03*
X1320038Y889000D02*
D03*
X1248156Y593344D02*
D03*
X1246378Y626618D02*
D03*
X1307846Y652018D02*
D03*
X1317300Y736600D02*
D03*
X1256792Y867664D02*
D03*
X1320038Y927354D02*
D03*
X1283970Y722630D02*
D03*
Y913130D02*
D03*
X1292860Y711200D02*
D03*
X1003300Y965200D02*
D03*
Y939800D02*
D03*
Y914400D02*
D03*
Y889000D02*
D03*
Y863600D02*
D03*
Y838200D02*
D03*
Y812800D02*
D03*
X808990Y852170D02*
D03*
X736600Y640080D02*
D03*
X800100Y698500D02*
D03*
X801370Y800100D02*
D03*
X774700Y842010D02*
D03*
X749300Y782320D02*
D03*
X1028700Y965200D02*
D03*
Y939800D02*
D03*
Y914400D02*
D03*
Y889000D02*
D03*
Y863600D02*
D03*
Y838200D02*
D03*
Y812800D02*
D03*
Y787400D02*
D03*
Y762000D02*
D03*
Y736600D02*
D03*
Y711200D02*
D03*
Y685800D02*
D03*
Y660400D02*
D03*
Y635000D02*
D03*
Y609600D02*
D03*
Y584200D02*
D03*
Y558800D02*
D03*
X1003300D02*
D03*
Y584200D02*
D03*
Y609600D02*
D03*
Y635000D02*
D03*
Y660400D02*
D03*
Y685800D02*
D03*
Y711200D02*
D03*
Y736600D02*
D03*
Y762000D02*
D03*
Y787400D02*
D03*
M02*
