G04*
G04 #@! TF.GenerationSoftware,Altium Limited,Altium Designer,19.0.14 (431)*
G04*
G04 Layer_Color=255*
%FSLAX44Y44*%
%MOMM*%
G71*
G01*
G75*
%ADD10C,0.2000*%
%ADD12C,0.1000*%
%ADD14C,1.0000*%
%ADD15C,0.5000*%
%ADD16C,0.2540*%
%ADD17C,0.4000*%
%ADD18R,7.1000X5.5000*%
%ADD19R,2.6000X0.9500*%
%ADD20R,0.5100X1.1000*%
%ADD21R,0.6000X0.7000*%
%ADD22R,0.3000X0.5000*%
%ADD23R,0.5000X0.3000*%
%ADD24R,0.9000X1.3000*%
%ADD39C,3.6000*%
%ADD40R,3.7000X1.3000*%
%ADD41R,3.2000X1.3000*%
%ADD42R,1.3000X3.2000*%
%ADD43C,1.5000*%
G04:AMPARAMS|DCode=44|XSize=14mm|YSize=1.2mm|CornerRadius=0.6mm|HoleSize=0mm|Usage=FLASHONLY|Rotation=0.000|XOffset=0mm|YOffset=0mm|HoleType=Round|Shape=RoundedRectangle|*
%AMROUNDEDRECTD44*
21,1,14.0000,0.0000,0,0,0.0*
21,1,12.8000,1.2000,0,0,0.0*
1,1,1.2000,6.4000,0.0000*
1,1,1.2000,-6.4000,0.0000*
1,1,1.2000,-6.4000,0.0000*
1,1,1.2000,6.4000,0.0000*
%
%ADD44ROUNDEDRECTD44*%
D10*
X940716Y1023620D02*
G03*
X940716Y1023620I-916J0D01*
G01*
X762803Y971550D02*
G03*
X762803Y971550I-803J0D01*
G01*
X851703Y379476D02*
G03*
X851703Y379476I-803J0D01*
G01*
X1137961Y971350D02*
G03*
X1137961Y971350I-803J0D01*
G01*
X1226861Y379476D02*
G03*
X1226861Y379476I-803J0D01*
G01*
X1041710Y968339D02*
Y1033272D01*
X926710Y968339D02*
Y1033272D01*
Y968339D02*
X1041710D01*
X926710Y1033272D02*
X1041710D01*
X754380Y1027938D02*
X858520D01*
Y966470D02*
Y1027938D01*
X754888Y966470D02*
X858520D01*
X754380Y966978D02*
Y1027938D01*
Y966978D02*
X754888Y966470D01*
X858012Y384556D02*
X858520Y384048D01*
Y323088D02*
Y384048D01*
X754380Y384556D02*
X858012D01*
X754380Y323088D02*
Y384556D01*
Y323088D02*
X858520D01*
X1129538Y1027738D02*
X1233678D01*
Y966270D02*
Y1027738D01*
X1130046Y966270D02*
X1233678D01*
X1129538Y966778D02*
Y1027738D01*
Y966778D02*
X1130046Y966270D01*
X1233170Y384556D02*
X1233678Y384048D01*
Y323088D02*
Y384048D01*
X1129538Y384556D02*
X1233170D01*
X1129538Y323088D02*
Y384556D01*
Y323088D02*
X1233678D01*
X919430Y1090956D02*
X1053541D01*
X919430D02*
Y1252084D01*
Y1253364D02*
X1053541D01*
Y1090956D02*
Y1253364D01*
X763800Y1109750D02*
X764800Y1108750D01*
X763800Y1128750D02*
X772800D01*
X763800Y1160750D02*
X772800D01*
X793800Y1120750D02*
X831800D01*
X764800Y1108750D02*
X857800D01*
X763800Y1252750D02*
X857800D01*
X831800Y1109750D02*
Y1120750D01*
X793800Y1109750D02*
Y1120750D01*
X772800Y1128750D02*
Y1160750D01*
X857800Y1108750D02*
Y1252750D01*
X763800Y1108750D02*
Y1252750D01*
X791850Y1058000D02*
X827350D01*
X791850Y1037500D02*
X827350D01*
Y1058000D01*
X791850Y1037500D02*
Y1058000D01*
X931600Y1046390D02*
X967100D01*
X931600Y1066890D02*
X967100D01*
X931600Y1046390D02*
Y1066890D01*
X967100Y1046390D02*
Y1066890D01*
X930940Y934630D02*
X966440D01*
X930940Y955130D02*
X966440D01*
X930940Y934630D02*
Y955130D01*
X966440Y934630D02*
Y955130D01*
X1167160Y1056628D02*
X1202660D01*
X1167160Y1036128D02*
X1202660D01*
Y1056628D01*
X1167160Y1036128D02*
Y1056628D01*
X1153190Y292010D02*
X1188690D01*
X1153190Y312510D02*
X1188690D01*
X1153190Y292010D02*
Y312510D01*
X1188690Y292010D02*
Y312510D01*
X765840Y292010D02*
X801340D01*
X765840Y312510D02*
X801340D01*
X765840Y292010D02*
Y312510D01*
X801340Y292010D02*
Y312510D01*
X1219200Y520700D02*
X1244600D01*
X1219200Y723900D02*
X1244600D01*
X1219200Y749300D02*
X1244600D01*
X1219200Y901700D02*
X1244600D01*
X736600Y429260D02*
X762000D01*
X736600Y683260D02*
X762000D01*
X736600Y698500D02*
X762000D01*
X736600Y901700D02*
X762000D01*
X1244600Y749300D02*
Y901700D01*
X1219200Y749300D02*
Y901700D01*
X762000Y698500D02*
Y901700D01*
X736600Y698500D02*
Y901700D01*
X1244600Y520700D02*
Y723900D01*
X1219200Y520700D02*
Y723900D01*
X762000Y429260D02*
Y683260D01*
X736600Y429260D02*
Y683260D01*
X932434Y886206D02*
X1046226D01*
X1160780D02*
X1160780Y454660D01*
X817880D02*
X1160780D01*
X817880Y873760D02*
X818134D01*
X1046226Y886206D02*
X1160780D01*
X830326D02*
X932434D01*
X817880Y873760D02*
X830326Y886206D01*
X817880Y454660D02*
Y873760D01*
X810538Y1173194D02*
Y1183191D01*
X815537D01*
X817203Y1181525D01*
Y1178192D01*
X815537Y1176526D01*
X810538D01*
X820535Y1173194D02*
X823867D01*
X822201D01*
Y1183191D01*
X820535Y1181525D01*
D12*
X1071956Y474980D02*
X1092276D01*
X1071956D02*
Y485140D01*
X1092276D01*
Y474980D02*
Y485140D01*
X1089736Y476250D02*
Y483870D01*
Y501650D02*
Y509270D01*
X1092276Y500380D02*
Y510540D01*
X1071956D02*
X1092276D01*
X1071956Y500380D02*
Y510540D01*
Y500380D02*
X1092276D01*
X1071956Y525780D02*
X1092276D01*
X1071956D02*
Y535940D01*
X1092276D01*
Y525780D02*
Y535940D01*
X1089736Y527050D02*
Y534670D01*
Y552450D02*
Y560070D01*
X1092276Y551180D02*
Y561340D01*
X1071956D02*
X1092276D01*
X1071956Y551180D02*
Y561340D01*
Y551180D02*
X1092276D01*
X1071956Y576580D02*
X1092276D01*
X1071956D02*
Y586740D01*
X1092276D01*
Y576580D02*
Y586740D01*
X1089736Y577850D02*
Y585470D01*
Y603250D02*
Y610870D01*
X1092276Y601980D02*
Y612140D01*
X1071956D02*
X1092276D01*
X1071956Y601980D02*
Y612140D01*
Y601980D02*
X1092276D01*
X1071956Y627380D02*
X1092276D01*
X1071956D02*
Y637540D01*
X1092276D01*
Y627380D02*
Y637540D01*
X1089736Y628650D02*
Y636270D01*
Y654050D02*
Y661670D01*
X1092276Y652780D02*
Y662940D01*
X1071956D02*
X1092276D01*
X1071956Y652780D02*
Y662940D01*
Y652780D02*
X1092276D01*
X1071956Y678180D02*
X1092276D01*
X1071956D02*
Y688340D01*
X1092276D01*
Y678180D02*
Y688340D01*
X1089736Y679450D02*
Y687070D01*
Y704850D02*
Y712470D01*
X1092276Y703580D02*
Y713740D01*
X1071956D02*
X1092276D01*
X1071956Y703580D02*
Y713740D01*
Y703580D02*
X1092276D01*
X1071956Y728980D02*
X1092276D01*
X1071956D02*
Y739140D01*
X1092276D01*
Y728980D02*
Y739140D01*
X1089736Y730250D02*
Y737870D01*
Y755650D02*
Y763270D01*
X1092276Y754380D02*
Y764540D01*
X1071956D02*
X1092276D01*
X1071956Y754380D02*
Y764540D01*
Y754380D02*
X1092276D01*
X1071956Y779780D02*
X1092276D01*
X1071956D02*
Y789940D01*
X1092276D01*
Y779780D02*
Y789940D01*
X1089736Y781050D02*
Y788670D01*
Y806450D02*
Y814070D01*
X1092276Y805180D02*
Y815340D01*
X1071956D02*
X1092276D01*
X1071956Y805180D02*
Y815340D01*
Y805180D02*
X1092276D01*
X1071956Y830580D02*
X1092276D01*
X1071956D02*
Y840740D01*
X1092276D01*
Y830580D02*
Y840740D01*
X1089736Y831850D02*
Y839470D01*
Y857250D02*
Y864870D01*
X1092276Y855980D02*
Y866140D01*
X1071956D02*
X1092276D01*
X1071956Y855980D02*
Y866140D01*
Y855980D02*
X1092276D01*
X889076Y485140D02*
X909396D01*
Y474980D02*
Y485140D01*
X889076Y474980D02*
X909396D01*
X889076D02*
Y485140D01*
X891616Y476250D02*
Y483870D01*
Y501650D02*
Y509270D01*
X889076Y500380D02*
Y510540D01*
Y500380D02*
X909396D01*
Y510540D01*
X889076D02*
X909396D01*
X889076Y535940D02*
X909396D01*
Y525780D02*
Y535940D01*
X889076Y525780D02*
X909396D01*
X889076D02*
Y535940D01*
X891616Y527050D02*
Y534670D01*
Y552450D02*
Y560070D01*
X889076Y551180D02*
Y561340D01*
Y551180D02*
X909396D01*
Y561340D01*
X889076D02*
X909396D01*
X889076Y586740D02*
X909396D01*
Y576580D02*
Y586740D01*
X889076Y576580D02*
X909396D01*
X889076D02*
Y586740D01*
X891616Y577850D02*
Y585470D01*
Y603250D02*
Y610870D01*
X889076Y601980D02*
Y612140D01*
Y601980D02*
X909396D01*
Y612140D01*
X889076D02*
X909396D01*
X889076Y637540D02*
X909396D01*
Y627380D02*
Y637540D01*
X889076Y627380D02*
X909396D01*
X889076D02*
Y637540D01*
X891616Y628650D02*
Y636270D01*
Y654050D02*
Y661670D01*
X889076Y652780D02*
Y662940D01*
Y652780D02*
X909396D01*
Y662940D01*
X889076D02*
X909396D01*
X889076Y688340D02*
X909396D01*
Y678180D02*
Y688340D01*
X889076Y678180D02*
X909396D01*
X889076D02*
Y688340D01*
X891616Y679450D02*
Y687070D01*
Y704850D02*
Y712470D01*
X889076Y703580D02*
Y713740D01*
Y703580D02*
X909396D01*
Y713740D01*
X889076D02*
X909396D01*
X889076Y739140D02*
X909396D01*
Y728980D02*
Y739140D01*
X889076Y728980D02*
X909396D01*
X889076D02*
Y739140D01*
X891616Y730250D02*
Y737870D01*
Y755650D02*
Y763270D01*
X889076Y754380D02*
Y764540D01*
Y754380D02*
X909396D01*
Y764540D01*
X889076D02*
X909396D01*
X889076Y789940D02*
X909396D01*
Y779780D02*
Y789940D01*
X889076Y779780D02*
X909396D01*
X889076D02*
Y789940D01*
X891616Y781050D02*
Y788670D01*
Y806450D02*
Y814070D01*
X889076Y805180D02*
Y815340D01*
Y805180D02*
X909396D01*
Y815340D01*
X889076D02*
X909396D01*
X731520Y1186180D02*
Y1193800D01*
X728980Y1184910D02*
Y1195070D01*
Y1184910D02*
X749300D01*
Y1195070D01*
X728980D02*
X749300D01*
X733298Y1170973D02*
Y1180117D01*
Y1170973D02*
X747522D01*
Y1180117D01*
X733298D02*
X747522D01*
X842772Y945388D02*
Y959612D01*
X833628Y945388D02*
X842772D01*
X833628D02*
Y959612D01*
X842772D01*
X820928D02*
X830072D01*
X820928Y945388D02*
Y959612D01*
Y945388D02*
X830072D01*
Y959612D01*
X817372Y945388D02*
Y959612D01*
X808228Y945388D02*
X817372D01*
X808228D02*
Y959612D01*
X817372D01*
X795528D02*
X804672D01*
X795528Y945388D02*
Y959612D01*
Y945388D02*
X804672D01*
Y959612D01*
X791972Y945388D02*
Y959612D01*
X782828Y945388D02*
X791972D01*
X782828D02*
Y959612D01*
X791972D01*
X770128D02*
X779272D01*
X770128Y945388D02*
Y959612D01*
Y945388D02*
X779272D01*
Y959612D01*
X766572Y945388D02*
Y959612D01*
X757428Y945388D02*
X766572D01*
X757428D02*
Y959612D01*
X766572D01*
X772912Y1034288D02*
Y1043432D01*
X758688D02*
X772912D01*
X758688Y1034288D02*
Y1043432D01*
Y1034288D02*
X772912D01*
X1153470Y1041908D02*
Y1051052D01*
X1139246D02*
X1153470D01*
X1139246Y1041908D02*
Y1051052D01*
Y1041908D02*
X1153470D01*
X1218250Y945937D02*
Y960161D01*
X1209106Y945937D02*
X1218250D01*
X1209106D02*
Y960161D01*
X1218250D01*
X1196086D02*
X1205230D01*
X1196086Y945937D02*
Y960161D01*
Y945937D02*
X1205230D01*
Y960161D01*
X1192342Y945937D02*
Y960161D01*
X1183198Y945937D02*
X1192342D01*
X1183198D02*
Y960161D01*
X1192342D01*
X1170686D02*
X1179830D01*
X1170686Y945937D02*
Y960161D01*
Y945937D02*
X1179830D01*
Y960161D01*
X1166942Y945937D02*
Y960161D01*
X1157798Y945937D02*
X1166942D01*
X1157798D02*
Y960161D01*
X1166942D01*
X1145286D02*
X1154430D01*
X1145286Y945937D02*
Y960161D01*
Y945937D02*
X1154430D01*
Y960161D01*
X1141542Y945937D02*
Y960161D01*
X1132398Y945937D02*
X1141542D01*
X1132398D02*
Y960161D01*
X1141542D01*
X1221580Y391358D02*
Y405582D01*
X1230724D01*
Y391358D02*
Y405582D01*
X1221580Y391358D02*
X1230724D01*
X1208880D02*
X1218024D01*
Y405582D01*
X1208880D02*
X1218024D01*
X1208880Y391358D02*
Y405582D01*
X1196180Y391358D02*
Y405582D01*
X1205324D01*
Y391358D02*
Y405582D01*
X1196180Y391358D02*
X1205324D01*
X1183480D02*
X1192624D01*
Y405582D01*
X1183480D02*
X1192624D01*
X1183480Y391358D02*
Y405582D01*
X1170780Y391358D02*
Y405582D01*
X1179924D01*
Y391358D02*
Y405582D01*
X1170780Y391358D02*
X1179924D01*
X1158080D02*
X1167224D01*
Y405582D01*
X1158080D02*
X1167224D01*
X1158080Y391358D02*
Y405582D01*
X1145380Y391358D02*
Y405582D01*
X1154524D01*
Y391358D02*
Y405582D01*
X1145380Y391358D02*
X1154524D01*
X1209548Y301498D02*
Y310642D01*
Y301498D02*
X1223772D01*
Y310642D01*
X1209548D02*
X1223772D01*
X846328Y394208D02*
Y408432D01*
X855472D01*
Y394208D02*
Y408432D01*
X846328Y394208D02*
X855472D01*
X833628Y394426D02*
X842772D01*
Y408650D01*
X833628D02*
X842772D01*
X833628Y394426D02*
Y408650D01*
X820928Y394426D02*
Y408650D01*
X830072D01*
Y394426D02*
Y408650D01*
X820928Y394426D02*
X830072D01*
X808228D02*
X817372D01*
Y408650D01*
X808228D02*
X817372D01*
X808228Y394426D02*
Y408650D01*
X795528Y394426D02*
Y408650D01*
X804672D01*
Y394426D02*
Y408650D01*
X795528Y394426D02*
X804672D01*
X782828Y394426D02*
X791972D01*
Y408650D01*
X782828D02*
X791972D01*
X782828Y394426D02*
Y408650D01*
X770128Y394426D02*
Y408650D01*
X779272D01*
Y394426D02*
Y408650D01*
X770128Y394426D02*
X779272D01*
X833628Y314452D02*
X842772D01*
X833628Y300228D02*
Y314452D01*
Y300228D02*
X842772D01*
Y314452D01*
X889076Y866140D02*
X909396D01*
Y855980D02*
Y866140D01*
X889076Y855980D02*
X909396D01*
X889076D02*
Y866140D01*
X891616Y857250D02*
Y864870D01*
Y831850D02*
Y839470D01*
X889076Y830580D02*
Y840740D01*
Y830580D02*
X909396D01*
Y840740D01*
X889076D02*
X909396D01*
X764671Y993648D02*
X771335D01*
X772668Y994981D01*
Y997647D01*
X771335Y998980D01*
X764671D01*
X772668Y1001645D02*
Y1004311D01*
Y1002978D01*
X764671D01*
X766003Y1001645D01*
X846959Y362458D02*
X840295D01*
X838962Y361125D01*
Y358459D01*
X840295Y357126D01*
X846959D01*
X838962Y349129D02*
Y354461D01*
X844294Y349129D01*
X845627D01*
X846959Y350462D01*
Y353128D01*
X845627Y354461D01*
X1141099Y988568D02*
X1147763D01*
X1149096Y989901D01*
Y992567D01*
X1147763Y993900D01*
X1141099D01*
X1142431Y996565D02*
X1141099Y997898D01*
Y1000564D01*
X1142431Y1001897D01*
X1143764D01*
X1145097Y1000564D01*
Y999231D01*
Y1000564D01*
X1146430Y1001897D01*
X1147763D01*
X1149096Y1000564D01*
Y997898D01*
X1147763Y996565D01*
X1221609Y360680D02*
X1214945D01*
X1213612Y359347D01*
Y356681D01*
X1214945Y355348D01*
X1221609D01*
X1213612Y348684D02*
X1221609D01*
X1217611Y352683D01*
Y347351D01*
X1074166Y482264D02*
Y477266D01*
X1076665D01*
X1077498Y478099D01*
Y481431D01*
X1076665Y482264D01*
X1074166D01*
X1079164Y481431D02*
X1079997Y482264D01*
X1081664D01*
X1082497Y481431D01*
Y480598D01*
X1081664Y479765D01*
X1080831D01*
X1081664D01*
X1082497Y478932D01*
Y478099D01*
X1081664Y477266D01*
X1079997D01*
X1079164Y478099D01*
X1087495Y477266D02*
X1084163D01*
X1087495Y480598D01*
Y481431D01*
X1086662Y482264D01*
X1084996D01*
X1084163Y481431D01*
X1075832Y507631D02*
Y502632D01*
X1078331D01*
X1079164Y503465D01*
Y506797D01*
X1078331Y507631D01*
X1075832D01*
X1080831Y506797D02*
X1081664Y507631D01*
X1083330D01*
X1084163Y506797D01*
Y505964D01*
X1083330Y505131D01*
X1082497D01*
X1083330D01*
X1084163Y504298D01*
Y503465D01*
X1083330Y502632D01*
X1081664D01*
X1080831Y503465D01*
X1085829Y502632D02*
X1087495D01*
X1086662D01*
Y507631D01*
X1085829Y506797D01*
X1074166Y532997D02*
Y527998D01*
X1076665D01*
X1077498Y528831D01*
Y532164D01*
X1076665Y532997D01*
X1074166D01*
X1079164Y532164D02*
X1079997Y532997D01*
X1081664D01*
X1082497Y532164D01*
Y531330D01*
X1081664Y530497D01*
X1080831D01*
X1081664D01*
X1082497Y529664D01*
Y528831D01*
X1081664Y527998D01*
X1079997D01*
X1079164Y528831D01*
X1084163Y532164D02*
X1084996Y532997D01*
X1086662D01*
X1087495Y532164D01*
Y528831D01*
X1086662Y527998D01*
X1084996D01*
X1084163Y528831D01*
Y532164D01*
X1074166Y558363D02*
Y553364D01*
X1076665D01*
X1077498Y554197D01*
Y557530D01*
X1076665Y558363D01*
X1074166D01*
X1082497Y553364D02*
X1079164D01*
X1082497Y556697D01*
Y557530D01*
X1081664Y558363D01*
X1079997D01*
X1079164Y557530D01*
X1084163Y554197D02*
X1084996Y553364D01*
X1086662D01*
X1087495Y554197D01*
Y557530D01*
X1086662Y558363D01*
X1084996D01*
X1084163Y557530D01*
Y556697D01*
X1084996Y555863D01*
X1087495D01*
X1074166Y583729D02*
Y578731D01*
X1076665D01*
X1077498Y579563D01*
Y582896D01*
X1076665Y583729D01*
X1074166D01*
X1082497Y578731D02*
X1079164D01*
X1082497Y582063D01*
Y582896D01*
X1081664Y583729D01*
X1079997D01*
X1079164Y582896D01*
X1084163D02*
X1084996Y583729D01*
X1086662D01*
X1087495Y582896D01*
Y582063D01*
X1086662Y581230D01*
X1087495Y580397D01*
Y579563D01*
X1086662Y578731D01*
X1084996D01*
X1084163Y579563D01*
Y580397D01*
X1084996Y581230D01*
X1084163Y582063D01*
Y582896D01*
X1084996Y581230D02*
X1086662D01*
X1074166Y609095D02*
Y604097D01*
X1076665D01*
X1077498Y604930D01*
Y608262D01*
X1076665Y609095D01*
X1074166D01*
X1082497Y604097D02*
X1079164D01*
X1082497Y607429D01*
Y608262D01*
X1081664Y609095D01*
X1079997D01*
X1079164Y608262D01*
X1084163Y609095D02*
X1087495D01*
Y608262D01*
X1084163Y604930D01*
Y604097D01*
X1074166Y634461D02*
Y629463D01*
X1076665D01*
X1077498Y630296D01*
Y633628D01*
X1076665Y634461D01*
X1074166D01*
X1082497Y629463D02*
X1079164D01*
X1082497Y632795D01*
Y633628D01*
X1081664Y634461D01*
X1079997D01*
X1079164Y633628D01*
X1087495Y634461D02*
X1085829Y633628D01*
X1084163Y631962D01*
Y630296D01*
X1084996Y629463D01*
X1086662D01*
X1087495Y630296D01*
Y631129D01*
X1086662Y631962D01*
X1084163D01*
X1074166Y659827D02*
Y654829D01*
X1076665D01*
X1077498Y655662D01*
Y658994D01*
X1076665Y659827D01*
X1074166D01*
X1082497Y654829D02*
X1079164D01*
X1082497Y658161D01*
Y658994D01*
X1081664Y659827D01*
X1079997D01*
X1079164Y658994D01*
X1087495Y659827D02*
X1084163D01*
Y657328D01*
X1085829Y658161D01*
X1086662D01*
X1087495Y657328D01*
Y655662D01*
X1086662Y654829D01*
X1084996D01*
X1084163Y655662D01*
X1074166Y685193D02*
Y680195D01*
X1076665D01*
X1077498Y681028D01*
Y684360D01*
X1076665Y685193D01*
X1074166D01*
X1082497Y680195D02*
X1079164D01*
X1082497Y683527D01*
Y684360D01*
X1081664Y685193D01*
X1079997D01*
X1079164Y684360D01*
X1086662Y680195D02*
Y685193D01*
X1084163Y682694D01*
X1087495D01*
X1074166Y710559D02*
Y705561D01*
X1076665D01*
X1077498Y706394D01*
Y709726D01*
X1076665Y710559D01*
X1074166D01*
X1082497Y705561D02*
X1079164D01*
X1082497Y708893D01*
Y709726D01*
X1081664Y710559D01*
X1079997D01*
X1079164Y709726D01*
X1084163D02*
X1084996Y710559D01*
X1086662D01*
X1087495Y709726D01*
Y708893D01*
X1086662Y708060D01*
X1085829D01*
X1086662D01*
X1087495Y707227D01*
Y706394D01*
X1086662Y705561D01*
X1084996D01*
X1084163Y706394D01*
X1074166Y735926D02*
Y730927D01*
X1076665D01*
X1077498Y731760D01*
Y735092D01*
X1076665Y735926D01*
X1074166D01*
X1082497Y730927D02*
X1079164D01*
X1082497Y734259D01*
Y735092D01*
X1081664Y735926D01*
X1079997D01*
X1079164Y735092D01*
X1087495Y730927D02*
X1084163D01*
X1087495Y734259D01*
Y735092D01*
X1086662Y735926D01*
X1084996D01*
X1084163Y735092D01*
X1075832Y761292D02*
Y756293D01*
X1078331D01*
X1079164Y757126D01*
Y760459D01*
X1078331Y761292D01*
X1075832D01*
X1084163Y756293D02*
X1080831D01*
X1084163Y759625D01*
Y760459D01*
X1083330Y761292D01*
X1081664D01*
X1080831Y760459D01*
X1085829Y756293D02*
X1087495D01*
X1086662D01*
Y761292D01*
X1085829Y760459D01*
X1074166Y786658D02*
Y781659D01*
X1076665D01*
X1077498Y782493D01*
Y785825D01*
X1076665Y786658D01*
X1074166D01*
X1082497Y781659D02*
X1079164D01*
X1082497Y784992D01*
Y785825D01*
X1081664Y786658D01*
X1079997D01*
X1079164Y785825D01*
X1084163D02*
X1084996Y786658D01*
X1086662D01*
X1087495Y785825D01*
Y782493D01*
X1086662Y781659D01*
X1084996D01*
X1084163Y782493D01*
Y785825D01*
X1074999Y812024D02*
Y807026D01*
X1077498D01*
X1078331Y807859D01*
Y811191D01*
X1077498Y812024D01*
X1074999D01*
X1079997Y807026D02*
X1081664D01*
X1080831D01*
Y812024D01*
X1079997Y811191D01*
X1084163Y807859D02*
X1084996Y807026D01*
X1086662D01*
X1087495Y807859D01*
Y811191D01*
X1086662Y812024D01*
X1084996D01*
X1084163Y811191D01*
Y810358D01*
X1084996Y809525D01*
X1087495D01*
X1074999Y837390D02*
Y832392D01*
X1077498D01*
X1078331Y833225D01*
Y836557D01*
X1077498Y837390D01*
X1074999D01*
X1079997Y832392D02*
X1081664D01*
X1080831D01*
Y837390D01*
X1079997Y836557D01*
X1084163D02*
X1084996Y837390D01*
X1086662D01*
X1087495Y836557D01*
Y835724D01*
X1086662Y834891D01*
X1087495Y834058D01*
Y833225D01*
X1086662Y832392D01*
X1084996D01*
X1084163Y833225D01*
Y834058D01*
X1084996Y834891D01*
X1084163Y835724D01*
Y836557D01*
X1084996Y834891D02*
X1086662D01*
X1074999Y862756D02*
Y857758D01*
X1077498D01*
X1078331Y858591D01*
Y861923D01*
X1077498Y862756D01*
X1074999D01*
X1079997Y857758D02*
X1081664D01*
X1080831D01*
Y862756D01*
X1079997Y861923D01*
X1084163Y862756D02*
X1087495D01*
Y861923D01*
X1084163Y858591D01*
Y857758D01*
X894410Y482264D02*
Y477266D01*
X896909D01*
X897742Y478099D01*
Y481431D01*
X896909Y482264D01*
X894410D01*
X899408Y477266D02*
X901075D01*
X900241D01*
Y482264D01*
X899408Y481431D01*
X906906Y482264D02*
X905240Y481431D01*
X903574Y479765D01*
Y478099D01*
X904407Y477266D01*
X906073D01*
X906906Y478099D01*
Y478932D01*
X906073Y479765D01*
X903574D01*
X894410Y507664D02*
Y502666D01*
X896909D01*
X897742Y503499D01*
Y506831D01*
X896909Y507664D01*
X894410D01*
X899408Y502666D02*
X901075D01*
X900241D01*
Y507664D01*
X899408Y506831D01*
X906906Y507664D02*
X903574D01*
Y505165D01*
X905240Y505998D01*
X906073D01*
X906906Y505165D01*
Y503499D01*
X906073Y502666D01*
X904407D01*
X903574Y503499D01*
X894410Y533064D02*
Y528066D01*
X896909D01*
X897742Y528899D01*
Y532231D01*
X896909Y533064D01*
X894410D01*
X899408Y528066D02*
X901075D01*
X900241D01*
Y533064D01*
X899408Y532231D01*
X906073Y528066D02*
Y533064D01*
X903574Y530565D01*
X906906D01*
X894410Y558464D02*
Y553466D01*
X896909D01*
X897742Y554299D01*
Y557631D01*
X896909Y558464D01*
X894410D01*
X899408Y553466D02*
X901075D01*
X900241D01*
Y558464D01*
X899408Y557631D01*
X903574D02*
X904407Y558464D01*
X906073D01*
X906906Y557631D01*
Y556798D01*
X906073Y555965D01*
X905240D01*
X906073D01*
X906906Y555132D01*
Y554299D01*
X906073Y553466D01*
X904407D01*
X903574Y554299D01*
X894410Y583864D02*
Y578866D01*
X896909D01*
X897742Y579699D01*
Y583031D01*
X896909Y583864D01*
X894410D01*
X899408Y578866D02*
X901075D01*
X900241D01*
Y583864D01*
X899408Y583031D01*
X906906Y578866D02*
X903574D01*
X906906Y582198D01*
Y583031D01*
X906073Y583864D01*
X904407D01*
X903574Y583031D01*
X894410Y609264D02*
Y604266D01*
X896909D01*
X897742Y605099D01*
Y608431D01*
X896909Y609264D01*
X894410D01*
X899408Y604266D02*
X901075D01*
X900241D01*
Y609264D01*
X899408Y608431D01*
X903574Y604266D02*
X905240D01*
X904407D01*
Y609264D01*
X903574Y608431D01*
X894410Y634664D02*
Y629666D01*
X896909D01*
X897742Y630499D01*
Y633831D01*
X896909Y634664D01*
X894410D01*
X899408Y629666D02*
X901075D01*
X900241D01*
Y634664D01*
X899408Y633831D01*
X903574D02*
X904407Y634664D01*
X906073D01*
X906906Y633831D01*
Y630499D01*
X906073Y629666D01*
X904407D01*
X903574Y630499D01*
Y633831D01*
X894410Y660064D02*
Y655066D01*
X896909D01*
X897742Y655899D01*
Y659231D01*
X896909Y660064D01*
X894410D01*
X899408Y655899D02*
X900241Y655066D01*
X901908D01*
X902741Y655899D01*
Y659231D01*
X901908Y660064D01*
X900241D01*
X899408Y659231D01*
Y658398D01*
X900241Y657565D01*
X902741D01*
X894410Y685464D02*
Y680466D01*
X896909D01*
X897742Y681299D01*
Y684631D01*
X896909Y685464D01*
X894410D01*
X899408Y684631D02*
X900241Y685464D01*
X901908D01*
X902741Y684631D01*
Y683798D01*
X901908Y682965D01*
X902741Y682132D01*
Y681299D01*
X901908Y680466D01*
X900241D01*
X899408Y681299D01*
Y682132D01*
X900241Y682965D01*
X899408Y683798D01*
Y684631D01*
X900241Y682965D02*
X901908D01*
X894410Y710864D02*
Y705866D01*
X896909D01*
X897742Y706699D01*
Y710031D01*
X896909Y710864D01*
X894410D01*
X899408D02*
X902741D01*
Y710031D01*
X899408Y706699D01*
Y705866D01*
X894410Y736264D02*
Y731266D01*
X896909D01*
X897742Y732099D01*
Y735431D01*
X896909Y736264D01*
X894410D01*
X902741D02*
X901075Y735431D01*
X899408Y733765D01*
Y732099D01*
X900241Y731266D01*
X901908D01*
X902741Y732099D01*
Y732932D01*
X901908Y733765D01*
X899408D01*
X894410Y761664D02*
Y756666D01*
X896909D01*
X897742Y757499D01*
Y760831D01*
X896909Y761664D01*
X894410D01*
X902741D02*
X899408D01*
Y759165D01*
X901075Y759998D01*
X901908D01*
X902741Y759165D01*
Y757499D01*
X901908Y756666D01*
X900241D01*
X899408Y757499D01*
X894410Y787064D02*
Y782066D01*
X896909D01*
X897742Y782899D01*
Y786231D01*
X896909Y787064D01*
X894410D01*
X901908Y782066D02*
Y787064D01*
X899408Y784565D01*
X902741D01*
X894410Y812464D02*
Y807466D01*
X896909D01*
X897742Y808299D01*
Y811631D01*
X896909Y812464D01*
X894410D01*
X899408Y811631D02*
X900241Y812464D01*
X901908D01*
X902741Y811631D01*
Y810798D01*
X901908Y809965D01*
X901075D01*
X901908D01*
X902741Y809132D01*
Y808299D01*
X901908Y807466D01*
X900241D01*
X899408Y808299D01*
X734060Y1194177D02*
Y1186180D01*
X738059D01*
X739392Y1187513D01*
Y1192844D01*
X738059Y1194177D01*
X734060D01*
X742057Y1192844D02*
X743390Y1194177D01*
X746056D01*
X747389Y1192844D01*
Y1191512D01*
X746056Y1190179D01*
X744723D01*
X746056D01*
X747389Y1188846D01*
Y1187513D01*
X746056Y1186180D01*
X743390D01*
X742057Y1187513D01*
X750055Y1192844D02*
X751388Y1194177D01*
X754054D01*
X755386Y1192844D01*
Y1191512D01*
X754054Y1190179D01*
X752721D01*
X754054D01*
X755386Y1188846D01*
Y1187513D01*
X754054Y1186180D01*
X751388D01*
X750055Y1187513D01*
X733806Y1173005D02*
Y1178003D01*
X736305D01*
X737138Y1177170D01*
Y1175504D01*
X736305Y1174671D01*
X733806D01*
X735472D02*
X737138Y1173005D01*
X738804Y1177170D02*
X739637Y1178003D01*
X741303D01*
X742137Y1177170D01*
Y1176337D01*
X741303Y1175504D01*
X740471D01*
X741303D01*
X742137Y1174671D01*
Y1173838D01*
X741303Y1173005D01*
X739637D01*
X738804Y1173838D01*
X743803Y1177170D02*
X744636Y1178003D01*
X746302D01*
X747135Y1177170D01*
Y1176337D01*
X746302Y1175504D01*
X745469D01*
X746302D01*
X747135Y1174671D01*
Y1173838D01*
X746302Y1173005D01*
X744636D01*
X743803Y1173838D01*
X840994Y948944D02*
X835996D01*
Y951443D01*
X836829Y952276D01*
X838495D01*
X839328Y951443D01*
Y948944D01*
Y950610D02*
X840994Y952276D01*
X836829Y953942D02*
X835996Y954775D01*
Y956441D01*
X836829Y957275D01*
X837662D01*
X838495Y956441D01*
X839328Y957275D01*
X840161D01*
X840994Y956441D01*
Y954775D01*
X840161Y953942D01*
X839328D01*
X838495Y954775D01*
X837662Y953942D01*
X836829D01*
X838495Y954775D02*
Y956441D01*
X828040Y949452D02*
X823042D01*
Y951951D01*
X823875Y952784D01*
X825541D01*
X826374Y951951D01*
Y949452D01*
Y951118D02*
X828040Y952784D01*
X823042Y954450D02*
Y957783D01*
X823875D01*
X827207Y954450D01*
X828040D01*
X815086Y949198D02*
X810088D01*
Y951697D01*
X810921Y952530D01*
X812587D01*
X813420Y951697D01*
Y949198D01*
Y950864D02*
X815086Y952530D01*
X810088Y957529D02*
X810921Y955863D01*
X812587Y954196D01*
X814253D01*
X815086Y955029D01*
Y956695D01*
X814253Y957529D01*
X813420D01*
X812587Y956695D01*
Y954196D01*
X802386Y948944D02*
X797388D01*
Y951443D01*
X798221Y952276D01*
X799887D01*
X800720Y951443D01*
Y948944D01*
Y950610D02*
X802386Y952276D01*
X797388Y957275D02*
Y953942D01*
X799887D01*
X799054Y955609D01*
Y956441D01*
X799887Y957275D01*
X801553D01*
X802386Y956441D01*
Y954775D01*
X801553Y953942D01*
X790194Y949198D02*
X785196D01*
Y951697D01*
X786029Y952530D01*
X787695D01*
X788528Y951697D01*
Y949198D01*
Y950864D02*
X790194Y952530D01*
Y956695D02*
X785196D01*
X787695Y954196D01*
Y957529D01*
X776986Y949198D02*
X771988D01*
Y951697D01*
X772821Y952530D01*
X774487D01*
X775320Y951697D01*
Y949198D01*
Y950864D02*
X776986Y952530D01*
X772821Y954196D02*
X771988Y955029D01*
Y956695D01*
X772821Y957529D01*
X773654D01*
X774487Y956695D01*
Y955863D01*
Y956695D01*
X775320Y957529D01*
X776153D01*
X776986Y956695D01*
Y955029D01*
X776153Y954196D01*
X764286Y948690D02*
X759288D01*
Y951189D01*
X760121Y952022D01*
X761787D01*
X762620Y951189D01*
Y948690D01*
Y950356D02*
X764286Y952022D01*
Y957021D02*
Y953688D01*
X760954Y957021D01*
X760121D01*
X759288Y956188D01*
Y954521D01*
X760121Y953688D01*
X762508Y1036828D02*
Y1041826D01*
X765007D01*
X765840Y1040993D01*
Y1039327D01*
X765007Y1038494D01*
X762508D01*
X764174D02*
X765840Y1036828D01*
X767506D02*
X769173D01*
X768339D01*
Y1041826D01*
X767506Y1040993D01*
X811682Y1050164D02*
X810349Y1051497D01*
X807683D01*
X806350Y1050164D01*
Y1044833D01*
X807683Y1043500D01*
X810349D01*
X811682Y1044833D01*
X814347Y1043500D02*
X817013D01*
X815680D01*
Y1051497D01*
X814347Y1050164D01*
X947672Y1057971D02*
X946339Y1059303D01*
X943673D01*
X942340Y1057971D01*
Y1052639D01*
X943673Y1051306D01*
X946339D01*
X947672Y1052639D01*
X955669Y1059303D02*
X950337D01*
Y1055305D01*
X953003Y1056638D01*
X954336D01*
X955669Y1055305D01*
Y1052639D01*
X954336Y1051306D01*
X951670D01*
X950337Y1052639D01*
X947164Y952053D02*
X945831Y953385D01*
X943165D01*
X941832Y952053D01*
Y946721D01*
X943165Y945388D01*
X945831D01*
X947164Y946721D01*
X955161Y953385D02*
X952495Y952053D01*
X949829Y949387D01*
Y946721D01*
X951162Y945388D01*
X953828D01*
X955161Y946721D01*
Y948054D01*
X953828Y949387D01*
X949829D01*
X1186992Y1048792D02*
X1185659Y1050125D01*
X1182993D01*
X1181660Y1048792D01*
Y1043461D01*
X1182993Y1042128D01*
X1185659D01*
X1186992Y1043461D01*
X1193656Y1042128D02*
Y1050125D01*
X1189657Y1046127D01*
X1194989D01*
X1139952Y1043940D02*
Y1048938D01*
X1142451D01*
X1143284Y1048105D01*
Y1046439D01*
X1142451Y1045606D01*
X1139952D01*
X1141618D02*
X1143284Y1043940D01*
X1144950D02*
X1146617D01*
X1145783D01*
Y1048938D01*
X1144950Y1048105D01*
X1149116Y1048938D02*
X1152448D01*
Y1048105D01*
X1149116Y1044773D01*
Y1043940D01*
X1215898Y945642D02*
X1210900D01*
Y948141D01*
X1211733Y948974D01*
X1213399D01*
X1214232Y948141D01*
Y945642D01*
Y947308D02*
X1215898Y948974D01*
Y953973D02*
Y950640D01*
X1212566Y953973D01*
X1211733D01*
X1210900Y953139D01*
Y951473D01*
X1211733Y950640D01*
X1215898Y958138D02*
X1210900D01*
X1213399Y955639D01*
Y958971D01*
X1203198Y945388D02*
X1198200D01*
Y947887D01*
X1199033Y948720D01*
X1200699D01*
X1201532Y947887D01*
Y945388D01*
Y947054D02*
X1203198Y948720D01*
Y953719D02*
Y950386D01*
X1199866Y953719D01*
X1199033D01*
X1198200Y952886D01*
Y951219D01*
X1199033Y950386D01*
Y955385D02*
X1198200Y956218D01*
Y957884D01*
X1199033Y958717D01*
X1199866D01*
X1200699Y957884D01*
Y957051D01*
Y957884D01*
X1201532Y958717D01*
X1202365D01*
X1203198Y957884D01*
Y956218D01*
X1202365Y955385D01*
X1189990Y946150D02*
X1184992D01*
Y948649D01*
X1185825Y949482D01*
X1187491D01*
X1188324Y948649D01*
Y946150D01*
Y947816D02*
X1189990Y949482D01*
Y954481D02*
Y951148D01*
X1186658Y954481D01*
X1185825D01*
X1184992Y953648D01*
Y951981D01*
X1185825Y951148D01*
X1189990Y959479D02*
Y956147D01*
X1186658Y959479D01*
X1185825D01*
X1184992Y958646D01*
Y956980D01*
X1185825Y956147D01*
X1177544Y947420D02*
X1172546D01*
Y949919D01*
X1173379Y950752D01*
X1175045D01*
X1175878Y949919D01*
Y947420D01*
Y949086D02*
X1177544Y950752D01*
Y955751D02*
Y952418D01*
X1174212Y955751D01*
X1173379D01*
X1172546Y954918D01*
Y953251D01*
X1173379Y952418D01*
X1177544Y957417D02*
Y959083D01*
Y958250D01*
X1172546D01*
X1173379Y957417D01*
X1164844Y946912D02*
X1159846D01*
Y949411D01*
X1160679Y950244D01*
X1162345D01*
X1163178Y949411D01*
Y946912D01*
Y948578D02*
X1164844Y950244D01*
Y955243D02*
Y951910D01*
X1161512Y955243D01*
X1160679D01*
X1159846Y954409D01*
Y952743D01*
X1160679Y951910D01*
Y956909D02*
X1159846Y957742D01*
Y959408D01*
X1160679Y960241D01*
X1164011D01*
X1164844Y959408D01*
Y957742D01*
X1164011Y956909D01*
X1160679D01*
X1152144Y946912D02*
X1147146D01*
Y949411D01*
X1147979Y950244D01*
X1149645D01*
X1150478Y949411D01*
Y946912D01*
Y948578D02*
X1152144Y950244D01*
Y951910D02*
Y953577D01*
Y952743D01*
X1147146D01*
X1147979Y951910D01*
X1151311Y956076D02*
X1152144Y956909D01*
Y958575D01*
X1151311Y959408D01*
X1147979D01*
X1147146Y958575D01*
Y956909D01*
X1147979Y956076D01*
X1148812D01*
X1149645Y956909D01*
Y959408D01*
X1138936Y946150D02*
X1133938D01*
Y948649D01*
X1134771Y949482D01*
X1136437D01*
X1137270Y948649D01*
Y946150D01*
Y947816D02*
X1138936Y949482D01*
Y951148D02*
Y952814D01*
Y951981D01*
X1133938D01*
X1134771Y951148D01*
Y955314D02*
X1133938Y956147D01*
Y957813D01*
X1134771Y958646D01*
X1135604D01*
X1136437Y957813D01*
X1137270Y958646D01*
X1138103D01*
X1138936Y957813D01*
Y956147D01*
X1138103Y955314D01*
X1137270D01*
X1136437Y956147D01*
X1135604Y955314D01*
X1134771D01*
X1136437Y956147D02*
Y957813D01*
X1228692Y391866D02*
X1223694D01*
Y394365D01*
X1224527Y395198D01*
X1226193D01*
X1227026Y394365D01*
Y391866D01*
Y393532D02*
X1228692Y395198D01*
Y400197D02*
Y396864D01*
X1225360Y400197D01*
X1224527D01*
X1223694Y399364D01*
Y397697D01*
X1224527Y396864D01*
X1223694Y405195D02*
X1224527Y403529D01*
X1226193Y401863D01*
X1227859D01*
X1228692Y402696D01*
Y404362D01*
X1227859Y405195D01*
X1227026D01*
X1226193Y404362D01*
Y401863D01*
X1215992Y391866D02*
X1210994D01*
Y394365D01*
X1211827Y395198D01*
X1213493D01*
X1214326Y394365D01*
Y391866D01*
Y393532D02*
X1215992Y395198D01*
Y400197D02*
Y396864D01*
X1212660Y400197D01*
X1211827D01*
X1210994Y399364D01*
Y397697D01*
X1211827Y396864D01*
X1210994Y401863D02*
Y405195D01*
X1211827D01*
X1215159Y401863D01*
X1215992D01*
X1203292Y391866D02*
X1198294D01*
Y394365D01*
X1199127Y395198D01*
X1200793D01*
X1201626Y394365D01*
Y391866D01*
Y393532D02*
X1203292Y395198D01*
Y400197D02*
Y396864D01*
X1199960Y400197D01*
X1199127D01*
X1198294Y399364D01*
Y397697D01*
X1199127Y396864D01*
Y401863D02*
X1198294Y402696D01*
Y404362D01*
X1199127Y405195D01*
X1199960D01*
X1200793Y404362D01*
X1201626Y405195D01*
X1202459D01*
X1203292Y404362D01*
Y402696D01*
X1202459Y401863D01*
X1201626D01*
X1200793Y402696D01*
X1199960Y401863D01*
X1199127D01*
X1200793Y402696D02*
Y404362D01*
X1190592Y391866D02*
X1185594D01*
Y394365D01*
X1186427Y395198D01*
X1188093D01*
X1188926Y394365D01*
Y391866D01*
Y393532D02*
X1190592Y395198D01*
Y400197D02*
Y396864D01*
X1187260Y400197D01*
X1186427D01*
X1185594Y399364D01*
Y397697D01*
X1186427Y396864D01*
X1189759Y401863D02*
X1190592Y402696D01*
Y404362D01*
X1189759Y405195D01*
X1186427D01*
X1185594Y404362D01*
Y402696D01*
X1186427Y401863D01*
X1187260D01*
X1188093Y402696D01*
Y405195D01*
X1177892Y391866D02*
X1172894D01*
Y394365D01*
X1173727Y395198D01*
X1175393D01*
X1176226Y394365D01*
Y391866D01*
Y393532D02*
X1177892Y395198D01*
X1173727Y396864D02*
X1172894Y397697D01*
Y399364D01*
X1173727Y400197D01*
X1174560D01*
X1175393Y399364D01*
Y398531D01*
Y399364D01*
X1176226Y400197D01*
X1177059D01*
X1177892Y399364D01*
Y397697D01*
X1177059Y396864D01*
X1173727Y401863D02*
X1172894Y402696D01*
Y404362D01*
X1173727Y405195D01*
X1177059D01*
X1177892Y404362D01*
Y402696D01*
X1177059Y401863D01*
X1173727D01*
X1165192Y391866D02*
X1160194D01*
Y394365D01*
X1161027Y395198D01*
X1162693D01*
X1163526Y394365D01*
Y391866D01*
Y393532D02*
X1165192Y395198D01*
X1161027Y396864D02*
X1160194Y397697D01*
Y399364D01*
X1161027Y400197D01*
X1161860D01*
X1162693Y399364D01*
Y398531D01*
Y399364D01*
X1163526Y400197D01*
X1164359D01*
X1165192Y399364D01*
Y397697D01*
X1164359Y396864D01*
X1165192Y401863D02*
Y403529D01*
Y402696D01*
X1160194D01*
X1161027Y401863D01*
X1152492Y391866D02*
X1147494D01*
Y394365D01*
X1148327Y395198D01*
X1149993D01*
X1150826Y394365D01*
Y391866D01*
Y393532D02*
X1152492Y395198D01*
X1148327Y396864D02*
X1147494Y397697D01*
Y399364D01*
X1148327Y400197D01*
X1149160D01*
X1149993Y399364D01*
Y398531D01*
Y399364D01*
X1150826Y400197D01*
X1151659D01*
X1152492Y399364D01*
Y397697D01*
X1151659Y396864D01*
X1152492Y405195D02*
Y401863D01*
X1149160Y405195D01*
X1148327D01*
X1147494Y404362D01*
Y402696D01*
X1148327Y401863D01*
X1210056Y303530D02*
Y308528D01*
X1212555D01*
X1213388Y307695D01*
Y306029D01*
X1212555Y305196D01*
X1210056D01*
X1211722D02*
X1213388Y303530D01*
X1218387D02*
X1215054D01*
X1218387Y306862D01*
Y307695D01*
X1217553Y308528D01*
X1215887D01*
X1215054Y307695D01*
X1223385Y308528D02*
X1220053D01*
Y306029D01*
X1221719Y306862D01*
X1222552D01*
X1223385Y306029D01*
Y304363D01*
X1222552Y303530D01*
X1220886D01*
X1220053Y304363D01*
X1170684Y305623D02*
X1169351Y306955D01*
X1166685D01*
X1165352Y305623D01*
Y300291D01*
X1166685Y298958D01*
X1169351D01*
X1170684Y300291D01*
X1173349Y305623D02*
X1174682Y306955D01*
X1177348D01*
X1178681Y305623D01*
Y304290D01*
X1177348Y302957D01*
X1176015D01*
X1177348D01*
X1178681Y301624D01*
Y300291D01*
X1177348Y298958D01*
X1174682D01*
X1173349Y300291D01*
X853440Y394716D02*
X848442D01*
Y397215D01*
X849275Y398048D01*
X850941D01*
X851774Y397215D01*
Y394716D01*
Y396382D02*
X853440Y398048D01*
Y399714D02*
Y401381D01*
Y400547D01*
X848442D01*
X849275Y399714D01*
Y403880D02*
X848442Y404713D01*
Y406379D01*
X849275Y407212D01*
X852607D01*
X853440Y406379D01*
Y404713D01*
X852607Y403880D01*
X849275D01*
X840740Y394934D02*
X835742D01*
Y397433D01*
X836575Y398266D01*
X838241D01*
X839074Y397433D01*
Y394934D01*
Y396600D02*
X840740Y398266D01*
Y399932D02*
Y401599D01*
Y400765D01*
X835742D01*
X836575Y399932D01*
X840740Y404098D02*
Y405764D01*
Y404931D01*
X835742D01*
X836575Y404098D01*
X828040Y394934D02*
X823042D01*
Y397433D01*
X823875Y398266D01*
X825541D01*
X826374Y397433D01*
Y394934D01*
Y396600D02*
X828040Y398266D01*
Y399932D02*
Y401599D01*
Y400765D01*
X823042D01*
X823875Y399932D01*
X828040Y407430D02*
Y404098D01*
X824708Y407430D01*
X823875D01*
X823042Y406597D01*
Y404931D01*
X823875Y404098D01*
X815340Y394934D02*
X810342D01*
Y397433D01*
X811175Y398266D01*
X812841D01*
X813674Y397433D01*
Y394934D01*
Y396600D02*
X815340Y398266D01*
Y399932D02*
Y401599D01*
Y400765D01*
X810342D01*
X811175Y399932D01*
Y404098D02*
X810342Y404931D01*
Y406597D01*
X811175Y407430D01*
X812008D01*
X812841Y406597D01*
Y405764D01*
Y406597D01*
X813674Y407430D01*
X814507D01*
X815340Y406597D01*
Y404931D01*
X814507Y404098D01*
X802640Y394934D02*
X797642D01*
Y397433D01*
X798475Y398266D01*
X800141D01*
X800974Y397433D01*
Y394934D01*
Y396600D02*
X802640Y398266D01*
Y399932D02*
Y401599D01*
Y400765D01*
X797642D01*
X798475Y399932D01*
X802640Y406597D02*
X797642D01*
X800141Y404098D01*
Y407430D01*
X789940Y394934D02*
X784942D01*
Y397433D01*
X785775Y398266D01*
X787441D01*
X788274Y397433D01*
Y394934D01*
Y396600D02*
X789940Y398266D01*
Y399932D02*
Y401599D01*
Y400765D01*
X784942D01*
X785775Y399932D01*
X784942Y407430D02*
Y404098D01*
X787441D01*
X786608Y405764D01*
Y406597D01*
X787441Y407430D01*
X789107D01*
X789940Y406597D01*
Y404931D01*
X789107Y404098D01*
X777240Y394934D02*
X772242D01*
Y397433D01*
X773075Y398266D01*
X774741D01*
X775574Y397433D01*
Y394934D01*
Y396600D02*
X777240Y398266D01*
Y399932D02*
Y401599D01*
Y400765D01*
X772242D01*
X773075Y399932D01*
X772242Y407430D02*
X773075Y405764D01*
X774741Y404098D01*
X776407D01*
X777240Y404931D01*
Y406597D01*
X776407Y407430D01*
X775574D01*
X774741Y406597D01*
Y404098D01*
X783334Y304860D02*
X782001Y306193D01*
X779335D01*
X778002Y304860D01*
Y299529D01*
X779335Y298196D01*
X782001D01*
X783334Y299529D01*
X791331Y298196D02*
X785999D01*
X791331Y303528D01*
Y304860D01*
X789998Y306193D01*
X787332D01*
X785999Y304860D01*
X840740Y302768D02*
X835742D01*
Y305267D01*
X836575Y306100D01*
X838241D01*
X839074Y305267D01*
Y302768D01*
Y304434D02*
X840740Y306100D01*
X839907Y307766D02*
X840740Y308599D01*
Y310266D01*
X839907Y311099D01*
X836575D01*
X835742Y310266D01*
Y308599D01*
X836575Y307766D01*
X837408D01*
X838241Y308599D01*
Y311099D01*
X894410Y863264D02*
Y858266D01*
X896909D01*
X897742Y859099D01*
Y862431D01*
X896909Y863264D01*
X894410D01*
X899408Y858266D02*
X901075D01*
X900241D01*
Y863264D01*
X899408Y862431D01*
X894410Y837864D02*
Y832866D01*
X896909D01*
X897742Y833699D01*
Y837031D01*
X896909Y837864D01*
X894410D01*
X902741Y832866D02*
X899408D01*
X902741Y836198D01*
Y837031D01*
X901908Y837864D01*
X900241D01*
X899408Y837031D01*
D14*
X750347Y889000D02*
G03*
X750347Y889000I-1047J0D01*
G01*
D15*
X1252589Y255714D02*
X1254705Y257407D01*
X1257244Y261851D02*
X1257667Y264390D01*
X854162Y914400D02*
X879553Y939791D01*
X1232276Y914400D02*
X1247722D01*
X724667Y264390D02*
X725090Y261851D01*
X724667Y899165D02*
X739902Y914400D01*
X1254705Y911438D02*
X1256398Y909322D01*
X1250262Y913977D02*
X1252589Y913130D01*
X1254705Y257407D02*
X1256398Y259523D01*
X726148D02*
X727630Y257407D01*
X1247722Y914400D02*
X1250262Y913977D01*
X1206885Y939791D02*
X1232276Y914400D01*
X1250262Y254868D02*
X1252589Y255714D01*
X1257667Y264390D02*
Y904455D01*
X724667Y264390D02*
Y899165D01*
X739902Y914400D02*
X854162D01*
X1247722Y254445D02*
X1250262Y254868D01*
X729745Y255714D02*
X732073Y254868D01*
X1252589Y913130D02*
X1254705Y911438D01*
X734824Y254445D02*
X1247722D01*
X727630Y257407D02*
X729745Y255714D01*
X725090Y261851D02*
X726148Y259523D01*
X1257244Y906994D02*
X1257667Y904455D01*
X732073Y254868D02*
X734824Y254445D01*
X1256398Y259523D02*
X1257244Y261851D01*
X1256398Y909322D02*
X1257244Y906994D01*
X879553Y939791D02*
X1206885D01*
D16*
X963930Y1012439D02*
Y999743D01*
X966469Y997204D01*
X971547D01*
X974087Y999743D01*
Y1012439D01*
X989322D02*
X979165D01*
Y1004821D01*
X984243Y1007361D01*
X986783D01*
X989322Y1004821D01*
Y999743D01*
X986783Y997204D01*
X981704D01*
X979165Y999743D01*
D17*
X986657Y1178742D02*
X979993D01*
X983325D01*
Y1162080D01*
X979993Y1158748D01*
X976660D01*
X973328Y1162080D01*
X993322Y1158748D02*
X999986D01*
X996654D01*
Y1178742D01*
X993322Y1175409D01*
D18*
X1000710Y1000760D02*
D03*
D19*
X940210Y977960D02*
D03*
Y1023560D02*
D03*
D20*
X762000Y971550D02*
D03*
X774700D02*
D03*
X787400D02*
D03*
X800100D02*
D03*
X812800D02*
D03*
X825500D02*
D03*
X838200D02*
D03*
X850900D02*
D03*
X762000Y1022550D02*
D03*
X774700D02*
D03*
X787400D02*
D03*
X800100D02*
D03*
X812800D02*
D03*
X825500D02*
D03*
X838200D02*
D03*
X850900D02*
D03*
X762000Y328476D02*
D03*
X774700D02*
D03*
X787400D02*
D03*
X800100D02*
D03*
X812800D02*
D03*
X825500D02*
D03*
X838200D02*
D03*
X850900D02*
D03*
X762000Y379476D02*
D03*
X774700D02*
D03*
X787400D02*
D03*
X800100D02*
D03*
X812800D02*
D03*
X825500D02*
D03*
X838200D02*
D03*
X850900D02*
D03*
X1137158Y971350D02*
D03*
X1149858D02*
D03*
X1162558D02*
D03*
X1175258D02*
D03*
X1187958D02*
D03*
X1200658D02*
D03*
X1213358D02*
D03*
X1226058D02*
D03*
X1137158Y1022350D02*
D03*
X1149858D02*
D03*
X1162558D02*
D03*
X1175258D02*
D03*
X1187958D02*
D03*
X1200658D02*
D03*
X1213358D02*
D03*
X1226058D02*
D03*
X1137158Y328476D02*
D03*
X1149858D02*
D03*
X1162558D02*
D03*
X1175258D02*
D03*
X1187958D02*
D03*
X1200658D02*
D03*
X1213358D02*
D03*
X1226058D02*
D03*
X1137158Y379476D02*
D03*
X1149858D02*
D03*
X1162558D02*
D03*
X1175258D02*
D03*
X1187958D02*
D03*
X1200658D02*
D03*
X1213358D02*
D03*
X1226058D02*
D03*
D21*
X1085596Y480060D02*
D03*
X1076096D02*
D03*
Y505460D02*
D03*
X1085596D02*
D03*
Y530860D02*
D03*
X1076096D02*
D03*
Y556260D02*
D03*
X1085596D02*
D03*
Y581660D02*
D03*
X1076096D02*
D03*
Y607060D02*
D03*
X1085596D02*
D03*
Y632460D02*
D03*
X1076096D02*
D03*
Y657860D02*
D03*
X1085596D02*
D03*
Y683260D02*
D03*
X1076096D02*
D03*
Y708660D02*
D03*
X1085596D02*
D03*
Y734060D02*
D03*
X1076096D02*
D03*
Y759460D02*
D03*
X1085596D02*
D03*
Y784860D02*
D03*
X1076096D02*
D03*
Y810260D02*
D03*
X1085596D02*
D03*
Y835660D02*
D03*
X1076096D02*
D03*
Y861060D02*
D03*
X1085596D02*
D03*
X895756Y480060D02*
D03*
X905256D02*
D03*
Y505460D02*
D03*
X895756D02*
D03*
Y530860D02*
D03*
X905256D02*
D03*
Y556260D02*
D03*
X895756D02*
D03*
Y581660D02*
D03*
X905256D02*
D03*
Y607060D02*
D03*
X895756D02*
D03*
Y632460D02*
D03*
X905256D02*
D03*
Y657860D02*
D03*
X895756D02*
D03*
Y683260D02*
D03*
X905256D02*
D03*
Y708660D02*
D03*
X895756D02*
D03*
Y734060D02*
D03*
X905256D02*
D03*
Y759460D02*
D03*
X895756D02*
D03*
Y784860D02*
D03*
X905256D02*
D03*
Y810260D02*
D03*
X895756D02*
D03*
X745160Y1189990D02*
D03*
X735660D02*
D03*
X895756Y861060D02*
D03*
X905256D02*
D03*
Y835660D02*
D03*
X895756D02*
D03*
D22*
X743910Y1175545D02*
D03*
X736910D02*
D03*
X762300Y1038860D02*
D03*
X769300D02*
D03*
X1142858Y1046480D02*
D03*
X1149858D02*
D03*
X1220160Y306070D02*
D03*
X1213160D02*
D03*
D23*
X838200Y956000D02*
D03*
Y949000D02*
D03*
X825500D02*
D03*
Y956000D02*
D03*
X812800D02*
D03*
Y949000D02*
D03*
X800100D02*
D03*
Y956000D02*
D03*
X787400D02*
D03*
Y949000D02*
D03*
X774700D02*
D03*
Y956000D02*
D03*
X762000D02*
D03*
Y949000D02*
D03*
X1213678Y956549D02*
D03*
Y949549D02*
D03*
X1200658D02*
D03*
Y956549D02*
D03*
X1187770D02*
D03*
Y949549D02*
D03*
X1175258D02*
D03*
Y956549D02*
D03*
X1162370D02*
D03*
Y949549D02*
D03*
X1149858D02*
D03*
Y956549D02*
D03*
X1136970D02*
D03*
Y949549D02*
D03*
X1226152Y394970D02*
D03*
Y401970D02*
D03*
X1213452D02*
D03*
Y394970D02*
D03*
X1200752D02*
D03*
Y401970D02*
D03*
X1188052D02*
D03*
Y394970D02*
D03*
X1175352D02*
D03*
Y401970D02*
D03*
X1162652D02*
D03*
Y394970D02*
D03*
X1149952D02*
D03*
Y401970D02*
D03*
X850900Y397820D02*
D03*
Y404820D02*
D03*
X838200Y405038D02*
D03*
Y398038D02*
D03*
X825500D02*
D03*
Y405038D02*
D03*
X812800D02*
D03*
Y398038D02*
D03*
X800100D02*
D03*
Y405038D02*
D03*
X787400Y405038D02*
D03*
Y398038D02*
D03*
X774700Y398038D02*
D03*
Y405038D02*
D03*
X838200Y303840D02*
D03*
Y310840D02*
D03*
D24*
X800100Y1047750D02*
D03*
X819100D02*
D03*
X958850Y1056640D02*
D03*
X939850D02*
D03*
X958190Y944880D02*
D03*
X939190D02*
D03*
X1175410Y1046378D02*
D03*
X1194410D02*
D03*
X1180440Y302260D02*
D03*
X1161440D02*
D03*
X793090D02*
D03*
X774090D02*
D03*
D39*
X939750Y1098500D02*
D03*
X1033750D02*
D03*
X920750Y1193800D02*
D03*
X1052750D02*
D03*
X986750Y1098500D02*
D03*
D40*
X812800Y1114750D02*
D03*
D41*
Y1174750D02*
D03*
D42*
X765800Y1144750D02*
D03*
D43*
X1231900Y762000D02*
D03*
Y787400D02*
D03*
Y812800D02*
D03*
Y838200D02*
D03*
Y863600D02*
D03*
Y889000D02*
D03*
X749300D02*
D03*
Y863600D02*
D03*
Y838200D02*
D03*
Y812800D02*
D03*
Y787400D02*
D03*
Y762000D02*
D03*
Y736600D02*
D03*
Y711200D02*
D03*
Y619760D02*
D03*
Y441960D02*
D03*
Y467360D02*
D03*
Y492760D02*
D03*
Y518160D02*
D03*
Y543560D02*
D03*
Y568960D02*
D03*
Y594360D02*
D03*
Y645160D02*
D03*
Y670560D02*
D03*
X1231900Y533400D02*
D03*
Y558800D02*
D03*
Y584200D02*
D03*
Y609600D02*
D03*
Y635000D02*
D03*
Y660400D02*
D03*
Y685800D02*
D03*
Y711200D02*
D03*
D44*
X1080770Y645160D02*
D03*
Y619760D02*
D03*
Y594360D02*
D03*
Y568960D02*
D03*
Y543560D02*
D03*
Y518160D02*
D03*
Y492760D02*
D03*
Y467360D02*
D03*
X900430D02*
D03*
Y492760D02*
D03*
Y518160D02*
D03*
Y543560D02*
D03*
Y568960D02*
D03*
Y594360D02*
D03*
Y619760D02*
D03*
Y645160D02*
D03*
Y848360D02*
D03*
Y873760D02*
D03*
Y822960D02*
D03*
Y797560D02*
D03*
Y772160D02*
D03*
Y746760D02*
D03*
Y721360D02*
D03*
Y695960D02*
D03*
Y670560D02*
D03*
X1080770D02*
D03*
Y695960D02*
D03*
Y721360D02*
D03*
Y746760D02*
D03*
Y772160D02*
D03*
Y797560D02*
D03*
Y822960D02*
D03*
Y873760D02*
D03*
Y848360D02*
D03*
M02*
