G04*
G04 #@! TF.GenerationSoftware,Altium Limited,Altium Designer,18.1.7 (191)*
G04*
G04 Layer_Color=8388736*
%FSLAX44Y44*%
%MOMM*%
G71*
G01*
G75*
%ADD21R,0.9400X0.6400*%
%ADD22R,0.6400X0.9400*%
%ADD23R,0.6400X0.7400*%
%ADD24R,0.3400X0.5400*%
%ADD25O,1.1400X0.5500*%
%ADD26R,1.1400X0.5500*%
G04:AMPARAMS|DCode=27|XSize=14.2mm|YSize=1.4mm|CornerRadius=0.7mm|HoleSize=0mm|Usage=FLASHONLY|Rotation=0.000|XOffset=0mm|YOffset=0mm|HoleType=Round|Shape=RoundedRectangle|*
%AMROUNDEDRECTD27*
21,1,14.2000,0.0000,0,0,0.0*
21,1,12.8000,1.4000,0,0,0.0*
1,1,1.4000,6.4000,0.0000*
1,1,1.4000,-6.4000,0.0000*
1,1,1.4000,-6.4000,0.0000*
1,1,1.4000,6.4000,0.0000*
%
%ADD27ROUNDEDRECTD27*%
%ADD28O,1.8000X2.2000*%
%ADD29R,1.8000X2.2000*%
D21*
X1238250Y552990D02*
D03*
Y537990D02*
D03*
X1303020Y800830D02*
D03*
Y815830D02*
D03*
D22*
X1290846Y988060D02*
D03*
X1305846D02*
D03*
X787280Y758190D02*
D03*
X772280D02*
D03*
X784218Y900430D02*
D03*
X799218D02*
D03*
D23*
X922350Y965200D02*
D03*
X931850D02*
D03*
X922350Y939800D02*
D03*
X931850D02*
D03*
X922350Y914400D02*
D03*
X931850D02*
D03*
X922350Y889000D02*
D03*
X931850D02*
D03*
X922350Y863600D02*
D03*
X931850D02*
D03*
X922350Y838200D02*
D03*
X931850D02*
D03*
X922350Y812800D02*
D03*
X931850D02*
D03*
X922350Y787400D02*
D03*
X931850D02*
D03*
X922350Y762000D02*
D03*
X931850D02*
D03*
X922350Y736600D02*
D03*
X931850D02*
D03*
X922350Y711200D02*
D03*
X931850D02*
D03*
X922350Y685800D02*
D03*
X931850D02*
D03*
X922350Y660400D02*
D03*
X931850D02*
D03*
X922350Y635000D02*
D03*
X931850D02*
D03*
X922350Y609600D02*
D03*
X931850D02*
D03*
X922350Y584200D02*
D03*
X931850D02*
D03*
X922350Y558800D02*
D03*
X931850D02*
D03*
X1112190Y965200D02*
D03*
X1102690D02*
D03*
X1112190Y939800D02*
D03*
X1102690D02*
D03*
X1112190Y914400D02*
D03*
X1102690D02*
D03*
X1112190Y889000D02*
D03*
X1102690D02*
D03*
X1112190Y863600D02*
D03*
X1102690D02*
D03*
X1112190Y838200D02*
D03*
X1102690D02*
D03*
X1112190Y812800D02*
D03*
X1102690D02*
D03*
X1112190Y787400D02*
D03*
X1102690D02*
D03*
X1112190Y762000D02*
D03*
X1102690D02*
D03*
X1112190Y736600D02*
D03*
X1102690D02*
D03*
X1112190Y711200D02*
D03*
X1102690D02*
D03*
X1112190Y685800D02*
D03*
X1102690D02*
D03*
X1112190Y660400D02*
D03*
X1102690D02*
D03*
X1112190Y635000D02*
D03*
X1102690D02*
D03*
X1112190Y609600D02*
D03*
X1102690D02*
D03*
X1112190Y584200D02*
D03*
X1102690D02*
D03*
X1112190Y558800D02*
D03*
X1102690D02*
D03*
D24*
X822000Y965200D02*
D03*
X829000D02*
D03*
X822000Y939800D02*
D03*
X829000D02*
D03*
X822000Y914400D02*
D03*
X829000D02*
D03*
X822000Y889000D02*
D03*
X829000D02*
D03*
X822000Y863600D02*
D03*
X829000D02*
D03*
X822000Y838200D02*
D03*
X829000D02*
D03*
X822000Y812800D02*
D03*
X829000D02*
D03*
X822000Y787400D02*
D03*
X829000D02*
D03*
X822000Y762000D02*
D03*
X829000D02*
D03*
X822000Y736600D02*
D03*
X829000D02*
D03*
X822000Y711200D02*
D03*
X829000D02*
D03*
X822000Y685800D02*
D03*
X829000D02*
D03*
X822000Y660400D02*
D03*
X829000D02*
D03*
X822000Y635000D02*
D03*
X829000D02*
D03*
X822000Y609600D02*
D03*
X829000D02*
D03*
X822000Y584200D02*
D03*
X829000D02*
D03*
X822000Y558800D02*
D03*
X829000D02*
D03*
X1210000Y965200D02*
D03*
X1203000D02*
D03*
X1210000Y939800D02*
D03*
X1203000D02*
D03*
X1210000Y914400D02*
D03*
X1203000D02*
D03*
X1210000Y889000D02*
D03*
X1203000D02*
D03*
X1210000Y863600D02*
D03*
X1203000D02*
D03*
X1210000Y838200D02*
D03*
X1203000D02*
D03*
X1210000Y812800D02*
D03*
X1203000D02*
D03*
X1210000Y787400D02*
D03*
X1203000D02*
D03*
X1210000Y762000D02*
D03*
X1203000D02*
D03*
X1210000Y736600D02*
D03*
X1203000D02*
D03*
X1210000Y711200D02*
D03*
X1203000D02*
D03*
X1210000Y685800D02*
D03*
X1203000D02*
D03*
X1210000Y660400D02*
D03*
X1203000D02*
D03*
X1210000Y635000D02*
D03*
X1203000D02*
D03*
X1210000Y609600D02*
D03*
X1203000D02*
D03*
X1210000Y584200D02*
D03*
X1203000D02*
D03*
X1210000Y558800D02*
D03*
X1203000D02*
D03*
D25*
X787600Y647700D02*
D03*
Y660400D02*
D03*
Y673100D02*
D03*
Y685800D02*
D03*
Y698500D02*
D03*
Y711200D02*
D03*
Y723900D02*
D03*
Y736600D02*
D03*
X736600Y647700D02*
D03*
Y660400D02*
D03*
Y673100D02*
D03*
Y685800D02*
D03*
Y698500D02*
D03*
Y711200D02*
D03*
Y723900D02*
D03*
X1308300Y876300D02*
D03*
Y889000D02*
D03*
Y901700D02*
D03*
Y914400D02*
D03*
Y927100D02*
D03*
Y939800D02*
D03*
Y952500D02*
D03*
Y965200D02*
D03*
X1257300Y876300D02*
D03*
Y889000D02*
D03*
Y901700D02*
D03*
Y914400D02*
D03*
Y927100D02*
D03*
Y939800D02*
D03*
Y952500D02*
D03*
X1308300Y685800D02*
D03*
Y698500D02*
D03*
Y711200D02*
D03*
Y723900D02*
D03*
Y736600D02*
D03*
Y749300D02*
D03*
Y762000D02*
D03*
Y774700D02*
D03*
X1257300Y685800D02*
D03*
Y698500D02*
D03*
Y711200D02*
D03*
Y723900D02*
D03*
Y736600D02*
D03*
Y749300D02*
D03*
Y762000D02*
D03*
Y643890D02*
D03*
Y631190D02*
D03*
Y618490D02*
D03*
Y605790D02*
D03*
Y593090D02*
D03*
Y580390D02*
D03*
Y567690D02*
D03*
Y554990D02*
D03*
X1308300Y643890D02*
D03*
Y631190D02*
D03*
Y618490D02*
D03*
Y605790D02*
D03*
Y593090D02*
D03*
Y580390D02*
D03*
Y567690D02*
D03*
X787600Y787400D02*
D03*
Y800100D02*
D03*
Y812800D02*
D03*
Y825500D02*
D03*
Y838200D02*
D03*
Y850900D02*
D03*
Y863600D02*
D03*
Y876300D02*
D03*
X736600Y787400D02*
D03*
Y800100D02*
D03*
Y812800D02*
D03*
Y825500D02*
D03*
Y838200D02*
D03*
Y850900D02*
D03*
Y863600D02*
D03*
D26*
Y736600D02*
D03*
X1257300Y965200D02*
D03*
Y774700D02*
D03*
X1308300Y554990D02*
D03*
X736600Y876300D02*
D03*
D27*
X1107440Y952500D02*
D03*
Y977900D02*
D03*
Y927100D02*
D03*
Y901700D02*
D03*
Y876300D02*
D03*
Y850900D02*
D03*
Y825500D02*
D03*
Y800100D02*
D03*
Y774700D02*
D03*
Y749300D02*
D03*
Y723900D02*
D03*
Y698500D02*
D03*
Y673100D02*
D03*
Y647700D02*
D03*
Y622300D02*
D03*
Y596900D02*
D03*
X927100D02*
D03*
Y622300D02*
D03*
Y647700D02*
D03*
Y673100D02*
D03*
Y698500D02*
D03*
Y723900D02*
D03*
Y749300D02*
D03*
Y774700D02*
D03*
Y800100D02*
D03*
Y825500D02*
D03*
Y850900D02*
D03*
Y876300D02*
D03*
Y901700D02*
D03*
Y927100D02*
D03*
Y977900D02*
D03*
Y952500D02*
D03*
Y571500D02*
D03*
Y546100D02*
D03*
X1107440D02*
D03*
Y571500D02*
D03*
D28*
X965200Y469900D02*
D03*
X990600D02*
D03*
X1016000D02*
D03*
X1041400D02*
D03*
D29*
X1066800D02*
D03*
M02*
