G04*
G04 #@! TF.GenerationSoftware,Altium Limited,Altium Designer,19.0.14 (431)*
G04*
G04 Layer_Color=32896*
%FSLAX44Y44*%
%MOMM*%
G71*
G01*
G75*
%ADD10C,0.2000*%
D10*
X1248696Y1193895D02*
Y1183897D01*
Y1193895D02*
X1244411D01*
X1242983Y1193419D01*
X1242507Y1192943D01*
X1242031Y1191990D01*
Y1191038D01*
X1242507Y1190086D01*
X1242983Y1189610D01*
X1244411Y1189134D01*
X1248696D01*
X1245363D02*
X1242031Y1183897D01*
X1239793Y1187706D02*
X1234080D01*
Y1188658D01*
X1234556Y1189610D01*
X1235032Y1190086D01*
X1235984Y1190562D01*
X1237413D01*
X1238365Y1190086D01*
X1239317Y1189134D01*
X1239793Y1187706D01*
Y1186753D01*
X1239317Y1185325D01*
X1238365Y1184373D01*
X1237413Y1183897D01*
X1235984D01*
X1235032Y1184373D01*
X1234080Y1185325D01*
X1230509Y1193895D02*
Y1185801D01*
X1230033Y1184373D01*
X1229081Y1183897D01*
X1228129D01*
X1231938Y1190562D02*
X1228605D01*
X1226701D02*
Y1183897D01*
Y1187706D02*
X1226225Y1189134D01*
X1225273Y1190086D01*
X1224320Y1190562D01*
X1222892D01*
X1219607D02*
X1220559Y1190086D01*
X1221511Y1189134D01*
X1221987Y1187706D01*
Y1186753D01*
X1221511Y1185325D01*
X1220559Y1184373D01*
X1219607Y1183897D01*
X1218179D01*
X1217226Y1184373D01*
X1216274Y1185325D01*
X1215798Y1186753D01*
Y1187706D01*
X1216274Y1189134D01*
X1217226Y1190086D01*
X1218179Y1190562D01*
X1219607D01*
X1213608Y1193895D02*
Y1183897D01*
Y1193895D02*
X1209324D01*
X1207895Y1193419D01*
X1207419Y1192943D01*
X1206943Y1191990D01*
Y1191038D01*
X1207419Y1190086D01*
X1207895Y1189610D01*
X1209324Y1189134D01*
X1213608D02*
X1209324D01*
X1207895Y1188658D01*
X1207419Y1188182D01*
X1206943Y1187230D01*
Y1185801D01*
X1207419Y1184849D01*
X1207895Y1184373D01*
X1209324Y1183897D01*
X1213608D01*
X1204705Y1190562D02*
Y1183897D01*
Y1187706D02*
X1204229Y1189134D01*
X1203277Y1190086D01*
X1202325Y1190562D01*
X1200897D01*
X1199992Y1187706D02*
X1194279D01*
Y1188658D01*
X1194755Y1189610D01*
X1195231Y1190086D01*
X1196183Y1190562D01*
X1197612D01*
X1198564Y1190086D01*
X1199516Y1189134D01*
X1199992Y1187706D01*
Y1186753D01*
X1199516Y1185325D01*
X1198564Y1184373D01*
X1197612Y1183897D01*
X1196183D01*
X1195231Y1184373D01*
X1194279Y1185325D01*
X1186424Y1190562D02*
Y1183897D01*
Y1189134D02*
X1187376Y1190086D01*
X1188328Y1190562D01*
X1189756D01*
X1190708Y1190086D01*
X1191661Y1189134D01*
X1192137Y1187706D01*
Y1186753D01*
X1191661Y1185325D01*
X1190708Y1184373D01*
X1189756Y1183897D01*
X1188328D01*
X1187376Y1184373D01*
X1186424Y1185325D01*
X1178045Y1193895D02*
Y1183897D01*
Y1189134D02*
X1178997Y1190086D01*
X1179949Y1190562D01*
X1181377D01*
X1182329Y1190086D01*
X1183281Y1189134D01*
X1183758Y1187706D01*
Y1186753D01*
X1183281Y1185325D01*
X1182329Y1184373D01*
X1181377Y1183897D01*
X1179949D01*
X1178997Y1184373D01*
X1178045Y1185325D01*
X1175378Y1193895D02*
Y1183897D01*
Y1189134D02*
X1174426Y1190086D01*
X1173474Y1190562D01*
X1172046D01*
X1171094Y1190086D01*
X1170141Y1189134D01*
X1169665Y1187706D01*
Y1186753D01*
X1170141Y1185325D01*
X1171094Y1184373D01*
X1172046Y1183897D01*
X1173474D01*
X1174426Y1184373D01*
X1175378Y1185325D01*
X1165143Y1190562D02*
X1166095Y1190086D01*
X1167047Y1189134D01*
X1167523Y1187706D01*
Y1186753D01*
X1167047Y1185325D01*
X1166095Y1184373D01*
X1165143Y1183897D01*
X1163714D01*
X1162762Y1184373D01*
X1161810Y1185325D01*
X1161334Y1186753D01*
Y1187706D01*
X1161810Y1189134D01*
X1162762Y1190086D01*
X1163714Y1190562D01*
X1165143D01*
X1153431D02*
Y1183897D01*
Y1189134D02*
X1154383Y1190086D01*
X1155335Y1190562D01*
X1156763D01*
X1157716Y1190086D01*
X1158668Y1189134D01*
X1159144Y1187706D01*
Y1186753D01*
X1158668Y1185325D01*
X1157716Y1184373D01*
X1156763Y1183897D01*
X1155335D01*
X1154383Y1184373D01*
X1153431Y1185325D01*
X1150765Y1190562D02*
Y1183897D01*
Y1187706D02*
X1150288Y1189134D01*
X1149336Y1190086D01*
X1148384Y1190562D01*
X1146956D01*
X1140338Y1193895D02*
Y1183897D01*
Y1189134D02*
X1141291Y1190086D01*
X1142243Y1190562D01*
X1143671D01*
X1144623Y1190086D01*
X1145575Y1189134D01*
X1146051Y1187706D01*
Y1186753D01*
X1145575Y1185325D01*
X1144623Y1184373D01*
X1143671Y1183897D01*
X1142243D01*
X1141291Y1184373D01*
X1140338Y1185325D01*
X1129817Y1190562D02*
X1126960Y1183897D01*
X1124104Y1190562D02*
X1126960Y1183897D01*
X1122485Y1191990D02*
X1121533Y1192467D01*
X1120105Y1193895D01*
Y1183897D01*
X1114201Y1193895D02*
X1113725Y1193419D01*
X1113249Y1193895D01*
X1113725Y1194371D01*
X1114201Y1193895D01*
X1113725Y1190562D02*
Y1183897D01*
X1111011Y1191514D02*
Y1191990D01*
X1110535Y1192943D01*
X1110059Y1193419D01*
X1109107Y1193895D01*
X1107203D01*
X1106250Y1193419D01*
X1105774Y1192943D01*
X1105298Y1191990D01*
Y1191038D01*
X1105774Y1190086D01*
X1106726Y1188658D01*
X1111487Y1183897D01*
X1104822D01*
X1241555Y1172813D02*
X1242031Y1173765D01*
X1242983Y1174241D01*
X1244411D01*
X1245363Y1173765D01*
X1245839Y1173289D01*
X1246316Y1171860D01*
Y1170432D01*
X1245839Y1169480D01*
X1244887Y1169004D01*
X1243459D01*
X1242507Y1169480D01*
X1242031Y1170432D01*
X1244411Y1174241D02*
X1245363Y1173289D01*
X1245839Y1171860D01*
Y1170432D01*
X1245363Y1169480D01*
X1244887Y1169004D01*
X1241555Y1174241D02*
X1242031Y1170432D01*
Y1169480D01*
X1241079Y1169004D01*
X1240126D01*
X1239174Y1169956D01*
X1238698Y1171384D01*
Y1172337D01*
X1239174Y1173765D01*
X1239650Y1174717D01*
X1240602Y1175669D01*
X1241555Y1176145D01*
X1242983Y1176621D01*
X1244411D01*
X1245839Y1176145D01*
X1246792Y1175669D01*
X1247744Y1174717D01*
X1248220Y1173765D01*
X1248696Y1172337D01*
Y1170908D01*
X1248220Y1169480D01*
X1247744Y1168528D01*
X1246792Y1167576D01*
X1245839Y1167100D01*
X1244411Y1166623D01*
X1242983D01*
X1241555Y1167100D01*
X1240602Y1167576D01*
X1240126Y1168052D01*
X1241079Y1174241D02*
X1241555Y1170432D01*
Y1169480D01*
X1241079Y1169004D01*
X1228272Y1176621D02*
Y1166623D01*
Y1176621D02*
X1224463Y1166623D01*
X1220654Y1176621D02*
X1224463Y1166623D01*
X1220654Y1176621D02*
Y1166623D01*
X1210181D02*
X1213989Y1176621D01*
X1217798Y1166623D01*
X1216370Y1169956D02*
X1211609D01*
X1207848Y1176621D02*
Y1166623D01*
X1201182Y1176621D02*
X1207848Y1169956D01*
X1205467Y1172337D02*
X1201182Y1166623D01*
X1197993Y1176621D02*
X1197516Y1176145D01*
X1197040Y1176621D01*
X1197516Y1177097D01*
X1197993Y1176621D01*
X1197516Y1173289D02*
Y1166623D01*
X1195279Y1173289D02*
Y1166623D01*
Y1171384D02*
X1193851Y1172813D01*
X1192898Y1173289D01*
X1191470D01*
X1190518Y1172813D01*
X1190042Y1171384D01*
Y1166623D01*
X1185995Y1176621D02*
Y1168528D01*
X1185519Y1167100D01*
X1184567Y1166623D01*
X1183615D01*
X1187423Y1173289D02*
X1184091D01*
X1182187Y1170432D02*
X1176473D01*
Y1171384D01*
X1176949Y1172337D01*
X1177426Y1172813D01*
X1178378Y1173289D01*
X1179806D01*
X1180758Y1172813D01*
X1181710Y1171860D01*
X1182187Y1170432D01*
Y1169480D01*
X1181710Y1168052D01*
X1180758Y1167100D01*
X1179806Y1166623D01*
X1178378D01*
X1177426Y1167100D01*
X1176473Y1168052D01*
X1174331Y1173289D02*
Y1166623D01*
Y1170432D02*
X1173855Y1171860D01*
X1172903Y1172813D01*
X1171951Y1173289D01*
X1170522D01*
X1163905D02*
Y1166623D01*
Y1171860D02*
X1164857Y1172813D01*
X1165809Y1173289D01*
X1167237D01*
X1168189Y1172813D01*
X1169142Y1171860D01*
X1169618Y1170432D01*
Y1169480D01*
X1169142Y1168052D01*
X1168189Y1167100D01*
X1167237Y1166623D01*
X1165809D01*
X1164857Y1167100D01*
X1163905Y1168052D01*
X1155526Y1171860D02*
X1156478Y1172813D01*
X1157430Y1173289D01*
X1158858D01*
X1159810Y1172813D01*
X1160762Y1171860D01*
X1161239Y1170432D01*
Y1169480D01*
X1160762Y1168052D01*
X1159810Y1167100D01*
X1158858Y1166623D01*
X1157430D01*
X1156478Y1167100D01*
X1155526Y1168052D01*
X1151955Y1176621D02*
Y1168528D01*
X1151479Y1167100D01*
X1150527Y1166623D01*
X1149574D01*
X1153383Y1173289D02*
X1150051D01*
X1140291Y1176621D02*
Y1166623D01*
X1134578D01*
X1127770Y1173289D02*
Y1166623D01*
Y1171860D02*
X1128722Y1172813D01*
X1129674Y1173289D01*
X1131102D01*
X1132054Y1172813D01*
X1133007Y1171860D01*
X1133483Y1170432D01*
Y1169480D01*
X1133007Y1168052D01*
X1132054Y1167100D01*
X1131102Y1166623D01*
X1129674D01*
X1128722Y1167100D01*
X1127770Y1168052D01*
X1125104Y1176621D02*
Y1166623D01*
Y1171860D02*
X1124151Y1172813D01*
X1123199Y1173289D01*
X1121771D01*
X1120819Y1172813D01*
X1119866Y1171860D01*
X1119390Y1170432D01*
Y1169480D01*
X1119866Y1168052D01*
X1120819Y1167100D01*
X1121771Y1166623D01*
X1123199D01*
X1124151Y1167100D01*
X1125104Y1168052D01*
X1248696Y1159824D02*
Y1149826D01*
X1242031Y1159824D02*
X1248696Y1153159D01*
X1246316Y1155539D02*
X1242031Y1149826D01*
X1232176D02*
X1235984Y1159824D01*
X1239793Y1149826D01*
X1238365Y1153159D02*
X1233604D01*
X1229843Y1159824D02*
Y1149826D01*
X1221083Y1158396D02*
X1222035Y1159348D01*
X1223463Y1159824D01*
X1225368D01*
X1226796Y1159348D01*
X1227748Y1158396D01*
Y1157443D01*
X1227272Y1156491D01*
X1226796Y1156015D01*
X1225844Y1155539D01*
X1222987Y1154587D01*
X1222035Y1154111D01*
X1221559Y1153635D01*
X1221083Y1152682D01*
Y1151254D01*
X1222035Y1150302D01*
X1223463Y1149826D01*
X1225368D01*
X1226796Y1150302D01*
X1227748Y1151254D01*
X1215513Y1159824D02*
Y1149826D01*
X1218845Y1159824D02*
X1212180D01*
X1202658Y1157443D02*
Y1157919D01*
X1202182Y1158872D01*
X1201706Y1159348D01*
X1200754Y1159824D01*
X1198849D01*
X1197897Y1159348D01*
X1197421Y1158872D01*
X1196945Y1157919D01*
Y1156967D01*
X1197421Y1156015D01*
X1198373Y1154587D01*
X1203134Y1149826D01*
X1196469D01*
X1191375Y1159824D02*
X1192803Y1159348D01*
X1193755Y1157919D01*
X1194231Y1155539D01*
Y1154111D01*
X1193755Y1151730D01*
X1192803Y1150302D01*
X1191375Y1149826D01*
X1190423D01*
X1188995Y1150302D01*
X1188042Y1151730D01*
X1187566Y1154111D01*
Y1155539D01*
X1188042Y1157919D01*
X1188995Y1159348D01*
X1190423Y1159824D01*
X1191375D01*
X1185329Y1157919D02*
X1184377Y1158396D01*
X1182948Y1159824D01*
Y1149826D01*
X1171808Y1156491D02*
X1172284Y1155063D01*
X1173236Y1154111D01*
X1174664Y1153635D01*
X1175140D01*
X1176569Y1154111D01*
X1177521Y1155063D01*
X1177997Y1156491D01*
Y1156967D01*
X1177521Y1158396D01*
X1176569Y1159348D01*
X1175140Y1159824D01*
X1174664D01*
X1173236Y1159348D01*
X1172284Y1158396D01*
X1171808Y1156491D01*
Y1154111D01*
X1172284Y1151730D01*
X1173236Y1150302D01*
X1174664Y1149826D01*
X1175616D01*
X1177045Y1150302D01*
X1177521Y1151254D01*
M02*
