G04*
G04 #@! TF.GenerationSoftware,Altium Limited,Altium Designer,19.0.14 (431)*
G04*
G04 Layer_Color=16711935*
%FSLAX44Y44*%
%MOMM*%
G71*
G01*
G75*
%ADD28C,3.8000*%
%ADD29R,3.9000X1.5000*%
%ADD30R,3.4000X1.5000*%
%ADD31R,1.5000X3.4000*%
%ADD32C,1.7000*%
G04:AMPARAMS|DCode=33|XSize=14.2mm|YSize=1.4mm|CornerRadius=0.7mm|HoleSize=0mm|Usage=FLASHONLY|Rotation=0.000|XOffset=0mm|YOffset=0mm|HoleType=Round|Shape=RoundedRectangle|*
%AMROUNDEDRECTD33*
21,1,14.2000,0.0000,0,0,0.0*
21,1,12.8000,1.4000,0,0,0.0*
1,1,1.4000,6.4000,0.0000*
1,1,1.4000,-6.4000,0.0000*
1,1,1.4000,-6.4000,0.0000*
1,1,1.4000,6.4000,0.0000*
%
%ADD33ROUNDEDRECTD33*%
%ADD52R,15.1000X0.8000*%
D28*
X939750Y1098500D02*
D03*
X1033750D02*
D03*
X920750Y1193800D02*
D03*
X1052750D02*
D03*
X986750Y1098500D02*
D03*
D29*
X812800Y1114750D02*
D03*
D30*
Y1174750D02*
D03*
D31*
X765800Y1144750D02*
D03*
D32*
X1231900Y762000D02*
D03*
Y787400D02*
D03*
Y812800D02*
D03*
Y838200D02*
D03*
Y863600D02*
D03*
Y889000D02*
D03*
X749300D02*
D03*
Y863600D02*
D03*
Y838200D02*
D03*
Y812800D02*
D03*
Y787400D02*
D03*
Y762000D02*
D03*
Y736600D02*
D03*
Y711200D02*
D03*
Y619760D02*
D03*
Y441960D02*
D03*
Y467360D02*
D03*
Y492760D02*
D03*
Y518160D02*
D03*
Y543560D02*
D03*
Y568960D02*
D03*
Y594360D02*
D03*
Y645160D02*
D03*
Y670560D02*
D03*
X1231900Y533400D02*
D03*
Y558800D02*
D03*
Y584200D02*
D03*
Y609600D02*
D03*
Y635000D02*
D03*
Y660400D02*
D03*
Y685800D02*
D03*
Y711200D02*
D03*
D33*
X1080770Y645160D02*
D03*
Y619760D02*
D03*
Y594360D02*
D03*
Y568960D02*
D03*
Y543560D02*
D03*
Y518160D02*
D03*
Y492760D02*
D03*
Y467360D02*
D03*
X900430D02*
D03*
Y492760D02*
D03*
Y518160D02*
D03*
Y543560D02*
D03*
Y568960D02*
D03*
Y594360D02*
D03*
Y619760D02*
D03*
Y645160D02*
D03*
Y848360D02*
D03*
Y873760D02*
D03*
Y822960D02*
D03*
Y797560D02*
D03*
Y772160D02*
D03*
Y746760D02*
D03*
Y721360D02*
D03*
Y695960D02*
D03*
Y670560D02*
D03*
X1080770D02*
D03*
Y695960D02*
D03*
Y721360D02*
D03*
Y746760D02*
D03*
Y772160D02*
D03*
Y797560D02*
D03*
Y822960D02*
D03*
Y873760D02*
D03*
Y848360D02*
D03*
D52*
Y657860D02*
D03*
Y632460D02*
D03*
Y607060D02*
D03*
Y581660D02*
D03*
Y556260D02*
D03*
Y530860D02*
D03*
Y505460D02*
D03*
Y480060D02*
D03*
X900430D02*
D03*
Y505460D02*
D03*
Y530860D02*
D03*
Y556260D02*
D03*
Y581660D02*
D03*
Y607060D02*
D03*
Y632460D02*
D03*
Y657860D02*
D03*
Y861060D02*
D03*
Y835660D02*
D03*
Y810260D02*
D03*
Y784860D02*
D03*
Y759460D02*
D03*
Y734060D02*
D03*
Y708660D02*
D03*
Y683260D02*
D03*
X1080770D02*
D03*
Y708660D02*
D03*
Y734060D02*
D03*
Y759460D02*
D03*
Y784860D02*
D03*
Y810260D02*
D03*
Y835660D02*
D03*
Y861060D02*
D03*
M02*
