G04*
G04 #@! TF.GenerationSoftware,Altium Limited,Altium Designer,19.0.14 (431)*
G04*
G04 Layer_Physical_Order=3*
G04 Layer_Color=128*
%FSLAX44Y44*%
%MOMM*%
G71*
G01*
G75*
%ADD45C,1.0160*%
%ADD46C,2.0000*%
%ADD47O,3.7000X1.3000*%
%ADD48C,1.1000*%
%ADD49O,14.2000X1.4000*%
%ADD50C,0.5000*%
%ADD51O,3.2000X1.3000*%
%ADD52O,1.3000X3.2000*%
D45*
X711200Y254000D02*
Y1219200D01*
X1270000Y1219200D01*
X1270000Y254000D01*
X711200D02*
X1270000D01*
D46*
X939750Y1098500D02*
D03*
X1033750D02*
D03*
X920750Y1193800D02*
D03*
X1052750D02*
D03*
X986750Y1098500D02*
D03*
D47*
X812800Y1114750D02*
D03*
D48*
X1231900Y762000D02*
D03*
Y787400D02*
D03*
Y812800D02*
D03*
Y838200D02*
D03*
Y863600D02*
D03*
Y889000D02*
D03*
X749300D02*
D03*
Y863600D02*
D03*
Y838200D02*
D03*
Y812800D02*
D03*
Y787400D02*
D03*
Y762000D02*
D03*
Y736600D02*
D03*
Y711200D02*
D03*
Y619760D02*
D03*
Y441960D02*
D03*
Y467360D02*
D03*
Y492760D02*
D03*
Y518160D02*
D03*
Y543560D02*
D03*
Y568960D02*
D03*
Y594360D02*
D03*
Y645160D02*
D03*
Y670560D02*
D03*
X1231900Y533400D02*
D03*
Y558800D02*
D03*
Y584200D02*
D03*
Y609600D02*
D03*
Y635000D02*
D03*
Y660400D02*
D03*
Y685800D02*
D03*
Y711200D02*
D03*
D49*
X1080770Y645160D02*
D03*
Y619760D02*
D03*
Y594360D02*
D03*
Y568960D02*
D03*
Y543560D02*
D03*
Y518160D02*
D03*
Y492760D02*
D03*
Y467360D02*
D03*
X900430D02*
D03*
Y492760D02*
D03*
Y518160D02*
D03*
Y543560D02*
D03*
Y568960D02*
D03*
Y594360D02*
D03*
Y619760D02*
D03*
Y645160D02*
D03*
Y848360D02*
D03*
Y873760D02*
D03*
Y822960D02*
D03*
Y797560D02*
D03*
Y772160D02*
D03*
Y746760D02*
D03*
Y721360D02*
D03*
Y695960D02*
D03*
Y670560D02*
D03*
X1080770D02*
D03*
Y695960D02*
D03*
Y721360D02*
D03*
Y746760D02*
D03*
Y772160D02*
D03*
Y797560D02*
D03*
Y822960D02*
D03*
Y873760D02*
D03*
Y848360D02*
D03*
D50*
X980440Y480060D02*
D03*
X1000531Y479552D02*
D03*
Y632460D02*
D03*
X838050Y436880D02*
D03*
X1225550Y985520D02*
D03*
X1175410Y1064260D02*
D03*
X1115060Y297180D02*
D03*
X1179830Y283210D02*
D03*
X1136970Y364490D02*
D03*
X825500Y1032510D02*
D03*
X1200658Y1005640D02*
D03*
X1187958Y1006910D02*
D03*
X812800Y1032510D02*
D03*
X815340Y288290D02*
D03*
X1122680Y317500D02*
D03*
X787400Y318316D02*
D03*
X730250Y709930D02*
D03*
X800100Y1065530D02*
D03*
X980440Y835660D02*
D03*
Y810260D02*
D03*
Y708660D02*
D03*
Y734060D02*
D03*
Y607060D02*
D03*
Y632460D02*
D03*
Y505460D02*
D03*
Y530860D02*
D03*
Y861060D02*
D03*
Y784860D02*
D03*
Y759460D02*
D03*
Y683260D02*
D03*
Y657860D02*
D03*
Y581660D02*
D03*
Y556260D02*
D03*
X1000760Y505460D02*
D03*
X828040Y303840D02*
D03*
X769620Y643890D02*
D03*
X812800Y341630D02*
D03*
X792480Y287020D02*
D03*
X762000Y392430D02*
D03*
X803910Y487680D02*
D03*
X795020Y479552D02*
D03*
X838050Y414020D02*
D03*
X825500D02*
D03*
Y435610D02*
D03*
X813566Y444500D02*
D03*
X800100Y414020D02*
D03*
X812800D02*
D03*
X787400Y414020D02*
D03*
X774700Y414020D02*
D03*
X800100Y458470D02*
D03*
X773176Y835406D02*
D03*
X780034Y810260D02*
D03*
X786130Y784860D02*
D03*
X793750Y759460D02*
D03*
X821690Y899160D02*
D03*
X800100Y734060D02*
D03*
X806450Y708660D02*
D03*
X850900Y984250D02*
D03*
X812800Y683260D02*
D03*
X838200Y941070D02*
D03*
X825500D02*
D03*
X812800D02*
D03*
X800100D02*
D03*
X787400D02*
D03*
X774700D02*
D03*
X762000D02*
D03*
X1000760Y1000760D02*
D03*
X1014730Y989330D02*
D03*
Y1013460D02*
D03*
X1000760Y861060D02*
D03*
Y835660D02*
D03*
Y810260D02*
D03*
Y784860D02*
D03*
Y759460D02*
D03*
Y734060D02*
D03*
Y708660D02*
D03*
Y683260D02*
D03*
Y657860D02*
D03*
Y607060D02*
D03*
Y581660D02*
D03*
Y556260D02*
D03*
Y530860D02*
D03*
D51*
X812800Y1174750D02*
D03*
D52*
X765800Y1144750D02*
D03*
M02*
