G04*
G04 #@! TF.GenerationSoftware,Altium Limited,Altium Designer,18.1.7 (191)*
G04*
G04 Layer_Color=8421504*
%FSLAX44Y44*%
%MOMM*%
G71*
G01*
G75*
%ADD15R,0.9000X0.6000*%
%ADD16R,0.6000X0.9000*%
%ADD17R,0.6000X0.7000*%
%ADD18R,0.3000X0.5000*%
%ADD19O,1.1000X0.5100*%
%ADD20R,1.1000X0.5100*%
D15*
X1238250Y552990D02*
D03*
Y537990D02*
D03*
X1303020Y800830D02*
D03*
Y815830D02*
D03*
D16*
X1290846Y988060D02*
D03*
X1305846D02*
D03*
X787280Y758190D02*
D03*
X772280D02*
D03*
X784218Y900430D02*
D03*
X799218D02*
D03*
D17*
X922350Y965200D02*
D03*
X931850D02*
D03*
X922350Y939800D02*
D03*
X931850D02*
D03*
X922350Y914400D02*
D03*
X931850D02*
D03*
X922350Y889000D02*
D03*
X931850D02*
D03*
X922350Y863600D02*
D03*
X931850D02*
D03*
X922350Y838200D02*
D03*
X931850D02*
D03*
X922350Y812800D02*
D03*
X931850D02*
D03*
X922350Y787400D02*
D03*
X931850D02*
D03*
X922350Y762000D02*
D03*
X931850D02*
D03*
X922350Y736600D02*
D03*
X931850D02*
D03*
X922350Y711200D02*
D03*
X931850D02*
D03*
X922350Y685800D02*
D03*
X931850D02*
D03*
X922350Y660400D02*
D03*
X931850D02*
D03*
X922350Y635000D02*
D03*
X931850D02*
D03*
X922350Y609600D02*
D03*
X931850D02*
D03*
X922350Y584200D02*
D03*
X931850D02*
D03*
X922350Y558800D02*
D03*
X931850D02*
D03*
X1112190Y965200D02*
D03*
X1102690D02*
D03*
X1112190Y939800D02*
D03*
X1102690D02*
D03*
X1112190Y914400D02*
D03*
X1102690D02*
D03*
X1112190Y889000D02*
D03*
X1102690D02*
D03*
X1112190Y863600D02*
D03*
X1102690D02*
D03*
X1112190Y838200D02*
D03*
X1102690D02*
D03*
X1112190Y812800D02*
D03*
X1102690D02*
D03*
X1112190Y787400D02*
D03*
X1102690D02*
D03*
X1112190Y762000D02*
D03*
X1102690D02*
D03*
X1112190Y736600D02*
D03*
X1102690D02*
D03*
X1112190Y711200D02*
D03*
X1102690D02*
D03*
X1112190Y685800D02*
D03*
X1102690D02*
D03*
X1112190Y660400D02*
D03*
X1102690D02*
D03*
X1112190Y635000D02*
D03*
X1102690D02*
D03*
X1112190Y609600D02*
D03*
X1102690D02*
D03*
X1112190Y584200D02*
D03*
X1102690D02*
D03*
X1112190Y558800D02*
D03*
X1102690D02*
D03*
D18*
X822000Y965200D02*
D03*
X829000D02*
D03*
X822000Y939800D02*
D03*
X829000D02*
D03*
X822000Y914400D02*
D03*
X829000D02*
D03*
X822000Y889000D02*
D03*
X829000D02*
D03*
X822000Y863600D02*
D03*
X829000D02*
D03*
X822000Y838200D02*
D03*
X829000D02*
D03*
X822000Y812800D02*
D03*
X829000D02*
D03*
X822000Y787400D02*
D03*
X829000D02*
D03*
X822000Y762000D02*
D03*
X829000D02*
D03*
X822000Y736600D02*
D03*
X829000D02*
D03*
X822000Y711200D02*
D03*
X829000D02*
D03*
X822000Y685800D02*
D03*
X829000D02*
D03*
X822000Y660400D02*
D03*
X829000D02*
D03*
X822000Y635000D02*
D03*
X829000D02*
D03*
X822000Y609600D02*
D03*
X829000D02*
D03*
X822000Y584200D02*
D03*
X829000D02*
D03*
X822000Y558800D02*
D03*
X829000D02*
D03*
X1210000Y965200D02*
D03*
X1203000D02*
D03*
X1210000Y939800D02*
D03*
X1203000D02*
D03*
X1210000Y914400D02*
D03*
X1203000D02*
D03*
X1210000Y889000D02*
D03*
X1203000D02*
D03*
X1210000Y863600D02*
D03*
X1203000D02*
D03*
X1210000Y838200D02*
D03*
X1203000D02*
D03*
X1210000Y812800D02*
D03*
X1203000D02*
D03*
X1210000Y787400D02*
D03*
X1203000D02*
D03*
X1210000Y762000D02*
D03*
X1203000D02*
D03*
X1210000Y736600D02*
D03*
X1203000D02*
D03*
X1210000Y711200D02*
D03*
X1203000D02*
D03*
X1210000Y685800D02*
D03*
X1203000D02*
D03*
X1210000Y660400D02*
D03*
X1203000D02*
D03*
X1210000Y635000D02*
D03*
X1203000D02*
D03*
X1210000Y609600D02*
D03*
X1203000D02*
D03*
X1210000Y584200D02*
D03*
X1203000D02*
D03*
X1210000Y558800D02*
D03*
X1203000D02*
D03*
D19*
X787600Y647700D02*
D03*
Y660400D02*
D03*
Y673100D02*
D03*
Y685800D02*
D03*
Y698500D02*
D03*
Y711200D02*
D03*
Y723900D02*
D03*
Y736600D02*
D03*
X736600Y647700D02*
D03*
Y660400D02*
D03*
Y673100D02*
D03*
Y685800D02*
D03*
Y698500D02*
D03*
Y711200D02*
D03*
Y723900D02*
D03*
X1308300Y876300D02*
D03*
Y889000D02*
D03*
Y901700D02*
D03*
Y914400D02*
D03*
Y927100D02*
D03*
Y939800D02*
D03*
Y952500D02*
D03*
Y965200D02*
D03*
X1257300Y876300D02*
D03*
Y889000D02*
D03*
Y901700D02*
D03*
Y914400D02*
D03*
Y927100D02*
D03*
Y939800D02*
D03*
Y952500D02*
D03*
X1308300Y685800D02*
D03*
Y698500D02*
D03*
Y711200D02*
D03*
Y723900D02*
D03*
Y736600D02*
D03*
Y749300D02*
D03*
Y762000D02*
D03*
Y774700D02*
D03*
X1257300Y685800D02*
D03*
Y698500D02*
D03*
Y711200D02*
D03*
Y723900D02*
D03*
Y736600D02*
D03*
Y749300D02*
D03*
Y762000D02*
D03*
Y643890D02*
D03*
Y631190D02*
D03*
Y618490D02*
D03*
Y605790D02*
D03*
Y593090D02*
D03*
Y580390D02*
D03*
Y567690D02*
D03*
Y554990D02*
D03*
X1308300Y643890D02*
D03*
Y631190D02*
D03*
Y618490D02*
D03*
Y605790D02*
D03*
Y593090D02*
D03*
Y580390D02*
D03*
Y567690D02*
D03*
X787600Y787400D02*
D03*
Y800100D02*
D03*
Y812800D02*
D03*
Y825500D02*
D03*
Y838200D02*
D03*
Y850900D02*
D03*
Y863600D02*
D03*
Y876300D02*
D03*
X736600Y787400D02*
D03*
Y800100D02*
D03*
Y812800D02*
D03*
Y825500D02*
D03*
Y838200D02*
D03*
Y850900D02*
D03*
Y863600D02*
D03*
D20*
Y736600D02*
D03*
X1257300Y965200D02*
D03*
Y774700D02*
D03*
X1308300Y554990D02*
D03*
X736600Y876300D02*
D03*
M02*
